ISO-10303-21;
HEADER;
FILE_DESCRIPTION(('ViewDefinition [CoordinationView]'),'2;1');
FILE_NAME('','2026-10-05T17:36:24',(''),(''),'IfcOpenShell 0.8.1-0b0e417','IfcOpenShell 0.8.1-0b0e417','');
FILE_SCHEMA(('IFC4'));
ENDSEC;
DATA;
#1=IFCPROJECT('2Ar4Z5BIj4GB2jKb1TCWhL',$,'WinPlax OK-1',$,$,$,$,(#6),$);
#2=IFCCARTESIANPOINT((0.,0.,0.));
#3=IFCDIRECTION((0.,0.,1.));
#4=IFCDIRECTION((1.,0.,0.));
#5=IFCAXIS2PLACEMENT3D(#2,#3,#4);
#6=IFCGEOMETRICREPRESENTATIONCONTEXT($,'Model',3,1.E-05,#5,$);
#7=IFCGEOMETRICREPRESENTATIONSUBCONTEXT('Body','Model',*,*,*,*,#6,$,.MODEL_VIEW.,$);
#8=IFCCARTESIANPOINTLIST2D(((0.,0.),(1.44,0.),(1.44,1.44),(0.,1.44)));
#9=IFCINDEXEDPOLYCURVE(#8,(IFCLINEINDEX((1,2,3,4,1))),$);
#10=IFCCARTESIANPOINTLIST2D(((0.025,0.025),(1.415,0.025),(1.415,1.415),(0.025,1.415)));
#11=IFCINDEXEDPOLYCURVE(#10,(IFCLINEINDEX((1,2,3,4,1))),$);
#12=IFCARBITRARYPROFILEDEFWITHVOIDS(.AREA.,$,#9,(#11));
#13=IFCCARTESIANPOINT((0.,0.11,0.));
#14=IFCDIRECTION((0.,-1.,0.));
#15=IFCDIRECTION((1.,0.,0.));
#16=IFCAXIS2PLACEMENT3D(#13,#14,#15);
#17=IFCDIRECTION((0.,0.,-1.));
#18=IFCEXTRUDEDAREASOLID(#12,#16,#17,0.01);
#19=IFCCARTESIANPOINTLIST2D(((0.,0.),(1.44,0.),(1.44,1.44),(0.,1.44)));
#20=IFCINDEXEDPOLYCURVE(#19,(IFCLINEINDEX((1,2,3,4,1))),$);
#21=IFCCARTESIANPOINTLIST2D(((0.06,0.06),(1.38,0.06),(1.38,1.38),(0.06,1.38)));
#22=IFCINDEXEDPOLYCURVE(#21,(IFCLINEINDEX((1,2,3,4,1))),$);
#23=IFCARBITRARYPROFILEDEFWITHVOIDS(.AREA.,$,#20,(#22));
#24=IFCCARTESIANPOINT((0.,0.05,0.));
#25=IFCDIRECTION((0.,-1.,0.));
#26=IFCDIRECTION((1.,0.,0.));
#27=IFCAXIS2PLACEMENT3D(#24,#25,#26);
#28=IFCDIRECTION((0.,0.,-1.));
#29=IFCEXTRUDEDAREASOLID(#23,#27,#28,0.06);
#30=IFCCARTESIANPOINTLIST2D(((0.,0.),(1.39,0.),(1.39,1.39),(0.,1.39)));
#31=IFCINDEXEDPOLYCURVE(#30,(IFCLINEINDEX((1,2,3,4,1))),$);
#32=IFCCARTESIANPOINTLIST2D(((0.035,0.035),(1.355,0.035),(1.355,1.355),(0.035,1.355)));
#33=IFCINDEXEDPOLYCURVE(#32,(IFCLINEINDEX((1,2,3,4,1))),$);
#34=IFCARBITRARYPROFILEDEFWITHVOIDS(.AREA.,$,#31,(#33));
#35=IFCCARTESIANPOINT((0.025,0.11,0.025));
#36=IFCDIRECTION((0.,-1.,0.));
#37=IFCDIRECTION((1.,0.,0.));
#38=IFCAXIS2PLACEMENT3D(#35,#36,#37);
#39=IFCDIRECTION((0.,0.,-1.));
#40=IFCEXTRUDEDAREASOLID(#34,#38,#39,0.035);
#41=IFCINDEXEDPOLYCURVE(#42,(IFCLINEINDEX((1,2,3,4,1))),$);
#42=IFCCARTESIANPOINTLIST2D(((0.035,0.035),(1.355,0.035),(1.355,1.355),(0.035,1.355)));
#43=IFCARBITRARYCLOSEDPROFILEDEF(.AREA.,$,#41);
#44=IFCCARTESIANPOINT((0.025,0.1225,0.025));
#45=IFCDIRECTION((0.,-1.,0.));
#46=IFCDIRECTION((1.,0.,0.));
#47=IFCAXIS2PLACEMENT3D(#44,#45,#46);
#48=IFCDIRECTION((0.,0.,-1.));
#49=IFCEXTRUDEDAREASOLID(#43,#47,#48,0.01);
#50=IFCSHAPEREPRESENTATION(#7,'Body','SolidModel',(#18,#29,#40,#49));
ENDSEC;
END-ISO-10303-21;
