  0
SECTION
  2
HEADER
  9
$ACADVER
  1
AC1027
  9
$ACADMAINTVER
 70
105
  9
$DWGCODEPAGE
  3
ANSI_1251
  9
$LASTSAVEDBY
  1
ezdxf
  9
$REQUIREDVERSIONS
160
0
  9
$INSBASE
 10
0.0
 20
0.0
 30
0.0
  9
$EXTMIN
 10
1e+20
 20
1e+20
 30
1e+20
  9
$EXTMAX
 10
-1e+20
 20
-1e+20
 30
-1e+20
  9
$LIMMIN
 10
0.0
 20
0.0
  9
$LIMMAX
 10
420.0
 20
297.0
  9
$ORTHOMODE
 70
0
  9
$REGENMODE
 70
1
  9
$FILLMODE
 70
1
  9
$QTEXTMODE
 70
0
  9
$MIRRTEXT
 70
1
  9
$LTSCALE
 40
25.0
  9
$ATTMODE
 70
1
  9
$TEXTSIZE
 40
2.5
  9
$TRACEWID
 40
1.0
  9
$TEXTSTYLE
  7
Standard
  9
$CLAYER
  8
0
  9
$CELTYPE
  6
ByLayer
  9
$CECOLOR
 62
256
  9
$CELTSCALE
 40
1.0
  9
$DISPSILH
 70
0
  9
$DIMSCALE
 40
1.0
  9
$DIMASZ
 40
2.5
  9
$DIMEXO
 40
0.625
  9
$DIMDLI
 40
3.75
  9
$DIMRND
 40
0.0
  9
$DIMDLE
 40
0.0
  9
$DIMEXE
 40
1.25
  9
$DIMTP
 40
0.0
  9
$DIMTM
 40
0.0
  9
$DIMTXT
 40
2.5
  9
$DIMCEN
 40
2.5
  9
$DIMTSZ
 40
0.0
  9
$DIMTOL
 70
0
  9
$DIMLIM
 70
0
  9
$DIMTIH
 70
0
  9
$DIMTOH
 70
0
  9
$DIMSE1
 70
0
  9
$DIMSE2
 70
0
  9
$DIMTAD
 70
1
  9
$DIMZIN
 70
8
  9
$DIMBLK
  1

  9
$DIMASO
 70
1
  9
$DIMSHO
 70
1
  9
$DIMPOST
  1

  9
$DIMAPOST
  1

  9
$DIMALT
 70
0
  9
$DIMALTD
 70
3
  9
$DIMALTF
 40
0.03937007874
  9
$DIMLFAC
 40
1.0
  9
$DIMTOFL
 70
1
  9
$DIMTVP
 40
0.0
  9
$DIMTIX
 70
0
  9
$DIMSOXD
 70
0
  9
$DIMSAH
 70
0
  9
$DIMBLK1
  1

  9
$DIMBLK2
  1

  9
$DIMSTYLE
  2
ISO-25
  9
$DIMCLRD
 70
0
  9
$DIMCLRE
 70
0
  9
$DIMCLRT
 70
0
  9
$DIMTFAC
 40
1.0
  9
$DIMGAP
 40
0.625
  9
$DIMJUST
 70
0
  9
$DIMSD1
 70
0
  9
$DIMSD2
 70
0
  9
$DIMTOLJ
 70
0
  9
$DIMTZIN
 70
8
  9
$DIMALTZ
 70
0
  9
$DIMALTTZ
 70
0
  9
$DIMUPT
 70
0
  9
$DIMDEC
 70
2
  9
$DIMTDEC
 70
2
  9
$DIMALTU
 70
2
  9
$DIMALTTD
 70
3
  9
$DIMTXSTY
  7
Standard
  9
$DIMAUNIT
 70
0
  9
$DIMADEC
 70
0
  9
$DIMALTRND
 40
0.0
  9
$DIMAZIN
 70
0
  9
$DIMDSEP
 70
44
  9
$DIMATFIT
 70
3
  9
$DIMFRAC
 70
0
  9
$DIMLDRBLK
  1

  9
$DIMLUNIT
 70
2
  9
$DIMLWD
 70
-2
  9
$DIMLWE
 70
-2
  9
$DIMTMOVE
 70
0
  9
$DIMFXL
 40
1.0
  9
$DIMFXLON
 70
0
  9
$DIMJOGANG
 40
0.785398163397
  9
$DIMTFILL
 70
0
  9
$DIMTFILLCLR
 70
0
  9
$DIMARCSYM
 70
0
  9
$DIMLTYPE
  6

  9
$DIMLTEX1
  6

  9
$DIMLTEX2
  6

  9
$DIMTXTDIRECTION
 70
0
  9
$LUNITS
 70
2
  9
$LUPREC
 70
4
  9
$SKETCHINC
 40
1.0
  9
$FILLETRAD
 40
10.0
  9
$AUNITS
 70
0
  9
$AUPREC
 70
2
  9
$MENU
  1
.
  9
$ELEVATION
 40
0.0
  9
$PELEVATION
 40
0.0
  9
$THICKNESS
 40
0.0
  9
$LIMCHECK
 70
0
  9
$CHAMFERA
 40
0.0
  9
$CHAMFERB
 40
0.0
  9
$CHAMFERC
 40
0.0
  9
$CHAMFERD
 40
0.0
  9
$SKPOLY
 70
0
  9
$TDCREATE
 40
2461304.724675926
  9
$TDUCREATE
 40
2458532.153996898
  9
$TDUPDATE
 40
2461304.724675926
  9
$TDUUPDATE
 40
2458532.1544311
  9
$TDINDWG
 40
0.0
  9
$TDUSRTIMER
 40
0.0
  9
$USRTIMER
 70
1
  9
$ANGBASE
 50
0.0
  9
$ANGDIR
 70
0
  9
$PDMODE
 70
0
  9
$PDSIZE
 40
0.0
  9
$PLINEWID
 40
0.0
  9
$SPLFRAME
 70
0
  9
$SPLINETYPE
 70
6
  9
$SPLINESEGS
 70
8
  9
$HANDSEED
  5
3BB
  9
$SURFTAB1
 70
6
  9
$SURFTAB2
 70
6
  9
$SURFTYPE
 70
6
  9
$SURFU
 70
6
  9
$SURFV
 70
6
  9
$UCSBASE
  2

  9
$UCSNAME
  2

  9
$UCSORG
 10
0.0
 20
0.0
 30
0.0
  9
$UCSXDIR
 10
1.0
 20
0.0
 30
0.0
  9
$UCSYDIR
 10
0.0
 20
1.0
 30
0.0
  9
$UCSORTHOREF
  2

  9
$UCSORTHOVIEW
 70
0
  9
$UCSORGTOP
 10
0.0
 20
0.0
 30
0.0
  9
$UCSORGBOTTOM
 10
0.0
 20
0.0
 30
0.0
  9
$UCSORGLEFT
 10
0.0
 20
0.0
 30
0.0
  9
$UCSORGRIGHT
 10
0.0
 20
0.0
 30
0.0
  9
$UCSORGFRONT
 10
0.0
 20
0.0
 30
0.0
  9
$UCSORGBACK
 10
0.0
 20
0.0
 30
0.0
  9
$PUCSBASE
  2

  9
$PUCSNAME
  2

  9
$PUCSORG
 10
0.0
 20
0.0
 30
0.0
  9
$PUCSXDIR
 10
1.0
 20
0.0
 30
0.0
  9
$PUCSYDIR
 10
0.0
 20
1.0
 30
0.0
  9
$PUCSORTHOREF
  2

  9
$PUCSORTHOVIEW
 70
0
  9
$PUCSORGTOP
 10
0.0
 20
0.0
 30
0.0
  9
$PUCSORGBOTTOM
 10
0.0
 20
0.0
 30
0.0
  9
$PUCSORGLEFT
 10
0.0
 20
0.0
 30
0.0
  9
$PUCSORGRIGHT
 10
0.0
 20
0.0
 30
0.0
  9
$PUCSORGFRONT
 10
0.0
 20
0.0
 30
0.0
  9
$PUCSORGBACK
 10
0.0
 20
0.0
 30
0.0
  9
$USERI1
 70
0
  9
$USERI2
 70
0
  9
$USERI3
 70
0
  9
$USERI4
 70
0
  9
$USERI5
 70
0
  9
$USERR1
 40
0.0
  9
$USERR2
 40
0.0
  9
$USERR3
 40
0.0
  9
$USERR4
 40
0.0
  9
$USERR5
 40
0.0
  9
$WORLDVIEW
 70
1
  9
$SHADEDGE
 70
3
  9
$SHADEDIF
 70
70
  9
$TILEMODE
 70
1
  9
$MAXACTVP
 70
64
  9
$PINSBASE
 10
0.0
 20
0.0
 30
0.0
  9
$PLIMCHECK
 70
0
  9
$PEXTMIN
 10
1e+20
 20
1e+20
 30
1e+20
  9
$PEXTMAX
 10
-1e+20
 20
-1e+20
 30
-1e+20
  9
$PLIMMIN
 10
0.0
 20
0.0
  9
$PLIMMAX
 10
420.0
 20
297.0
  9
$UNITMODE
 70
0
  9
$VISRETAIN
 70
1
  9
$PLINEGEN
 70
0
  9
$PSLTSCALE
 70
1
  9
$TREEDEPTH
 70
3020
  9
$CMLSTYLE
  2
Standard
  9
$CMLJUST
 70
0
  9
$CMLSCALE
 40
20.0
  9
$PROXYGRAPHICS
 70
1
  9
$MEASUREMENT
 70
1
  9
$CELWEIGHT
370
-1
  9
$ENDCAPS
280
0
  9
$JOINSTYLE
280
0
  9
$LWDISPLAY
290
0
  9
$INSUNITS
 70
6
  9
$HYPERLINKBASE
  1

  9
$STYLESHEET
  1

  9
$XEDIT
290
1
  9
$CEPSNTYPE
380
0
  9
$PSTYLEMODE
290
1
  9
$FINGERPRINTGUID
  2
{FA55CBD3-D1A5-4E79-B5D9-E11F38A707CF}
  9
$VERSIONGUID
  2
{C767286B-E12E-4837-B120-FEE104CD961C}
  9
$EXTNAMES
290
1
  9
$PSVPSCALE
 40
0.0
  9
$OLESTARTUP
290
0
  9
$SORTENTS
280
127
  9
$INDEXCTL
280
0
  9
$HIDETEXT
280
1
  9
$XCLIPFRAME
280
1
  9
$HALOGAP
280
0
  9
$OBSCOLOR
 70
257
  9
$OBSLTYPE
280
0
  9
$INTERSECTIONDISPLAY
280
0
  9
$INTERSECTIONCOLOR
 70
257
  9
$DIMASSOC
280
2
  9
$PROJECTNAME
  1

  9
$CAMERADISPLAY
290
0
  9
$LENSLENGTH
 40
50.0
  9
$CAMERAHEIGHT
 40
0.0
  9
$STEPSPERSEC
 40
24.0
  9
$STEPSIZE
 40
100.0
  9
$3DDWFPREC
 40
2.0
  9
$PSOLWIDTH
 40
0.005
  9
$PSOLHEIGHT
 40
0.08
  9
$LOFTANG1
 40
1.570796326795
  9
$LOFTANG2
 40
1.570796326795
  9
$LOFTMAG1
 40
0.0
  9
$LOFTMAG2
 40
0.0
  9
$LOFTPARAM
 70
7
  9
$LOFTNORMALS
280
1
  9
$LATITUDE
 40
37.795
  9
$LONGITUDE
 40
-122.394
  9
$NORTHDIRECTION
 40
0.0
  9
$TIMEZONE
 70
-8000
  9
$LIGHTGLYPHDISPLAY
280
1
  9
$TILEMODELIGHTSYNCH
280
1
  9
$CMATERIAL
347
20
  9
$SOLIDHIST
280
0
  9
$SHOWHIST
280
1
  9
$DWFFRAME
280
2
  9
$DGNFRAME
280
2
  9
$REALWORLDSCALE
290
1
  9
$INTERFERECOLOR
 62
256
  9
$CSHADOW
280
0
  9
$SHADOWPLANELOCATION
 40
0.0
  0
ENDSEC
  0
SECTION
  2
CLASSES
  0
CLASS
  1
ACDBDICTIONARYWDFLT
  2
AcDbDictionaryWithDefault
  3
ObjectDBX Classes
 90
0
 91
0
280
0
281
0
  0
CLASS
  1
SUN
  2
AcDbSun
  3
SCENEOE
 90
1153
 91
0
280
0
281
0
  0
CLASS
  1
VISUALSTYLE
  2
AcDbVisualStyle
  3
ObjectDBX Classes
 90
4095
 91
0
280
0
281
0
  0
CLASS
  1
MATERIAL
  2
AcDbMaterial
  3
ObjectDBX Classes
 90
1153
 91
0
280
0
281
0
  0
CLASS
  1
SCALE
  2
AcDbScale
  3
ObjectDBX Classes
 90
1153
 91
0
280
0
281
0
  0
CLASS
  1
TABLESTYLE
  2
AcDbTableStyle
  3
ObjectDBX Classes
 90
4095
 91
0
280
0
281
0
  0
CLASS
  1
MLEADERSTYLE
  2
AcDbMLeaderStyle
  3
ACDB_MLEADERSTYLE_CLASS
 90
4095
 91
0
280
0
281
0
  0
CLASS
  1
DICTIONARYVAR
  2
AcDbDictionaryVar
  3
ObjectDBX Classes
 90
0
 91
0
280
0
281
0
  0
CLASS
  1
CELLSTYLEMAP
  2
AcDbCellStyleMap
  3
ObjectDBX Classes
 90
1152
 91
0
280
0
281
0
  0
CLASS
  1
MENTALRAYRENDERSETTINGS
  2
AcDbMentalRayRenderSettings
  3
SCENEOE
 90
1024
 91
0
280
0
281
0
  0
CLASS
  1
ACDBDETAILVIEWSTYLE
  2
AcDbDetailViewStyle
  3
ObjectDBX Classes
 90
1025
 91
0
280
0
281
0
  0
CLASS
  1
ACDBSECTIONVIEWSTYLE
  2
AcDbSectionViewStyle
  3
ObjectDBX Classes
 90
1025
 91
0
280
0
281
0
  0
CLASS
  1
RASTERVARIABLES
  2
AcDbRasterVariables
  3
ISM
 90
0
 91
0
280
0
281
0
  0
CLASS
  1
ACDBPLACEHOLDER
  2
AcDbPlaceHolder
  3
ObjectDBX Classes
 90
0
 91
0
280
0
281
0
  0
CLASS
  1
LAYOUT
  2
AcDbLayout
  3
ObjectDBX Classes
 90
0
 91
0
280
0
281
0
  0
ENDSEC
  0
SECTION
  2
TABLES
  0
TABLE
  2
VPORT
  5
8
330
0
100
AcDbSymbolTable
 70
1
  0
VPORT
  5
23
330
8
100
AcDbSymbolTableRecord
100
AcDbViewportTableRecord
  2
*Active
 70
0
 10
0.0
 20
0.0
 11
1.0
 21
1.0
 12
0.0
 22
0.0
 13
0.0
 23
0.0
 14
0.5
 24
0.5
 15
0.5
 25
0.5
 16
0.0
 26
0.0
 36
1.0
 17
0.0
 27
0.0
 37
0.0
 40
1000.0
 41
1.34
 42
50.0
 43
0.0
 44
0.0
 50
0.0
 51
0.0
 71
0
 72
1000
 73
1
 74
3
 75
0
 76
0
 77
0
 78
0
281
0
 65
0
146
0.0
  0
ENDTAB
  0
TABLE
  2
LTYPE
  5
2
330
0
100
AcDbSymbolTable
 70
3
  0
LTYPE
  5
24
330
2
100
AcDbSymbolTableRecord
100
AcDbLinetypeTableRecord
  2
ByBlock
 70
0
  3

 72
65
 73
0
 40
0.0
  0
LTYPE
  5
25
330
2
100
AcDbSymbolTableRecord
100
AcDbLinetypeTableRecord
  2
ByLayer
 70
0
  3

 72
65
 73
0
 40
0.0
  0
LTYPE
  5
26
330
2
100
AcDbSymbolTableRecord
100
AcDbLinetypeTableRecord
  2
Continuous
 70
0
  3

 72
65
 73
0
 40
0.0
  0
ENDTAB
  0
TABLE
  2
LAYER
  5
1
330
0
100
AcDbSymbolTable
 70
7
  0
LAYER
  5
27
330
1
100
AcDbSymbolTableRecord
100
AcDbLayerTableRecord
  2
0
 70
0
 62
7
  6
Continuous
370
-3
390
13
347
21
  0
LAYER
  5
28
330
1
100
AcDbSymbolTableRecord
100
AcDbLayerTableRecord
  2
Defpoints
 70
0
 62
7
  6
Continuous
290
0
370
-3
390
13
347
21
  0
LAYER
  5
2F
330
1
100
AcDbSymbolTableRecord
100
AcDbLayerTableRecord
  2
Окна
 70
0
 62
7
  6
Continuous
370
-3
390
13
347
21
  0
LAYER
  5
30
330
1
100
AcDbSymbolTableRecord
100
AcDbLayerTableRecord
  2
Штриховые
 70
0
 62
1
  6
DASHED
370
-3
390
13
347
21
  0
LAYER
  5
31
330
1
100
AcDbSymbolTableRecord
100
AcDbLayerTableRecord
  2
Текст
 70
0
 62
7
  6
Continuous
370
-3
390
13
347
21
  0
LAYER
  5
32
330
1
100
AcDbSymbolTableRecord
100
AcDbLayerTableRecord
  2
Размеры
 70
0
 62
3
  6
Continuous
370
-3
390
13
347
21
  0
LAYER
  5
33
330
1
100
AcDbSymbolTableRecord
100
AcDbLayerTableRecord
  2
Основной
 70
0
 62
7
  6
Continuous
370
-3
390
13
347
21
  0
ENDTAB
  0
TABLE
  2
STYLE
  5
5
330
0
100
AcDbSymbolTable
 70
3
  0
STYLE
  5
29
330
5
100
AcDbSymbolTableRecord
100
AcDbTextStyleTableRecord
  2
Standard
 70
0
 40
0.0
 41
1.0
 50
0.0
 71
0
 42
2.5
  3
txt
  4

  0
STYLE
  5
34
330
5
100
AcDbSymbolTableRecord
100
AcDbTextStyleTableRecord
  2
Основной стиль
 70
0
 40
0.0
 41
1.0
 50
0.0
 71
0
 42
2.5
  3
Arial.ttf
  4

  0
STYLE
  5
35
330
5
100
AcDbSymbolTableRecord
100
AcDbTextStyleTableRecord
  2
WindowStyle
 70
0
 40
0.0
 41
1.0
 50
0.0
 71
0
 42
2.5
  3
Arial.ttf
  4

  0
ENDTAB
  0
TABLE
  2
VIEW
  5
7
330
0
100
AcDbSymbolTable
 70
0
  0
ENDTAB
  0
TABLE
  2
UCS
  5
6
330
0
100
AcDbSymbolTable
 70
0
  0
ENDTAB
  0
TABLE
  2
APPID
  5
3
330
0
100
AcDbSymbolTable
 70
3
  0
APPID
  5
2A
330
3
100
AcDbSymbolTableRecord
100
AcDbRegAppTableRecord
  2
ACAD
 70
0
  0
APPID
  5
3B8
330
3
100
AcDbSymbolTableRecord
100
AcDbRegAppTableRecord
  2
HATCHBACKGROUNDCOLOR
 70
0
  0
APPID
  5
3B9
330
3
100
AcDbSymbolTableRecord
100
AcDbRegAppTableRecord
  2
EZDXF
 70
0
  0
ENDTAB
  0
TABLE
  2
DIMSTYLE
  5
4
330
0
100
AcDbSymbolTable
 70
2
100
AcDbDimStyleTable
  0
DIMSTYLE
105
2B
330
4
100
AcDbSymbolTableRecord
100
AcDbDimStyleTableRecord
  2
Standard
 70
0
 40
1.0
 41
2.5
 42
0.625
 43
3.75
 44
1.25
 45
0.0
 46
0.0
 47
0.0
 48
0.0
 49
2.5
140
2.5
141
2.5
142
0.0
143
0.03937007874
144
1.0
145
0.0
146
1.0
147
0.625
148
0.0
 69
0
 70
0
 71
0
 72
0
 73
0
 74
0
 75
0
 76
0
 77
1
 78
8
 79
3
170
0
171
3
172
1
173
0
174
0
175
0
176
0
177
0
178
0
179
2
271
2
272
2
273
2
274
3
275
0
276
0
277
2
278
44
279
0
280
0
281
0
282
0
283
0
284
8
285
0
286
0
288
0
289
3
290
0
371
-2
372
-2
  0
DIMSTYLE
105
36
330
4
100
AcDbSymbolTableRecord
100
AcDbDimStyleTableRecord
  2
Основной стиль
 70
0
 40
4.0
 41
6.0
 42
2.5
 43
3.75
 44
3.0
 45
0.0
 46
0.0
 47
0.0
 48
0.0
 49
2.5
140
8.0
141
2.5
142
0.0
143
0.03937007874
144
1.0
145
0.0
146
1.0
147
3.0
148
0.0
 69
0
 70
0
 71
0
 72
0
 73
0
 74
0
 75
0
 76
0
 77
1
 78
8
 79
3
170
0
171
3
172
1
173
0
174
0
175
0
176
0
177
0
178
0
179
2
271
2
272
2
273
2
274
3
275
0
276
0
277
2
278
44
279
0
280
0
281
0
282
0
283
0
284
8
285
0
286
0
288
0
289
3
290
0
340
34
371
-2
372
-2
  0
ENDTAB
  0
TABLE
  2
BLOCK_RECORD
  5
9
330
0
100
AcDbSymbolTable
 70
15
  0
BLOCK_RECORD
  5
17
330
9
100
AcDbSymbolTableRecord
100
AcDbBlockTableRecord
  2
*Model_Space
340
1A
 70
0
280
1
281
0
  0
BLOCK_RECORD
  5
1B
330
9
100
AcDbSymbolTableRecord
100
AcDbBlockTableRecord
  2
*Paper_Space
340
1E
 70
0
280
1
281
0
  0
BLOCK_RECORD
  5
37
330
9
100
AcDbSymbolTableRecord
100
AcDbBlockTableRecord
  2
Пример 01 ОК-1.1 900х900 1x1 Снаружи #01
340
0
 70
0
280
1
281
0
  0
BLOCK_RECORD
  5
49
330
9
100
AcDbSymbolTableRecord
100
AcDbBlockTableRecord
  2
_CLOSEDFILLED
340
0
 70
0
280
1
281
0
  0
BLOCK_RECORD
  5
56
330
9
100
AcDbSymbolTableRecord
100
AcDbBlockTableRecord
  2
Пример 02 ОК-1.2 1000х1200 1x1 Снаружи #02
340
0
 70
0
280
1
281
0
  0
BLOCK_RECORD
  5
7D
330
9
100
AcDbSymbolTableRecord
100
AcDbBlockTableRecord
  2
Пример 03 ОК-2.1 1400х1500 2x1 Снаружи #03
340
0
 70
0
280
1
281
0
  0
BLOCK_RECORD
  5
B2
330
9
100
AcDbSymbolTableRecord
100
AcDbBlockTableRecord
  2
Пример 04 ОК-2.2 1800х1800 2x2 Снаружи #04
340
0
 70
0
280
1
281
0
  0
BLOCK_RECORD
  5
FD
330
9
100
AcDbSymbolTableRecord
100
AcDbBlockTableRecord
  2
Пример 05 ОК-3.2 1500х1500 3x2 Снаружи #05
340
0
 70
0
280
1
281
0
  0
BLOCK_RECORD
  5
140
330
9
100
AcDbSymbolTableRecord
100
AcDbBlockTableRecord
  2
Пример 06 ОК-3.2Д 1700х1700 3x2 Снаружи #06
340
0
 70
0
280
1
281
0
  0
BLOCK_RECORD
  5
187
330
9
100
AcDbSymbolTableRecord
100
AcDbBlockTableRecord
  2
Пример 07 ОК-3.3 2100х2100 3x3 Снаружи #07
340
0
 70
0
280
1
281
0
  0
BLOCK_RECORD
  5
1E5
330
9
100
AcDbSymbolTableRecord
100
AcDbBlockTableRecord
  2
Пример 08 ОК-4.3 2400х1800 4x3 Снаружи #08
340
0
 70
0
280
1
281
0
  0
BLOCK_RECORD
  5
26C
330
9
100
AcDbSymbolTableRecord
100
AcDbBlockTableRecord
  2
Пример 09 ОК-6.3 3600х2000 6x3 Снаружи #09
340
0
 70
0
280
1
281
0
  0
BLOCK_RECORD
  5
297
330
9
100
AcDbSymbolTableRecord
100
AcDbBlockTableRecord
  2
Пример 10 ОК-8.4 4800х3000 8x4 Снаружи #10
340
0
 70
0
280
1
281
0
  0
BLOCK_RECORD
  5
2C8
330
9
100
AcDbSymbolTableRecord
100
AcDbBlockTableRecord
  2
Пример 11 ОК-2.2П 1500х1500 2x2 Снаружи #11
340
0
 70
0
280
1
281
0
  0
BLOCK_RECORD
  5
2FF
330
9
100
AcDbSymbolTableRecord
100
AcDbBlockTableRecord
  2
Пример 12 ОК-УЗ 1200х2100 2x3 Снаружи #12
340
0
 70
0
280
1
281
0
  0
ENDTAB
  0
ENDSEC
  0
SECTION
  2
BLOCKS
  0
BLOCK
  5
18
330
17
100
AcDbEntity
  8
0
100
AcDbBlockBegin
  2
*Model_Space
 70
0
 10
0.0
 20
0.0
 30
0.0
  3
*Model_Space
  1

  0
ENDBLK
  5
19
330
17
100
AcDbEntity
  8
0
100
AcDbBlockEnd
  0
BLOCK
  5
1C
330
1B
100
AcDbEntity
  8
0
100
AcDbBlockBegin
  2
*Paper_Space
 70
0
 10
0.0
 20
0.0
 30
0.0
  3
*Paper_Space
  1

  0
ENDBLK
  5
1D
330
1B
100
AcDbEntity
  8
0
100
AcDbBlockEnd
  0
BLOCK
  5
38
330
37
100
AcDbEntity
  8
0
100
AcDbBlockBegin
  2
Пример 01 ОК-1.1 900х900 1x1 Снаружи #01
 70
2
 10
0.0
 20
0.0
 30
0.0
  3
Пример 01 ОК-1.1 900х900 1x1 Снаружи #01
  1

  0
LWPOLYLINE
  5
3A
330
37
100
AcDbEntity
  8
Штриховые
100
AcDbPolyline
 90
4
 70
1
 10
0.0
 20
0.0
 10
900.0
 20
0.0
 10
900.0
 20
900.0
 10
0.0
 20
900.0
  0
LWPOLYLINE
  5
3B
330
37
100
AcDbEntity
  8
Окна
100
AcDbPolyline
 90
4
 70
1
 10
20.0
 20
20.0
 10
880.0
 20
20.0
 10
880.0
 20
880.0
 10
20.0
 20
880.0
  0
LWPOLYLINE
  5
3C
330
37
100
AcDbEntity
  8
Окна
100
AcDbPolyline
 90
4
 70
1
 10
80.0
 20
80.0
 10
820.0
 20
80.0
 10
820.0
 20
820.0
 10
80.0
 20
820.0
  0
LINE
  5
3D
330
37
100
AcDbEntity
  8
Окна
100
AcDbLine
 10
20.0
 20
20.0
 30
0.0
 11
80.0
 21
80.0
 31
0.0
  0
LINE
  5
3E
330
37
100
AcDbEntity
  8
Окна
100
AcDbLine
 10
880.0
 20
20.0
 30
0.0
 11
820.0
 21
80.0
 31
0.0
  0
LINE
  5
3F
330
37
100
AcDbEntity
  8
Окна
100
AcDbLine
 10
880.0
 20
880.0
 30
0.0
 11
820.0
 21
820.0
 31
0.0
  0
LINE
  5
40
330
37
100
AcDbEntity
  8
Окна
100
AcDbLine
 10
20.0
 20
880.0
 30
0.0
 11
80.0
 21
820.0
 31
0.0
  0
ATTDEF
  5
41
330
37
100
AcDbEntity
  8
Текст
100
AcDbText
 10
0.0
 20
1210.0
 30
0.0
 40
30.0
  1
Пример 01
  7
Основной стиль
100
AcDbAttributeDefinition
  3
Объект
  2
OBJECT
 70
0
  0
ATTDEF
  5
42
330
37
100
AcDbEntity
  8
Текст
100
AcDbText
 10
0.0
 20
1160.0
 30
0.0
 40
30.0
  1
ОК-1.1/1 шт.
  7
Основной стиль
100
AcDbAttributeDefinition
  3
Окно / кол-во
  2
WINDOW
 70
0
  0
ATTDEF
  5
43
330
37
100
AcDbEntity
  8
Текст
100
AcDbText
 10
0.0
 20
1110.0
 30
0.0
 40
30.0
  1
RAL8017/RAL9016
  7
Основной стиль
100
AcDbAttributeDefinition
  3
Цвет
  2
COLOR
 70
0
  0
ATTDEF
  5
44
330
37
100
AcDbEntity
  8
Текст
100
AcDbText
 10
0.0
 20
1060.0
 30
0.0
 40
30.0
  1
Заполнение СПД42
  7
Основной стиль
100
AcDbAttributeDefinition
  3
Заполнение
  2
GLAZING
 70
0
  0
ATTDEF
  5
45
330
37
100
AcDbEntity
  8
Текст
100
AcDbText
 10
0.0
 20
1010.0
 30
0.0
 40
30.0
  1
900х900
  7
Основной стиль
100
AcDbAttributeDefinition
  3
Габарит
  2
SIZE
 70
0
  0
ATTDEF
  5
46
330
37
100
AcDbEntity
  8
Текст
100
AcDbText
 10
0.0
 20
960.0
 30
0.0
 40
30.0
  1
1х1
  7
Основной стиль
100
AcDbAttributeDefinition
  3
Сетка
  2
GRID
 70
0
  0
TEXT
  5
47
330
37
100
AcDbEntity
  8
Текст
100
AcDbText
 10
900.0
 20
960.0
 30
0.0
 40
30.0
  1
S=0.81 м²
  7
Основной стиль
 72
2
 11
900.0
 21
960.0
 31
0.0
100
AcDbText
 73
3
  0
DIMENSION
  5
48
330
37
100
AcDbEntity
  8
Размеры
100
AcDbDimension
280
0
  3
Основной стиль
 10
20.0
 20
-60.0
 30
0.0
 11
450.0
 21
-60.0
 31
0.0
 70
32
 71
5
  1
<>
100
AcDbAlignedDimension
 13
20.0
 23
20.0
 33
0.0
 14
880.0
 24
20.0
 34
0.0
 50
0.0
100
AcDbRotatedDimension
  0
DIMENSION
  5
4D
330
37
100
AcDbEntity
  8
Размеры
100
AcDbDimension
280
0
  3
Основной стиль
 10
20.0
 20
-120.0
 30
0.0
 11
450.0
 21
-120.0
 31
0.0
 70
32
 71
5
  1
<>
100
AcDbAlignedDimension
 13
20.0
 23
20.0
 33
0.0
 14
880.0
 24
20.0
 34
0.0
 50
0.0
100
AcDbRotatedDimension
  0
DIMENSION
  5
4E
330
37
100
AcDbEntity
  8
Размеры
100
AcDbDimension
280
0
  3
Основной стиль
 10
0.0
 20
-180.0
 30
0.0
 11
450.0
 21
-180.0
 31
0.0
 70
32
 71
5
  1
<>
100
AcDbAlignedDimension
 13
0.0
 23
0.0
 33
0.0
 14
900.0
 24
0.0
 34
0.0
 50
0.0
100
AcDbRotatedDimension
  0
DIMENSION
  5
4F
330
37
100
AcDbEntity
  8
Размеры
100
AcDbDimension
280
0
  3
Основной стиль
 10
0.0
 20
-120.0
 30
0.0
 11
10.0
 21
-120.0
 31
0.0
 70
32
 71
5
  1
<>
100
AcDbAlignedDimension
 13
0.0
 23
0.0
 33
0.0
 14
20.0
 24
0.0
 34
0.0
 50
0.0
100
AcDbRotatedDimension
  0
DIMENSION
  5
50
330
37
100
AcDbEntity
  8
Размеры
100
AcDbDimension
280
0
  3
Основной стиль
 10
880.0
 20
-120.0
 30
0.0
 11
890.0
 21
-120.0
 31
0.0
 70
32
 71
5
  1
<>
100
AcDbAlignedDimension
 13
880.0
 23
0.0
 33
0.0
 14
900.0
 24
0.0
 34
0.0
 50
0.0
100
AcDbRotatedDimension
  0
DIMENSION
  5
51
330
37
100
AcDbEntity
  8
Размеры
100
AcDbDimension
280
0
  3
Основной стиль
 10
960.0
 20
20.0
 30
0.0
 11
960.0
 21
450.0
 31
0.0
 70
32
 71
5
  1
<>
100
AcDbAlignedDimension
 13
880.0
 23
20.0
 33
0.0
 14
880.0
 24
880.0
 34
0.0
 50
90.0
100
AcDbRotatedDimension
  0
DIMENSION
  5
52
330
37
100
AcDbEntity
  8
Размеры
100
AcDbDimension
280
0
  3
Основной стиль
 10
1020.0
 20
20.0
 30
0.0
 11
1020.0
 21
450.0
 31
0.0
 70
32
 71
5
  1
<>
100
AcDbAlignedDimension
 13
880.0
 23
20.0
 33
0.0
 14
880.0
 24
880.0
 34
0.0
 50
90.0
100
AcDbRotatedDimension
  0
DIMENSION
  5
53
330
37
100
AcDbEntity
  8
Размеры
100
AcDbDimension
280
0
  3
Основной стиль
 10
1080.0
 20
0.0
 30
0.0
 11
1080.0
 21
450.0
 31
0.0
 70
32
 71
5
  1
<>
100
AcDbAlignedDimension
 13
900.0
 23
0.0
 33
0.0
 14
900.0
 24
900.0
 34
0.0
 50
90.0
100
AcDbRotatedDimension
  0
DIMENSION
  5
54
330
37
100
AcDbEntity
  8
Размеры
100
AcDbDimension
280
0
  3
Основной стиль
 10
1020.0
 20
0.0
 30
0.0
 11
1020.0
 21
10.0
 31
0.0
 70
32
 71
5
  1
<>
100
AcDbAlignedDimension
 13
900.0
 23
0.0
 33
0.0
 14
900.0
 24
20.0
 34
0.0
 50
90.0
100
AcDbRotatedDimension
  0
DIMENSION
  5
55
330
37
100
AcDbEntity
  8
Размеры
100
AcDbDimension
280
0
  3
Основной стиль
 10
1020.0
 20
880.0
 30
0.0
 11
1020.0
 21
890.0
 31
0.0
 70
32
 71
5
  1
<>
100
AcDbAlignedDimension
 13
900.0
 23
880.0
 33
0.0
 14
900.0
 24
900.0
 34
0.0
 50
90.0
100
AcDbRotatedDimension
  0
ENDBLK
  5
39
330
37
100
AcDbEntity
  8
0
100
AcDbBlockEnd
  0
BLOCK
  5
4A
330
49
100
AcDbEntity
  8
0
100
AcDbBlockBegin
  2
_CLOSEDFILLED
 70
0
 10
0.0
 20
0.0
 30
0.0
  3
_CLOSEDFILLED
  1

  0
SOLID
  5
4C
330
49
100
AcDbEntity
  8
0
  6
BYBLOCK
 62
0
100
AcDbTrace
 10
-1.0
 20
0.16439898372402537
 30
0.0
 11
0.0
 21
0.0
 31
0.0
 12
-1.0
 22
-0.16439898372402537
 32
0.0
 13
-1.0
 23
-0.16439898372402537
 33
0.0
  0
ENDBLK
  5
4B
330
49
100
AcDbEntity
  8
0
100
AcDbBlockEnd
  0
BLOCK
  5
57
330
56
100
AcDbEntity
  8
0
100
AcDbBlockBegin
  2
Пример 02 ОК-1.2 1000х1200 1x1 Снаружи #02
 70
2
 10
0.0
 20
0.0
 30
0.0
  3
Пример 02 ОК-1.2 1000х1200 1x1 Снаружи #02
  1

  0
LWPOLYLINE
  5
59
330
56
100
AcDbEntity
  8
Штриховые
100
AcDbPolyline
 90
4
 70
1
 10
0.0
 20
0.0
 10
1000.0
 20
0.0
 10
1000.0
 20
1200.0
 10
0.0
 20
1200.0
  0
LWPOLYLINE
  5
5A
330
56
100
AcDbEntity
  8
Окна
100
AcDbPolyline
 90
4
 70
1
 10
30.0
 20
60.0
 10
970.0
 20
60.0
 10
970.0
 20
1170.0
 10
30.0
 20
1170.0
  0
LWPOLYLINE
  5
5B
330
56
100
AcDbEntity
  8
Окна
100
AcDbPolyline
 90
4
 70
1
 10
90.0
 20
120.0
 10
910.0
 20
120.0
 10
910.0
 20
1110.0
 10
90.0
 20
1110.0
  0
LINE
  5
5C
330
56
100
AcDbEntity
  8
Окна
100
AcDbLine
 10
30.0
 20
60.0
 30
0.0
 11
90.0
 21
120.0
 31
0.0
  0
LINE
  5
5D
330
56
100
AcDbEntity
  8
Окна
100
AcDbLine
 10
970.0
 20
60.0
 30
0.0
 11
910.0
 21
120.0
 31
0.0
  0
LINE
  5
5E
330
56
100
AcDbEntity
  8
Окна
100
AcDbLine
 10
970.0
 20
1170.0
 30
0.0
 11
910.0
 21
1110.0
 31
0.0
  0
LINE
  5
5F
330
56
100
AcDbEntity
  8
Окна
100
AcDbLine
 10
30.0
 20
1170.0
 30
0.0
 11
90.0
 21
1110.0
 31
0.0
  0
LWPOLYLINE
  5
60
330
56
100
AcDbEntity
  8
Окна
100
AcDbPolyline
 90
4
 70
1
 10
30.0
 20
30.0
 10
970.0
 20
30.0
 10
970.0
 20
60.0
 10
30.0
 20
60.0
  0
LINE
  5
61
330
56
100
AcDbEntity
  8
Окна
100
AcDbLine
 10
155.0
 20
185.0
 30
0.0
 11
845.0
 21
185.0
 31
0.0
  0
LINE
  5
62
330
56
100
AcDbEntity
  8
Окна
100
AcDbLine
 10
845.0
 20
185.0
 30
0.0
 11
845.0
 21
1045.0
 31
0.0
  0
LINE
  5
63
330
56
100
AcDbEntity
  8
Окна
100
AcDbLine
 10
845.0
 20
1045.0
 30
0.0
 11
155.0
 21
1045.0
 31
0.0
  0
LINE
  5
64
330
56
100
AcDbEntity
  8
Окна
100
AcDbLine
 10
155.0
 20
1045.0
 30
0.0
 11
155.0
 21
185.0
 31
0.0
  0
LINE
  5
65
330
56
100
AcDbEntity
  8
Окна
100
AcDbLine
 10
90.0
 20
120.0
 30
0.0
 11
155.0
 21
185.0
 31
0.0
  0
LINE
  5
66
330
56
100
AcDbEntity
  8
Окна
100
AcDbLine
 10
910.0
 20
120.0
 30
0.0
 11
845.0
 21
185.0
 31
0.0
  0
LINE
  5
67
330
56
100
AcDbEntity
  8
Окна
100
AcDbLine
 10
910.0
 20
1110.0
 30
0.0
 11
845.0
 21
1045.0
 31
0.0
  0
LINE
  5
68
330
56
100
AcDbEntity
  8
Окна
100
AcDbLine
 10
90.0
 20
1110.0
 30
0.0
 11
155.0
 21
1045.0
 31
0.0
  0
LINE
  5
69
330
56
100
AcDbEntity
  8
Штриховые
100
AcDbLine
 10
75.0
 20
105.0
 30
0.0
 11
925.0
 21
615.0
 31
0.0
  0
LINE
  5
6A
330
56
100
AcDbEntity
  8
Штриховые
100
AcDbLine
 10
75.0
 20
1125.0
 30
0.0
 11
925.0
 21
615.0
 31
0.0
  0
ATTDEF
  5
6B
330
56
100
AcDbEntity
  8
Текст
100
AcDbText
 10
0.0
 20
1510.0
 30
0.0
 40
30.0
  1
Пример 02
  7
Основной стиль
100
AcDbAttributeDefinition
  3
Объект
  2
OBJECT
 70
0
  0
ATTDEF
  5
6C
330
56
100
AcDbEntity
  8
Текст
100
AcDbText
 10
0.0
 20
1460.0
 30
0.0
 40
30.0
  1
ОК-1.2/1 шт.
  7
Основной стиль
100
AcDbAttributeDefinition
  3
Окно / кол-во
  2
WINDOW
 70
0
  0
ATTDEF
  5
6D
330
56
100
AcDbEntity
  8
Текст
100
AcDbText
 10
0.0
 20
1410.0
 30
0.0
 40
30.0
  1
RAL8017/RAL9016
  7
Основной стиль
100
AcDbAttributeDefinition
  3
Цвет
  2
COLOR
 70
0
  0
ATTDEF
  5
6E
330
56
100
AcDbEntity
  8
Текст
100
AcDbText
 10
0.0
 20
1360.0
 30
0.0
 40
30.0
  1
Заполнение СПД42
  7
Основной стиль
100
AcDbAttributeDefinition
  3
Заполнение
  2
GLAZING
 70
0
  0
ATTDEF
  5
6F
330
56
100
AcDbEntity
  8
Текст
100
AcDbText
 10
0.0
 20
1310.0
 30
0.0
 40
30.0
  1
1000х1200
  7
Основной стиль
100
AcDbAttributeDefinition
  3
Габарит
  2
SIZE
 70
0
  0
ATTDEF
  5
70
330
56
100
AcDbEntity
  8
Текст
100
AcDbText
 10
0.0
 20
1260.0
 30
0.0
 40
30.0
  1
1х1
  7
Основной стиль
100
AcDbAttributeDefinition
  3
Сетка
  2
GRID
 70
0
  0
TEXT
  5
71
330
56
100
AcDbEntity
  8
Текст
100
AcDbText
 10
1000.0
 20
1260.0
 30
0.0
 40
30.0
  1
S=1.20 м²
  7
Основной стиль
 72
2
 11
1000.0
 21
1260.0
 31
0.0
100
AcDbText
 73
3
  0
DIMENSION
  5
72
330
56
100
AcDbEntity
  8
Размеры
100
AcDbDimension
280
0
  3
Основной стиль
 10
30.0
 20
-60.0
 30
0.0
 11
500.0
 21
-60.0
 31
0.0
 70
32
 71
5
  1
<>
100
AcDbAlignedDimension
 13
30.0
 23
30.0
 33
0.0
 14
970.0
 24
30.0
 34
0.0
 50
0.0
100
AcDbRotatedDimension
  0
DIMENSION
  5
73
330
56
100
AcDbEntity
  8
Размеры
100
AcDbDimension
280
0
  3
Основной стиль
 10
30.0
 20
-120.0
 30
0.0
 11
500.0
 21
-120.0
 31
0.0
 70
32
 71
5
  1
<>
100
AcDbAlignedDimension
 13
30.0
 23
30.0
 33
0.0
 14
970.0
 24
30.0
 34
0.0
 50
0.0
100
AcDbRotatedDimension
  0
DIMENSION
  5
74
330
56
100
AcDbEntity
  8
Размеры
100
AcDbDimension
280
0
  3
Основной стиль
 10
0.0
 20
-180.0
 30
0.0
 11
500.0
 21
-180.0
 31
0.0
 70
32
 71
5
  1
<>
100
AcDbAlignedDimension
 13
0.0
 23
0.0
 33
0.0
 14
1000.0
 24
0.0
 34
0.0
 50
0.0
100
AcDbRotatedDimension
  0
DIMENSION
  5
75
330
56
100
AcDbEntity
  8
Размеры
100
AcDbDimension
280
0
  3
Основной стиль
 10
0.0
 20
-120.0
 30
0.0
 11
15.0
 21
-120.0
 31
0.0
 70
32
 71
5
  1
<>
100
AcDbAlignedDimension
 13
0.0
 23
0.0
 33
0.0
 14
30.0
 24
0.0
 34
0.0
 50
0.0
100
AcDbRotatedDimension
  0
DIMENSION
  5
76
330
56
100
AcDbEntity
  8
Размеры
100
AcDbDimension
280
0
  3
Основной стиль
 10
970.0
 20
-120.0
 30
0.0
 11
985.0
 21
-120.0
 31
0.0
 70
32
 71
5
  1
<>
100
AcDbAlignedDimension
 13
970.0
 23
0.0
 33
0.0
 14
1000.0
 24
0.0
 34
0.0
 50
0.0
100
AcDbRotatedDimension
  0
DIMENSION
  5
77
330
56
100
AcDbEntity
  8
Размеры
100
AcDbDimension
280
0
  3
Основной стиль
 10
1060.0
 20
60.0
 30
0.0
 11
1060.0
 21
615.0
 31
0.0
 70
32
 71
5
  1
<>
100
AcDbAlignedDimension
 13
970.0
 23
60.0
 33
0.0
 14
970.0
 24
1170.0
 34
0.0
 50
90.0
100
AcDbRotatedDimension
  0
DIMENSION
  5
78
330
56
100
AcDbEntity
  8
Размеры
100
AcDbDimension
280
0
  3
Основной стиль
 10
1120.0
 20
60.0
 30
0.0
 11
1120.0
 21
615.0
 31
0.0
 70
32
 71
5
  1
<>
100
AcDbAlignedDimension
 13
970.0
 23
60.0
 33
0.0
 14
970.0
 24
1170.0
 34
0.0
 50
90.0
100
AcDbRotatedDimension
  0
DIMENSION
  5
79
330
56
100
AcDbEntity
  8
Размеры
100
AcDbDimension
280
0
  3
Основной стиль
 10
1120.0
 20
30.0
 30
0.0
 11
1120.0
 21
45.0
 31
0.0
 70
32
 71
5
  1
<>
100
AcDbAlignedDimension
 13
970.0
 23
30.0
 33
0.0
 14
970.0
 24
60.0
 34
0.0
 50
90.0
100
AcDbRotatedDimension
  0
DIMENSION
  5
7A
330
56
100
AcDbEntity
  8
Размеры
100
AcDbDimension
280
0
  3
Основной стиль
 10
1180.0
 20
0.0
 30
0.0
 11
1180.0
 21
600.0
 31
0.0
 70
32
 71
5
  1
<>
100
AcDbAlignedDimension
 13
1000.0
 23
0.0
 33
0.0
 14
1000.0
 24
1200.0
 34
0.0
 50
90.0
100
AcDbRotatedDimension
  0
DIMENSION
  5
7B
330
56
100
AcDbEntity
  8
Размеры
100
AcDbDimension
280
0
  3
Основной стиль
 10
1120.0
 20
0.0
 30
0.0
 11
1120.0
 21
15.0
 31
0.0
 70
32
 71
5
  1
<>
100
AcDbAlignedDimension
 13
1000.0
 23
0.0
 33
0.0
 14
1000.0
 24
30.0
 34
0.0
 50
90.0
100
AcDbRotatedDimension
  0
DIMENSION
  5
7C
330
56
100
AcDbEntity
  8
Размеры
100
AcDbDimension
280
0
  3
Основной стиль
 10
1120.0
 20
1170.0
 30
0.0
 11
1120.0
 21
1185.0
 31
0.0
 70
32
 71
5
  1
<>
100
AcDbAlignedDimension
 13
1000.0
 23
1170.0
 33
0.0
 14
1000.0
 24
1200.0
 34
0.0
 50
90.0
100
AcDbRotatedDimension
  0
ENDBLK
  5
58
330
56
100
AcDbEntity
  8
0
100
AcDbBlockEnd
  0
BLOCK
  5
7E
330
7D
100
AcDbEntity
  8
0
100
AcDbBlockBegin
  2
Пример 03 ОК-2.1 1400х1500 2x1 Снаружи #03
 70
2
 10
0.0
 20
0.0
 30
0.0
  3
Пример 03 ОК-2.1 1400х1500 2x1 Снаружи #03
  1

  0
LWPOLYLINE
  5
80
330
7D
100
AcDbEntity
  8
Штриховые
100
AcDbPolyline
 90
4
 70
1
 10
0.0
 20
0.0
 10
1400.0
 20
0.0
 10
1400.0
 20
1500.0
 10
0.0
 20
1500.0
  0
LWPOLYLINE
  5
81
330
7D
100
AcDbEntity
  8
Окна
100
AcDbPolyline
 90
4
 70
1
 10
25.0
 20
55.0
 10
1375.0
 20
55.0
 10
1375.0
 20
1475.0
 10
25.0
 20
1475.0
  0
LWPOLYLINE
  5
82
330
7D
100
AcDbEntity
  8
Окна
100
AcDbPolyline
 90
4
 70
1
 10
85.0
 20
115.0
 10
1315.0
 20
115.0
 10
1315.0
 20
1415.0
 10
85.0
 20
1415.0
  0
LINE
  5
83
330
7D
100
AcDbEntity
  8
Окна
100
AcDbLine
 10
25.0
 20
55.0
 30
0.0
 11
85.0
 21
115.0
 31
0.0
  0
LINE
  5
84
330
7D
100
AcDbEntity
  8
Окна
100
AcDbLine
 10
1375.0
 20
55.0
 30
0.0
 11
1315.0
 21
115.0
 31
0.0
  0
LINE
  5
85
330
7D
100
AcDbEntity
  8
Окна
100
AcDbLine
 10
1375.0
 20
1475.0
 30
0.0
 11
1315.0
 21
1415.0
 31
0.0
  0
LINE
  5
86
330
7D
100
AcDbEntity
  8
Окна
100
AcDbLine
 10
25.0
 20
1475.0
 30
0.0
 11
85.0
 21
1415.0
 31
0.0
  0
LWPOLYLINE
  5
87
330
7D
100
AcDbEntity
  8
Окна
100
AcDbPolyline
 90
4
 70
1
 10
660.0
 20
115.0
 10
740.0
 20
115.0
 10
740.0
 20
1415.0
 10
660.0
 20
1415.0
  0
LWPOLYLINE
  5
88
330
7D
100
AcDbEntity
  8
Окна
100
AcDbPolyline
 90
4
 70
1
 10
25.0
 20
25.0
 10
1375.0
 20
25.0
 10
1375.0
 20
55.0
 10
25.0
 20
55.0
  0
LWPOLYLINE
  5
89
330
7D
100
AcDbEntity
  8
Окна
100
AcDbPolyline
 90
4
 70
1
 10
-25.0
 20
55.0
 10
25.0
 20
55.0
 10
25.0
 20
1475.0
 10
-25.0
 20
1475.0
  0
LINE
  5
8A
330
7D
100
AcDbEntity
  8
Окна
100
AcDbLine
 10
150.0
 20
180.0
 30
0.0
 11
595.0
 21
180.0
 31
0.0
  0
LINE
  5
8B
330
7D
100
AcDbEntity
  8
Окна
100
AcDbLine
 10
595.0
 20
180.0
 30
0.0
 11
595.0
 21
1350.0
 31
0.0
  0
LINE
  5
8C
330
7D
100
AcDbEntity
  8
Окна
100
AcDbLine
 10
595.0
 20
1350.0
 30
0.0
 11
150.0
 21
1350.0
 31
0.0
  0
LINE
  5
8D
330
7D
100
AcDbEntity
  8
Окна
100
AcDbLine
 10
150.0
 20
1350.0
 30
0.0
 11
150.0
 21
180.0
 31
0.0
  0
LINE
  5
8E
330
7D
100
AcDbEntity
  8
Окна
100
AcDbLine
 10
85.0
 20
115.0
 30
0.0
 11
150.0
 21
180.0
 31
0.0
  0
LINE
  5
8F
330
7D
100
AcDbEntity
  8
Окна
100
AcDbLine
 10
660.0
 20
115.0
 30
0.0
 11
595.0
 21
180.0
 31
0.0
  0
LINE
  5
90
330
7D
100
AcDbEntity
  8
Окна
100
AcDbLine
 10
660.0
 20
1415.0
 30
0.0
 11
595.0
 21
1350.0
 31
0.0
  0
LINE
  5
91
330
7D
100
AcDbEntity
  8
Окна
100
AcDbLine
 10
85.0
 20
1415.0
 30
0.0
 11
150.0
 21
1350.0
 31
0.0
  0
LINE
  5
92
330
7D
100
AcDbEntity
  8
Штриховые
100
AcDbLine
 10
70.0
 20
100.0
 30
0.0
 11
675.0
 21
765.0
 31
0.0
  0
LINE
  5
93
330
7D
100
AcDbEntity
  8
Штриховые
100
AcDbLine
 10
70.0
 20
1430.0
 30
0.0
 11
675.0
 21
765.0
 31
0.0
  0
LINE
  5
94
330
7D
100
AcDbEntity
  8
Окна
100
AcDbLine
 10
805.0
 20
180.0
 30
0.0
 11
1250.0
 21
180.0
 31
0.0
  0
LINE
  5
95
330
7D
100
AcDbEntity
  8
Окна
100
AcDbLine
 10
1250.0
 20
180.0
 30
0.0
 11
1250.0
 21
1350.0
 31
0.0
  0
LINE
  5
96
330
7D
100
AcDbEntity
  8
Окна
100
AcDbLine
 10
1250.0
 20
1350.0
 30
0.0
 11
805.0
 21
1350.0
 31
0.0
  0
LINE
  5
97
330
7D
100
AcDbEntity
  8
Окна
100
AcDbLine
 10
805.0
 20
1350.0
 30
0.0
 11
805.0
 21
180.0
 31
0.0
  0
LINE
  5
98
330
7D
100
AcDbEntity
  8
Окна
100
AcDbLine
 10
740.0
 20
115.0
 30
0.0
 11
805.0
 21
180.0
 31
0.0
  0
LINE
  5
99
330
7D
100
AcDbEntity
  8
Окна
100
AcDbLine
 10
1315.0
 20
115.0
 30
0.0
 11
1250.0
 21
180.0
 31
0.0
  0
LINE
  5
9A
330
7D
100
AcDbEntity
  8
Окна
100
AcDbLine
 10
1315.0
 20
1415.0
 30
0.0
 11
1250.0
 21
1350.0
 31
0.0
  0
LINE
  5
9B
330
7D
100
AcDbEntity
  8
Окна
100
AcDbLine
 10
740.0
 20
1415.0
 30
0.0
 11
805.0
 21
1350.0
 31
0.0
  0
LINE
  5
9C
330
7D
100
AcDbEntity
  8
Штриховые
100
AcDbLine
 10
725.0
 20
100.0
 30
0.0
 11
1027.5
 21
1430.0
 31
0.0
  0
LINE
  5
9D
330
7D
100
AcDbEntity
  8
Штриховые
100
AcDbLine
 10
1330.0
 20
100.0
 30
0.0
 11
1027.5
 21
1430.0
 31
0.0
  0
ATTDEF
  5
9E
330
7D
100
AcDbEntity
  8
Текст
100
AcDbText
 10
0.0
 20
1810.0
 30
0.0
 40
30.0
  1
Пример 03
  7
Основной стиль
100
AcDbAttributeDefinition
  3
Объект
  2
OBJECT
 70
0
  0
ATTDEF
  5
9F
330
7D
100
AcDbEntity
  8
Текст
100
AcDbText
 10
0.0
 20
1760.0
 30
0.0
 40
30.0
  1
ОК-2.1/1 шт.
  7
Основной стиль
100
AcDbAttributeDefinition
  3
Окно / кол-во
  2
WINDOW
 70
0
  0
ATTDEF
  5
A0
330
7D
100
AcDbEntity
  8
Текст
100
AcDbText
 10
0.0
 20
1710.0
 30
0.0
 40
30.0
  1
RAL8017/RAL9016
  7
Основной стиль
100
AcDbAttributeDefinition
  3
Цвет
  2
COLOR
 70
0
  0
ATTDEF
  5
A1
330
7D
100
AcDbEntity
  8
Текст
100
AcDbText
 10
0.0
 20
1660.0
 30
0.0
 40
30.0
  1
Заполнение СПД42
  7
Основной стиль
100
AcDbAttributeDefinition
  3
Заполнение
  2
GLAZING
 70
0
  0
ATTDEF
  5
A2
330
7D
100
AcDbEntity
  8
Текст
100
AcDbText
 10
0.0
 20
1610.0
 30
0.0
 40
30.0
  1
1400х1500
  7
Основной стиль
100
AcDbAttributeDefinition
  3
Габарит
  2
SIZE
 70
0
  0
ATTDEF
  5
A3
330
7D
100
AcDbEntity
  8
Текст
100
AcDbText
 10
0.0
 20
1560.0
 30
0.0
 40
30.0
  1
2х1
  7
Основной стиль
100
AcDbAttributeDefinition
  3
Сетка
  2
GRID
 70
0
  0
TEXT
  5
A4
330
7D
100
AcDbEntity
  8
Текст
100
AcDbText
 10
1400.0
 20
1560.0
 30
0.0
 40
30.0
  1
S=2.10 м²
  7
Основной стиль
 72
2
 11
1400.0
 21
1560.0
 31
0.0
100
AcDbText
 73
3
  0
DIMENSION
  5
A5
330
7D
100
AcDbEntity
  8
Размеры
100
AcDbDimension
280
0
  3
Основной стиль
 10
25.0
 20
-60.0
 30
0.0
 11
362.5
 21
-60.0
 31
0.0
 70
32
 71
5
  1
<>
100
AcDbAlignedDimension
 13
25.0
 23
25.0
 33
0.0
 14
700.0
 24
25.0
 34
0.0
 50
0.0
100
AcDbRotatedDimension
  0
DIMENSION
  5
A6
330
7D
100
AcDbEntity
  8
Размеры
100
AcDbDimension
280
0
  3
Основной стиль
 10
700.0
 20
-60.0
 30
0.0
 11
1037.5
 21
-60.0
 31
0.0
 70
32
 71
5
  1
<>
100
AcDbAlignedDimension
 13
700.0
 23
25.0
 33
0.0
 14
1375.0
 24
25.0
 34
0.0
 50
0.0
100
AcDbRotatedDimension
  0
DIMENSION
  5
A7
330
7D
100
AcDbEntity
  8
Размеры
100
AcDbDimension
280
0
  3
Основной стиль
 10
-25.0
 20
-120.0
 30
0.0
 11
675.0
 21
-120.0
 31
0.0
 70
32
 71
5
  1
<>
100
AcDbAlignedDimension
 13
-25.0
 23
25.0
 33
0.0
 14
1375.0
 24
25.0
 34
0.0
 50
0.0
100
AcDbRotatedDimension
  0
DIMENSION
  5
A8
330
7D
100
AcDbEntity
  8
Размеры
100
AcDbDimension
280
0
  3
Основной стиль
 10
0.0
 20
-180.0
 30
0.0
 11
700.0
 21
-180.0
 31
0.0
 70
32
 71
5
  1
<>
100
AcDbAlignedDimension
 13
0.0
 23
0.0
 33
0.0
 14
1400.0
 24
0.0
 34
0.0
 50
0.0
100
AcDbRotatedDimension
  0
DIMENSION
  5
A9
330
7D
100
AcDbEntity
  8
Размеры
100
AcDbDimension
280
0
  3
Основной стиль
 10
-25.0
 20
-60.0
 30
0.0
 11
0.0
 21
-60.0
 31
0.0
 70
32
 71
5
  1
<>
100
AcDbAlignedDimension
 13
-25.0
 23
25.0
 33
0.0
 14
25.0
 24
25.0
 34
0.0
 50
0.0
100
AcDbRotatedDimension
  0
DIMENSION
  5
AA
330
7D
100
AcDbEntity
  8
Размеры
100
AcDbDimension
280
0
  3
Основной стиль
 10
0.0
 20
-120.0
 30
0.0
 11
-12.5
 21
-120.0
 31
0.0
 70
32
 71
5
  1
<>
100
AcDbAlignedDimension
 13
0.0
 23
0.0
 33
0.0
 14
-25.0
 24
0.0
 34
0.0
 50
0.0
100
AcDbRotatedDimension
  0
DIMENSION
  5
AB
330
7D
100
AcDbEntity
  8
Размеры
100
AcDbDimension
280
0
  3
Основной стиль
 10
1375.0
 20
-120.0
 30
0.0
 11
1387.5
 21
-120.0
 31
0.0
 70
32
 71
5
  1
<>
100
AcDbAlignedDimension
 13
1375.0
 23
0.0
 33
0.0
 14
1400.0
 24
0.0
 34
0.0
 50
0.0
100
AcDbRotatedDimension
  0
DIMENSION
  5
AC
330
7D
100
AcDbEntity
  8
Размеры
100
AcDbDimension
280
0
  3
Основной стиль
 10
1460.0
 20
55.0
 30
0.0
 11
1460.0
 21
765.0
 31
0.0
 70
32
 71
5
  1
<>
100
AcDbAlignedDimension
 13
1375.0
 23
55.0
 33
0.0
 14
1375.0
 24
1475.0
 34
0.0
 50
90.0
100
AcDbRotatedDimension
  0
DIMENSION
  5
AD
330
7D
100
AcDbEntity
  8
Размеры
100
AcDbDimension
280
0
  3
Основной стиль
 10
1520.0
 20
55.0
 30
0.0
 11
1520.0
 21
765.0
 31
0.0
 70
32
 71
5
  1
<>
100
AcDbAlignedDimension
 13
1375.0
 23
55.0
 33
0.0
 14
1375.0
 24
1475.0
 34
0.0
 50
90.0
100
AcDbRotatedDimension
  0
DIMENSION
  5
AE
330
7D
100
AcDbEntity
  8
Размеры
100
AcDbDimension
280
0
  3
Основной стиль
 10
1520.0
 20
25.0
 30
0.0
 11
1520.0
 21
40.0
 31
0.0
 70
32
 71
5
  1
<>
100
AcDbAlignedDimension
 13
1375.0
 23
25.0
 33
0.0
 14
1375.0
 24
55.0
 34
0.0
 50
90.0
100
AcDbRotatedDimension
  0
DIMENSION
  5
AF
330
7D
100
AcDbEntity
  8
Размеры
100
AcDbDimension
280
0
  3
Основной стиль
 10
1580.0
 20
0.0
 30
0.0
 11
1580.0
 21
750.0
 31
0.0
 70
32
 71
5
  1
<>
100
AcDbAlignedDimension
 13
1400.0
 23
0.0
 33
0.0
 14
1400.0
 24
1500.0
 34
0.0
 50
90.0
100
AcDbRotatedDimension
  0
DIMENSION
  5
B0
330
7D
100
AcDbEntity
  8
Размеры
100
AcDbDimension
280
0
  3
Основной стиль
 10
1520.0
 20
0.0
 30
0.0
 11
1520.0
 21
12.5
 31
0.0
 70
32
 71
5
  1
<>
100
AcDbAlignedDimension
 13
1400.0
 23
0.0
 33
0.0
 14
1400.0
 24
25.0
 34
0.0
 50
90.0
100
AcDbRotatedDimension
  0
DIMENSION
  5
B1
330
7D
100
AcDbEntity
  8
Размеры
100
AcDbDimension
280
0
  3
Основной стиль
 10
1520.0
 20
1475.0
 30
0.0
 11
1520.0
 21
1487.5
 31
0.0
 70
32
 71
5
  1
<>
100
AcDbAlignedDimension
 13
1400.0
 23
1475.0
 33
0.0
 14
1400.0
 24
1500.0
 34
0.0
 50
90.0
100
AcDbRotatedDimension
  0
ENDBLK
  5
7F
330
7D
100
AcDbEntity
  8
0
100
AcDbBlockEnd
  0
BLOCK
  5
B3
330
B2
100
AcDbEntity
  8
0
100
AcDbBlockBegin
  2
Пример 04 ОК-2.2 1800х1800 2x2 Снаружи #04
 70
2
 10
0.0
 20
0.0
 30
0.0
  3
Пример 04 ОК-2.2 1800х1800 2x2 Снаружи #04
  1

  0
LWPOLYLINE
  5
B5
330
B2
100
AcDbEntity
  8
Штриховые
100
AcDbPolyline
 90
4
 70
1
 10
0.0
 20
0.0
 10
1800.0
 20
0.0
 10
1800.0
 20
1800.0
 10
0.0
 20
1800.0
  0
LWPOLYLINE
  5
B6
330
B2
100
AcDbEntity
  8
Окна
100
AcDbPolyline
 90
4
 70
1
 10
30.0
 20
60.0
 10
1770.0
 20
60.0
 10
1770.0
 20
1770.0
 10
30.0
 20
1770.0
  0
LWPOLYLINE
  5
B7
330
B2
100
AcDbEntity
  8
Окна
100
AcDbPolyline
 90
4
 70
1
 10
90.0
 20
120.0
 10
1710.0
 20
120.0
 10
1710.0
 20
1710.0
 10
90.0
 20
1710.0
  0
LINE
  5
B8
330
B2
100
AcDbEntity
  8
Окна
100
AcDbLine
 10
30.0
 20
60.0
 30
0.0
 11
90.0
 21
120.0
 31
0.0
  0
LINE
  5
B9
330
B2
100
AcDbEntity
  8
Окна
100
AcDbLine
 10
1770.0
 20
60.0
 30
0.0
 11
1710.0
 21
120.0
 31
0.0
  0
LINE
  5
BA
330
B2
100
AcDbEntity
  8
Окна
100
AcDbLine
 10
1770.0
 20
1770.0
 30
0.0
 11
1710.0
 21
1710.0
 31
0.0
  0
LINE
  5
BB
330
B2
100
AcDbEntity
  8
Окна
100
AcDbLine
 10
30.0
 20
1770.0
 30
0.0
 11
90.0
 21
1710.0
 31
0.0
  0
LWPOLYLINE
  5
BC
330
B2
100
AcDbEntity
  8
Окна
100
AcDbPolyline
 90
4
 70
1
 10
860.0
 20
120.0
 10
940.0
 20
120.0
 10
940.0
 20
1710.0
 10
860.0
 20
1710.0
  0
LWPOLYLINE
  5
BD
330
B2
100
AcDbEntity
  8
Окна
100
AcDbPolyline
 90
4
 70
1
 10
90.0
 20
875.0
 10
1710.0
 20
875.0
 10
1710.0
 20
955.0
 10
90.0
 20
955.0
  0
LWPOLYLINE
  5
BE
330
B2
100
AcDbEntity
  8
Окна
100
AcDbPolyline
 90
4
 70
1
 10
30.0
 20
30.0
 10
1770.0
 20
30.0
 10
1770.0
 20
60.0
 10
30.0
 20
60.0
  0
LWPOLYLINE
  5
BF
330
B2
100
AcDbEntity
  8
Окна
100
AcDbPolyline
 90
4
 70
1
 10
30.0
 20
1770.0
 10
1770.0
 20
1770.0
 10
1770.0
 20
1830.0
 10
30.0
 20
1830.0
  0
LINE
  5
C0
330
B2
100
AcDbEntity
  8
Окна
100
AcDbLine
 10
155.0
 20
185.0
 30
0.0
 11
795.0
 21
185.0
 31
0.0
  0
LINE
  5
C1
330
B2
100
AcDbEntity
  8
Окна
100
AcDbLine
 10
795.0
 20
185.0
 30
0.0
 11
795.0
 21
810.0
 31
0.0
  0
LINE
  5
C2
330
B2
100
AcDbEntity
  8
Окна
100
AcDbLine
 10
795.0
 20
810.0
 30
0.0
 11
155.0
 21
810.0
 31
0.0
  0
LINE
  5
C3
330
B2
100
AcDbEntity
  8
Окна
100
AcDbLine
 10
155.0
 20
810.0
 30
0.0
 11
155.0
 21
185.0
 31
0.0
  0
LINE
  5
C4
330
B2
100
AcDbEntity
  8
Окна
100
AcDbLine
 10
90.0
 20
120.0
 30
0.0
 11
155.0
 21
185.0
 31
0.0
  0
LINE
  5
C5
330
B2
100
AcDbEntity
  8
Окна
100
AcDbLine
 10
860.0
 20
120.0
 30
0.0
 11
795.0
 21
185.0
 31
0.0
  0
LINE
  5
C6
330
B2
100
AcDbEntity
  8
Окна
100
AcDbLine
 10
860.0
 20
875.0
 30
0.0
 11
795.0
 21
810.0
 31
0.0
  0
LINE
  5
C7
330
B2
100
AcDbEntity
  8
Окна
100
AcDbLine
 10
90.0
 20
875.0
 30
0.0
 11
155.0
 21
810.0
 31
0.0
  0
LINE
  5
C8
330
B2
100
AcDbEntity
  8
Штриховые
100
AcDbLine
 10
75.0
 20
105.0
 30
0.0
 11
875.0
 21
497.5
 31
0.0
  0
LINE
  5
C9
330
B2
100
AcDbEntity
  8
Штриховые
100
AcDbLine
 10
75.0
 20
890.0
 30
0.0
 11
875.0
 21
497.5
 31
0.0
  0
LINE
  5
CA
330
B2
100
AcDbEntity
  8
Окна
100
AcDbLine
 10
1005.0
 20
185.0
 30
0.0
 11
1645.0
 21
185.0
 31
0.0
  0
LINE
  5
CB
330
B2
100
AcDbEntity
  8
Окна
100
AcDbLine
 10
1645.0
 20
185.0
 30
0.0
 11
1645.0
 21
810.0
 31
0.0
  0
LINE
  5
CC
330
B2
100
AcDbEntity
  8
Окна
100
AcDbLine
 10
1645.0
 20
810.0
 30
0.0
 11
1005.0
 21
810.0
 31
0.0
  0
LINE
  5
CD
330
B2
100
AcDbEntity
  8
Окна
100
AcDbLine
 10
1005.0
 20
810.0
 30
0.0
 11
1005.0
 21
185.0
 31
0.0
  0
LINE
  5
CE
330
B2
100
AcDbEntity
  8
Окна
100
AcDbLine
 10
940.0
 20
120.0
 30
0.0
 11
1005.0
 21
185.0
 31
0.0
  0
LINE
  5
CF
330
B2
100
AcDbEntity
  8
Окна
100
AcDbLine
 10
1710.0
 20
120.0
 30
0.0
 11
1645.0
 21
185.0
 31
0.0
  0
LINE
  5
D0
330
B2
100
AcDbEntity
  8
Окна
100
AcDbLine
 10
1710.0
 20
875.0
 30
0.0
 11
1645.0
 21
810.0
 31
0.0
  0
LINE
  5
D1
330
B2
100
AcDbEntity
  8
Окна
100
AcDbLine
 10
940.0
 20
875.0
 30
0.0
 11
1005.0
 21
810.0
 31
0.0
  0
LINE
  5
D2
330
B2
100
AcDbEntity
  8
Штриховые
100
AcDbLine
 10
925.0
 20
105.0
 30
0.0
 11
1725.0
 21
497.5
 31
0.0
  0
LINE
  5
D3
330
B2
100
AcDbEntity
  8
Штриховые
100
AcDbLine
 10
925.0
 20
890.0
 30
0.0
 11
1725.0
 21
497.5
 31
0.0
  0
LINE
  5
D4
330
B2
100
AcDbEntity
  8
Окна
100
AcDbLine
 10
155.0
 20
1020.0
 30
0.0
 11
795.0
 21
1020.0
 31
0.0
  0
LINE
  5
D5
330
B2
100
AcDbEntity
  8
Окна
100
AcDbLine
 10
795.0
 20
1020.0
 30
0.0
 11
795.0
 21
1645.0
 31
0.0
  0
LINE
  5
D6
330
B2
100
AcDbEntity
  8
Окна
100
AcDbLine
 10
795.0
 20
1645.0
 30
0.0
 11
155.0
 21
1645.0
 31
0.0
  0
LINE
  5
D7
330
B2
100
AcDbEntity
  8
Окна
100
AcDbLine
 10
155.0
 20
1645.0
 30
0.0
 11
155.0
 21
1020.0
 31
0.0
  0
LINE
  5
D8
330
B2
100
AcDbEntity
  8
Окна
100
AcDbLine
 10
90.0
 20
955.0
 30
0.0
 11
155.0
 21
1020.0
 31
0.0
  0
LINE
  5
D9
330
B2
100
AcDbEntity
  8
Окна
100
AcDbLine
 10
860.0
 20
955.0
 30
0.0
 11
795.0
 21
1020.0
 31
0.0
  0
LINE
  5
DA
330
B2
100
AcDbEntity
  8
Окна
100
AcDbLine
 10
860.0
 20
1710.0
 30
0.0
 11
795.0
 21
1645.0
 31
0.0
  0
LINE
  5
DB
330
B2
100
AcDbEntity
  8
Окна
100
AcDbLine
 10
90.0
 20
1710.0
 30
0.0
 11
155.0
 21
1645.0
 31
0.0
  0
LINE
  5
DC
330
B2
100
AcDbEntity
  8
Штриховые
100
AcDbLine
 10
75.0
 20
940.0
 30
0.0
 11
875.0
 21
1332.5
 31
0.0
  0
LINE
  5
DD
330
B2
100
AcDbEntity
  8
Штриховые
100
AcDbLine
 10
75.0
 20
1725.0
 30
0.0
 11
875.0
 21
1332.5
 31
0.0
  0
LINE
  5
DE
330
B2
100
AcDbEntity
  8
Окна
100
AcDbLine
 10
1005.0
 20
1020.0
 30
0.0
 11
1645.0
 21
1020.0
 31
0.0
  0
LINE
  5
DF
330
B2
100
AcDbEntity
  8
Окна
100
AcDbLine
 10
1645.0
 20
1020.0
 30
0.0
 11
1645.0
 21
1645.0
 31
0.0
  0
LINE
  5
E0
330
B2
100
AcDbEntity
  8
Окна
100
AcDbLine
 10
1645.0
 20
1645.0
 30
0.0
 11
1005.0
 21
1645.0
 31
0.0
  0
LINE
  5
E1
330
B2
100
AcDbEntity
  8
Окна
100
AcDbLine
 10
1005.0
 20
1645.0
 30
0.0
 11
1005.0
 21
1020.0
 31
0.0
  0
LINE
  5
E2
330
B2
100
AcDbEntity
  8
Окна
100
AcDbLine
 10
940.0
 20
955.0
 30
0.0
 11
1005.0
 21
1020.0
 31
0.0
  0
LINE
  5
E3
330
B2
100
AcDbEntity
  8
Окна
100
AcDbLine
 10
1710.0
 20
955.0
 30
0.0
 11
1645.0
 21
1020.0
 31
0.0
  0
LINE
  5
E4
330
B2
100
AcDbEntity
  8
Окна
100
AcDbLine
 10
1710.0
 20
1710.0
 30
0.0
 11
1645.0
 21
1645.0
 31
0.0
  0
LINE
  5
E5
330
B2
100
AcDbEntity
  8
Окна
100
AcDbLine
 10
940.0
 20
1710.0
 30
0.0
 11
1005.0
 21
1645.0
 31
0.0
  0
LINE
  5
E6
330
B2
100
AcDbEntity
  8
Штриховые
100
AcDbLine
 10
925.0
 20
940.0
 30
0.0
 11
1725.0
 21
1332.5
 31
0.0
  0
LINE
  5
E7
330
B2
100
AcDbEntity
  8
Штриховые
100
AcDbLine
 10
925.0
 20
1725.0
 30
0.0
 11
1725.0
 21
1332.5
 31
0.0
  0
ATTDEF
  5
E8
330
B2
100
AcDbEntity
  8
Текст
100
AcDbText
 10
0.0
 20
2110.0
 30
0.0
 40
30.0
  1
Пример 04
  7
Основной стиль
100
AcDbAttributeDefinition
  3
Объект
  2
OBJECT
 70
0
  0
ATTDEF
  5
E9
330
B2
100
AcDbEntity
  8
Текст
100
AcDbText
 10
0.0
 20
2060.0
 30
0.0
 40
30.0
  1
ОК-2.2/1 шт.
  7
Основной стиль
100
AcDbAttributeDefinition
  3
Окно / кол-во
  2
WINDOW
 70
0
  0
ATTDEF
  5
EA
330
B2
100
AcDbEntity
  8
Текст
100
AcDbText
 10
0.0
 20
2010.0
 30
0.0
 40
30.0
  1
RAL8017/RAL9016
  7
Основной стиль
100
AcDbAttributeDefinition
  3
Цвет
  2
COLOR
 70
0
  0
ATTDEF
  5
EB
330
B2
100
AcDbEntity
  8
Текст
100
AcDbText
 10
0.0
 20
1960.0
 30
0.0
 40
30.0
  1
Заполнение СПД42
  7
Основной стиль
100
AcDbAttributeDefinition
  3
Заполнение
  2
GLAZING
 70
0
  0
ATTDEF
  5
EC
330
B2
100
AcDbEntity
  8
Текст
100
AcDbText
 10
0.0
 20
1910.0
 30
0.0
 40
30.0
  1
1800х1800
  7
Основной стиль
100
AcDbAttributeDefinition
  3
Габарит
  2
SIZE
 70
0
  0
ATTDEF
  5
ED
330
B2
100
AcDbEntity
  8
Текст
100
AcDbText
 10
0.0
 20
1860.0
 30
0.0
 40
30.0
  1
2х2
  7
Основной стиль
100
AcDbAttributeDefinition
  3
Сетка
  2
GRID
 70
0
  0
TEXT
  5
EE
330
B2
100
AcDbEntity
  8
Текст
100
AcDbText
 10
1800.0
 20
1860.0
 30
0.0
 40
30.0
  1
S=3.24 м²
  7
Основной стиль
 72
2
 11
1800.0
 21
1860.0
 31
0.0
100
AcDbText
 73
3
  0
DIMENSION
  5
EF
330
B2
100
AcDbEntity
  8
Размеры
100
AcDbDimension
280
0
  3
Основной стиль
 10
30.0
 20
-60.0
 30
0.0
 11
465.0
 21
-60.0
 31
0.0
 70
32
 71
5
  1
<>
100
AcDbAlignedDimension
 13
30.0
 23
30.0
 33
0.0
 14
900.0
 24
30.0
 34
0.0
 50
0.0
100
AcDbRotatedDimension
  0
DIMENSION
  5
F0
330
B2
100
AcDbEntity
  8
Размеры
100
AcDbDimension
280
0
  3
Основной стиль
 10
900.0
 20
-60.0
 30
0.0
 11
1335.0
 21
-60.0
 31
0.0
 70
32
 71
5
  1
<>
100
AcDbAlignedDimension
 13
900.0
 23
30.0
 33
0.0
 14
1770.0
 24
30.0
 34
0.0
 50
0.0
100
AcDbRotatedDimension
  0
DIMENSION
  5
F1
330
B2
100
AcDbEntity
  8
Размеры
100
AcDbDimension
280
0
  3
Основной стиль
 10
30.0
 20
-120.0
 30
0.0
 11
900.0
 21
-120.0
 31
0.0
 70
32
 71
5
  1
<>
100
AcDbAlignedDimension
 13
30.0
 23
30.0
 33
0.0
 14
1770.0
 24
30.0
 34
0.0
 50
0.0
100
AcDbRotatedDimension
  0
DIMENSION
  5
F2
330
B2
100
AcDbEntity
  8
Размеры
100
AcDbDimension
280
0
  3
Основной стиль
 10
0.0
 20
-180.0
 30
0.0
 11
900.0
 21
-180.0
 31
0.0
 70
32
 71
5
  1
<>
100
AcDbAlignedDimension
 13
0.0
 23
0.0
 33
0.0
 14
1800.0
 24
0.0
 34
0.0
 50
0.0
100
AcDbRotatedDimension
  0
DIMENSION
  5
F3
330
B2
100
AcDbEntity
  8
Размеры
100
AcDbDimension
280
0
  3
Основной стиль
 10
0.0
 20
-120.0
 30
0.0
 11
15.0
 21
-120.0
 31
0.0
 70
32
 71
5
  1
<>
100
AcDbAlignedDimension
 13
0.0
 23
0.0
 33
0.0
 14
30.0
 24
0.0
 34
0.0
 50
0.0
100
AcDbRotatedDimension
  0
DIMENSION
  5
F4
330
B2
100
AcDbEntity
  8
Размеры
100
AcDbDimension
280
0
  3
Основной стиль
 10
1770.0
 20
-120.0
 30
0.0
 11
1785.0
 21
-120.0
 31
0.0
 70
32
 71
5
  1
<>
100
AcDbAlignedDimension
 13
1770.0
 23
0.0
 33
0.0
 14
1800.0
 24
0.0
 34
0.0
 50
0.0
100
AcDbRotatedDimension
  0
DIMENSION
  5
F5
330
B2
100
AcDbEntity
  8
Размеры
100
AcDbDimension
280
0
  3
Основной стиль
 10
1860.0
 20
60.0
 30
0.0
 11
1860.0
 21
487.5
 31
0.0
 70
32
 71
5
  1
<>
100
AcDbAlignedDimension
 13
1770.0
 23
60.0
 33
0.0
 14
1770.0
 24
915.0
 34
0.0
 50
90.0
100
AcDbRotatedDimension
  0
DIMENSION
  5
F6
330
B2
100
AcDbEntity
  8
Размеры
100
AcDbDimension
280
0
  3
Основной стиль
 10
1860.0
 20
915.0
 30
0.0
 11
1860.0
 21
1342.5
 31
0.0
 70
32
 71
5
  1
<>
100
AcDbAlignedDimension
 13
1770.0
 23
915.0
 33
0.0
 14
1770.0
 24
1770.0
 34
0.0
 50
90.0
100
AcDbRotatedDimension
  0
DIMENSION
  5
F7
330
B2
100
AcDbEntity
  8
Размеры
100
AcDbDimension
280
0
  3
Основной стиль
 10
1920.0
 20
60.0
 30
0.0
 11
1920.0
 21
915.0
 31
0.0
 70
32
 71
5
  1
<>
100
AcDbAlignedDimension
 13
1770.0
 23
60.0
 33
0.0
 14
1770.0
 24
1770.0
 34
0.0
 50
90.0
100
AcDbRotatedDimension
  0
DIMENSION
  5
F8
330
B2
100
AcDbEntity
  8
Размеры
100
AcDbDimension
280
0
  3
Основной стиль
 10
1920.0
 20
30.0
 30
0.0
 11
1920.0
 21
45.0
 31
0.0
 70
32
 71
5
  1
<>
100
AcDbAlignedDimension
 13
1770.0
 23
30.0
 33
0.0
 14
1770.0
 24
60.0
 34
0.0
 50
90.0
100
AcDbRotatedDimension
  0
DIMENSION
  5
F9
330
B2
100
AcDbEntity
  8
Размеры
100
AcDbDimension
280
0
  3
Основной стиль
 10
1920.0
 20
1770.0
 30
0.0
 11
1920.0
 21
1800.0
 31
0.0
 70
32
 71
5
  1
<>
100
AcDbAlignedDimension
 13
1770.0
 23
1770.0
 33
0.0
 14
1770.0
 24
1830.0
 34
0.0
 50
90.0
100
AcDbRotatedDimension
  0
DIMENSION
  5
FA
330
B2
100
AcDbEntity
  8
Размеры
100
AcDbDimension
280
0
  3
Основной стиль
 10
1980.0
 20
0.0
 30
0.0
 11
1980.0
 21
900.0
 31
0.0
 70
32
 71
5
  1
<>
100
AcDbAlignedDimension
 13
1800.0
 23
0.0
 33
0.0
 14
1800.0
 24
1800.0
 34
0.0
 50
90.0
100
AcDbRotatedDimension
  0
DIMENSION
  5
FB
330
B2
100
AcDbEntity
  8
Размеры
100
AcDbDimension
280
0
  3
Основной стиль
 10
1920.0
 20
0.0
 30
0.0
 11
1920.0
 21
15.0
 31
0.0
 70
32
 71
5
  1
<>
100
AcDbAlignedDimension
 13
1800.0
 23
0.0
 33
0.0
 14
1800.0
 24
30.0
 34
0.0
 50
90.0
100
AcDbRotatedDimension
  0
DIMENSION
  5
FC
330
B2
100
AcDbEntity
  8
Размеры
100
AcDbDimension
280
0
  3
Основной стиль
 10
1920.0
 20
1830.0
 30
0.0
 11
1920.0
 21
1815.0
 31
0.0
 70
32
 71
5
  1
<>
100
AcDbAlignedDimension
 13
1800.0
 23
1830.0
 33
0.0
 14
1800.0
 24
1800.0
 34
0.0
 50
90.0
100
AcDbRotatedDimension
  0
ENDBLK
  5
B4
330
B2
100
AcDbEntity
  8
0
100
AcDbBlockEnd
  0
BLOCK
  5
FE
330
FD
100
AcDbEntity
  8
0
100
AcDbBlockBegin
  2
Пример 05 ОК-3.2 1500х1500 3x2 Снаружи #05
 70
2
 10
0.0
 20
0.0
 30
0.0
  3
Пример 05 ОК-3.2 1500х1500 3x2 Снаружи #05
  1

  0
LWPOLYLINE
  5
100
330
FD
100
AcDbEntity
  8
Штриховые
100
AcDbPolyline
 90
4
 70
1
 10
0.0
 20
0.0
 10
1500.0
 20
0.0
 10
1500.0
 20
1500.0
 10
0.0
 20
1500.0
  0
LWPOLYLINE
  5
101
330
FD
100
AcDbEntity
  8
Окна
100
AcDbPolyline
 90
4
 70
1
 10
30.0
 20
60.0
 10
1470.0
 20
60.0
 10
1470.0
 20
1470.0
 10
30.0
 20
1470.0
  0
LWPOLYLINE
  5
102
330
FD
100
AcDbEntity
  8
Окна
100
AcDbPolyline
 90
4
 70
1
 10
90.0
 20
120.0
 10
1410.0
 20
120.0
 10
1410.0
 20
1410.0
 10
90.0
 20
1410.0
  0
LINE
  5
103
330
FD
100
AcDbEntity
  8
Окна
100
AcDbLine
 10
30.0
 20
60.0
 30
0.0
 11
90.0
 21
120.0
 31
0.0
  0
LINE
  5
104
330
FD
100
AcDbEntity
  8
Окна
100
AcDbLine
 10
1470.0
 20
60.0
 30
0.0
 11
1410.0
 21
120.0
 31
0.0
  0
LINE
  5
105
330
FD
100
AcDbEntity
  8
Окна
100
AcDbLine
 10
1470.0
 20
1470.0
 30
0.0
 11
1410.0
 21
1410.0
 31
0.0
  0
LINE
  5
106
330
FD
100
AcDbEntity
  8
Окна
100
AcDbLine
 10
30.0
 20
1470.0
 30
0.0
 11
90.0
 21
1410.0
 31
0.0
  0
LWPOLYLINE
  5
107
330
FD
100
AcDbEntity
  8
Окна
100
AcDbPolyline
 90
4
 70
1
 10
476.6666666666667
 20
120.0
 10
556.6666666666667
 20
120.0
 10
556.6666666666667
 20
1410.0
 10
476.6666666666667
 20
1410.0
  0
LWPOLYLINE
  5
108
330
FD
100
AcDbEntity
  8
Окна
100
AcDbPolyline
 90
4
 70
1
 10
943.3333333333334
 20
120.0
 10
1023.3333333333334
 20
120.0
 10
1023.3333333333334
 20
1410.0
 10
943.3333333333334
 20
1410.0
  0
LWPOLYLINE
  5
109
330
FD
100
AcDbEntity
  8
Окна
100
AcDbPolyline
 90
4
 70
1
 10
90.0
 20
725.0
 10
1410.0
 20
725.0
 10
1410.0
 20
805.0
 10
90.0
 20
805.0
  0
LWPOLYLINE
  5
10A
330
FD
100
AcDbEntity
  8
Окна
100
AcDbPolyline
 90
4
 70
1
 10
30.0
 20
30.0
 10
1470.0
 20
30.0
 10
1470.0
 20
60.0
 10
30.0
 20
60.0
  0
LINE
  5
10B
330
FD
100
AcDbEntity
  8
Окна
100
AcDbLine
 10
155.0
 20
185.0
 30
0.0
 11
411.6666666666667
 21
185.0
 31
0.0
  0
LINE
  5
10C
330
FD
100
AcDbEntity
  8
Окна
100
AcDbLine
 10
411.6666666666667
 20
185.0
 30
0.0
 11
411.6666666666667
 21
660.0
 31
0.0
  0
LINE
  5
10D
330
FD
100
AcDbEntity
  8
Окна
100
AcDbLine
 10
411.6666666666667
 20
660.0
 30
0.0
 11
155.0
 21
660.0
 31
0.0
  0
LINE
  5
10E
330
FD
100
AcDbEntity
  8
Окна
100
AcDbLine
 10
155.0
 20
660.0
 30
0.0
 11
155.0
 21
185.0
 31
0.0
  0
LINE
  5
10F
330
FD
100
AcDbEntity
  8
Окна
100
AcDbLine
 10
90.0
 20
120.0
 30
0.0
 11
155.0
 21
185.0
 31
0.0
  0
LINE
  5
110
330
FD
100
AcDbEntity
  8
Окна
100
AcDbLine
 10
476.6666666666667
 20
120.0
 30
0.0
 11
411.6666666666667
 21
185.0
 31
0.0
  0
LINE
  5
111
330
FD
100
AcDbEntity
  8
Окна
100
AcDbLine
 10
476.6666666666667
 20
725.0
 30
0.0
 11
411.6666666666667
 21
660.0
 31
0.0
  0
LINE
  5
112
330
FD
100
AcDbEntity
  8
Окна
100
AcDbLine
 10
90.0
 20
725.0
 30
0.0
 11
155.0
 21
660.0
 31
0.0
  0
LINE
  5
113
330
FD
100
AcDbEntity
  8
Штриховые
100
AcDbLine
 10
75.0
 20
105.0
 30
0.0
 11
491.6666666666667
 21
422.5
 31
0.0
  0
LINE
  5
114
330
FD
100
AcDbEntity
  8
Штриховые
100
AcDbLine
 10
75.0
 20
740.0
 30
0.0
 11
491.6666666666667
 21
422.5
 31
0.0
  0
LINE
  5
115
330
FD
100
AcDbEntity
  8
Окна
100
AcDbLine
 10
621.6666666666667
 20
185.0
 30
0.0
 11
878.3333333333335
 21
185.0
 31
0.0
  0
LINE
  5
116
330
FD
100
AcDbEntity
  8
Окна
100
AcDbLine
 10
878.3333333333335
 20
185.0
 30
0.0
 11
878.3333333333335
 21
660.0
 31
0.0
  0
LINE
  5
117
330
FD
100
AcDbEntity
  8
Окна
100
AcDbLine
 10
878.3333333333335
 20
660.0
 30
0.0
 11
621.6666666666667
 21
660.0
 31
0.0
  0
LINE
  5
118
330
FD
100
AcDbEntity
  8
Окна
100
AcDbLine
 10
621.6666666666667
 20
660.0
 30
0.0
 11
621.6666666666667
 21
185.0
 31
0.0
  0
LINE
  5
119
330
FD
100
AcDbEntity
  8
Окна
100
AcDbLine
 10
556.6666666666667
 20
120.0
 30
0.0
 11
621.6666666666667
 21
185.0
 31
0.0
  0
LINE
  5
11A
330
FD
100
AcDbEntity
  8
Окна
100
AcDbLine
 10
943.3333333333335
 20
120.0
 30
0.0
 11
878.3333333333335
 21
185.0
 31
0.0
  0
LINE
  5
11B
330
FD
100
AcDbEntity
  8
Окна
100
AcDbLine
 10
943.3333333333335
 20
725.0
 30
0.0
 11
878.3333333333335
 21
660.0
 31
0.0
  0
LINE
  5
11C
330
FD
100
AcDbEntity
  8
Окна
100
AcDbLine
 10
556.6666666666667
 20
725.0
 30
0.0
 11
621.6666666666667
 21
660.0
 31
0.0
  0
LINE
  5
11D
330
FD
100
AcDbEntity
  8
Штриховые
100
AcDbLine
 10
541.6666666666667
 20
105.0
 30
0.0
 11
958.3333333333335
 21
422.5
 31
0.0
  0
LINE
  5
11E
330
FD
100
AcDbEntity
  8
Штриховые
100
AcDbLine
 10
541.6666666666667
 20
740.0
 30
0.0
 11
958.3333333333335
 21
422.5
 31
0.0
  0
LINE
  5
11F
330
FD
100
AcDbEntity
  8
Штриховые
100
AcDbLine
 10
541.6666666666667
 20
105.0
 30
0.0
 11
750.0000000000001
 21
740.0
 31
0.0
  0
LINE
  5
120
330
FD
100
AcDbEntity
  8
Штриховые
100
AcDbLine
 10
958.3333333333335
 20
105.0
 30
0.0
 11
750.0000000000001
 21
740.0
 31
0.0
  0
LINE
  5
121
330
FD
100
AcDbEntity
  8
Окна
100
AcDbLine
 10
155.0
 20
870.0
 30
0.0
 11
411.6666666666667
 21
870.0
 31
0.0
  0
LINE
  5
122
330
FD
100
AcDbEntity
  8
Окна
100
AcDbLine
 10
411.6666666666667
 20
870.0
 30
0.0
 11
411.6666666666667
 21
1345.0
 31
0.0
  0
LINE
  5
123
330
FD
100
AcDbEntity
  8
Окна
100
AcDbLine
 10
411.6666666666667
 20
1345.0
 30
0.0
 11
155.0
 21
1345.0
 31
0.0
  0
LINE
  5
124
330
FD
100
AcDbEntity
  8
Окна
100
AcDbLine
 10
155.0
 20
1345.0
 30
0.0
 11
155.0
 21
870.0
 31
0.0
  0
LINE
  5
125
330
FD
100
AcDbEntity
  8
Окна
100
AcDbLine
 10
90.0
 20
805.0
 30
0.0
 11
155.0
 21
870.0
 31
0.0
  0
LINE
  5
126
330
FD
100
AcDbEntity
  8
Окна
100
AcDbLine
 10
476.6666666666667
 20
805.0
 30
0.0
 11
411.6666666666667
 21
870.0
 31
0.0
  0
LINE
  5
127
330
FD
100
AcDbEntity
  8
Окна
100
AcDbLine
 10
476.6666666666667
 20
1410.0
 30
0.0
 11
411.6666666666667
 21
1345.0
 31
0.0
  0
LINE
  5
128
330
FD
100
AcDbEntity
  8
Окна
100
AcDbLine
 10
90.0
 20
1410.0
 30
0.0
 11
155.0
 21
1345.0
 31
0.0
  0
LINE
  5
129
330
FD
100
AcDbEntity
  8
Штриховые
100
AcDbLine
 10
75.0
 20
790.0
 30
0.0
 11
283.33333333333337
 21
1425.0
 31
0.0
  0
LINE
  5
12A
330
FD
100
AcDbEntity
  8
Штриховые
100
AcDbLine
 10
491.6666666666667
 20
790.0
 30
0.0
 11
283.33333333333337
 21
1425.0
 31
0.0
  0
ATTDEF
  5
12B
330
FD
100
AcDbEntity
  8
Текст
100
AcDbText
 10
0.0
 20
1810.0
 30
0.0
 40
30.0
  1
Пример 05
  7
Основной стиль
100
AcDbAttributeDefinition
  3
Объект
  2
OBJECT
 70
0
  0
ATTDEF
  5
12C
330
FD
100
AcDbEntity
  8
Текст
100
AcDbText
 10
0.0
 20
1760.0
 30
0.0
 40
30.0
  1
ОК-3.2/1 шт.
  7
Основной стиль
100
AcDbAttributeDefinition
  3
Окно / кол-во
  2
WINDOW
 70
0
  0
ATTDEF
  5
12D
330
FD
100
AcDbEntity
  8
Текст
100
AcDbText
 10
0.0
 20
1710.0
 30
0.0
 40
30.0
  1
RAL8017/RAL9016
  7
Основной стиль
100
AcDbAttributeDefinition
  3
Цвет
  2
COLOR
 70
0
  0
ATTDEF
  5
12E
330
FD
100
AcDbEntity
  8
Текст
100
AcDbText
 10
0.0
 20
1660.0
 30
0.0
 40
30.0
  1
Заполнение СПД42
  7
Основной стиль
100
AcDbAttributeDefinition
  3
Заполнение
  2
GLAZING
 70
0
  0
ATTDEF
  5
12F
330
FD
100
AcDbEntity
  8
Текст
100
AcDbText
 10
0.0
 20
1610.0
 30
0.0
 40
30.0
  1
1500х1500
  7
Основной стиль
100
AcDbAttributeDefinition
  3
Габарит
  2
SIZE
 70
0
  0
ATTDEF
  5
130
330
FD
100
AcDbEntity
  8
Текст
100
AcDbText
 10
0.0
 20
1560.0
 30
0.0
 40
30.0
  1
3х2
  7
Основной стиль
100
AcDbAttributeDefinition
  3
Сетка
  2
GRID
 70
0
  0
TEXT
  5
131
330
FD
100
AcDbEntity
  8
Текст
100
AcDbText
 10
1500.0
 20
1560.0
 30
0.0
 40
30.0
  1
S=2.25 м²
  7
Основной стиль
 72
2
 11
1500.0
 21
1560.0
 31
0.0
100
AcDbText
 73
3
  0
DIMENSION
  5
132
330
FD
100
AcDbEntity
  8
Размеры
100
AcDbDimension
280
0
  3
Основной стиль
 10
30.0
 20
-60.0
 30
0.0
 11
273.33333333333337
 21
-60.0
 31
0.0
 70
32
 71
5
  1
<>
100
AcDbAlignedDimension
 13
30.0
 23
30.0
 33
0.0
 14
516.6666666666667
 24
30.0
 34
0.0
 50
0.0
100
AcDbRotatedDimension
  0
DIMENSION
  5
133
330
FD
100
AcDbEntity
  8
Размеры
100
AcDbDimension
280
0
  3
Основной стиль
 10
516.6666666666667
 20
-60.0
 30
0.0
 11
750.0
 21
-60.0
 31
0.0
 70
32
 71
5
  1
<>
100
AcDbAlignedDimension
 13
516.6666666666667
 23
30.0
 33
0.0
 14
983.3333333333334
 24
30.0
 34
0.0
 50
0.0
100
AcDbRotatedDimension
  0
DIMENSION
  5
134
330
FD
100
AcDbEntity
  8
Размеры
100
AcDbDimension
280
0
  3
Основной стиль
 10
983.3333333333334
 20
-60.0
 30
0.0
 11
1226.6666666666667
 21
-60.0
 31
0.0
 70
32
 71
5
  1
<>
100
AcDbAlignedDimension
 13
983.3333333333334
 23
30.0
 33
0.0
 14
1470.0
 24
30.0
 34
0.0
 50
0.0
100
AcDbRotatedDimension
  0
DIMENSION
  5
135
330
FD
100
AcDbEntity
  8
Размеры
100
AcDbDimension
280
0
  3
Основной стиль
 10
30.0
 20
-120.0
 30
0.0
 11
750.0
 21
-120.0
 31
0.0
 70
32
 71
5
  1
<>
100
AcDbAlignedDimension
 13
30.0
 23
30.0
 33
0.0
 14
1470.0
 24
30.0
 34
0.0
 50
0.0
100
AcDbRotatedDimension
  0
DIMENSION
  5
136
330
FD
100
AcDbEntity
  8
Размеры
100
AcDbDimension
280
0
  3
Основной стиль
 10
0.0
 20
-180.0
 30
0.0
 11
750.0
 21
-180.0
 31
0.0
 70
32
 71
5
  1
<>
100
AcDbAlignedDimension
 13
0.0
 23
0.0
 33
0.0
 14
1500.0
 24
0.0
 34
0.0
 50
0.0
100
AcDbRotatedDimension
  0
DIMENSION
  5
137
330
FD
100
AcDbEntity
  8
Размеры
100
AcDbDimension
280
0
  3
Основной стиль
 10
0.0
 20
-120.0
 30
0.0
 11
15.0
 21
-120.0
 31
0.0
 70
32
 71
5
  1
<>
100
AcDbAlignedDimension
 13
0.0
 23
0.0
 33
0.0
 14
30.0
 24
0.0
 34
0.0
 50
0.0
100
AcDbRotatedDimension
  0
DIMENSION
  5
138
330
FD
100
AcDbEntity
  8
Размеры
100
AcDbDimension
280
0
  3
Основной стиль
 10
1470.0
 20
-120.0
 30
0.0
 11
1485.0
 21
-120.0
 31
0.0
 70
32
 71
5
  1
<>
100
AcDbAlignedDimension
 13
1470.0
 23
0.0
 33
0.0
 14
1500.0
 24
0.0
 34
0.0
 50
0.0
100
AcDbRotatedDimension
  0
DIMENSION
  5
139
330
FD
100
AcDbEntity
  8
Размеры
100
AcDbDimension
280
0
  3
Основной стиль
 10
1560.0
 20
60.0
 30
0.0
 11
1560.0
 21
412.5
 31
0.0
 70
32
 71
5
  1
<>
100
AcDbAlignedDimension
 13
1470.0
 23
60.0
 33
0.0
 14
1470.0
 24
765.0
 34
0.0
 50
90.0
100
AcDbRotatedDimension
  0
DIMENSION
  5
13A
330
FD
100
AcDbEntity
  8
Размеры
100
AcDbDimension
280
0
  3
Основной стиль
 10
1560.0
 20
765.0
 30
0.0
 11
1560.0
 21
1117.5
 31
0.0
 70
32
 71
5
  1
<>
100
AcDbAlignedDimension
 13
1470.0
 23
765.0
 33
0.0
 14
1470.0
 24
1470.0
 34
0.0
 50
90.0
100
AcDbRotatedDimension
  0
DIMENSION
  5
13B
330
FD
100
AcDbEntity
  8
Размеры
100
AcDbDimension
280
0
  3
Основной стиль
 10
1620.0
 20
60.0
 30
0.0
 11
1620.0
 21
765.0
 31
0.0
 70
32
 71
5
  1
<>
100
AcDbAlignedDimension
 13
1470.0
 23
60.0
 33
0.0
 14
1470.0
 24
1470.0
 34
0.0
 50
90.0
100
AcDbRotatedDimension
  0
DIMENSION
  5
13C
330
FD
100
AcDbEntity
  8
Размеры
100
AcDbDimension
280
0
  3
Основной стиль
 10
1620.0
 20
30.0
 30
0.0
 11
1620.0
 21
45.0
 31
0.0
 70
32
 71
5
  1
<>
100
AcDbAlignedDimension
 13
1470.0
 23
30.0
 33
0.0
 14
1470.0
 24
60.0
 34
0.0
 50
90.0
100
AcDbRotatedDimension
  0
DIMENSION
  5
13D
330
FD
100
AcDbEntity
  8
Размеры
100
AcDbDimension
280
0
  3
Основной стиль
 10
1680.0
 20
0.0
 30
0.0
 11
1680.0
 21
750.0
 31
0.0
 70
32
 71
5
  1
<>
100
AcDbAlignedDimension
 13
1500.0
 23
0.0
 33
0.0
 14
1500.0
 24
1500.0
 34
0.0
 50
90.0
100
AcDbRotatedDimension
  0
DIMENSION
  5
13E
330
FD
100
AcDbEntity
  8
Размеры
100
AcDbDimension
280
0
  3
Основной стиль
 10
1620.0
 20
0.0
 30
0.0
 11
1620.0
 21
15.0
 31
0.0
 70
32
 71
5
  1
<>
100
AcDbAlignedDimension
 13
1500.0
 23
0.0
 33
0.0
 14
1500.0
 24
30.0
 34
0.0
 50
90.0
100
AcDbRotatedDimension
  0
DIMENSION
  5
13F
330
FD
100
AcDbEntity
  8
Размеры
100
AcDbDimension
280
0
  3
Основной стиль
 10
1620.0
 20
1470.0
 30
0.0
 11
1620.0
 21
1485.0
 31
0.0
 70
32
 71
5
  1
<>
100
AcDbAlignedDimension
 13
1500.0
 23
1470.0
 33
0.0
 14
1500.0
 24
1500.0
 34
0.0
 50
90.0
100
AcDbRotatedDimension
  0
ENDBLK
  5
FF
330
FD
100
AcDbEntity
  8
0
100
AcDbBlockEnd
  0
BLOCK
  5
141
330
140
100
AcDbEntity
  8
0
100
AcDbBlockBegin
  2
Пример 06 ОК-3.2Д 1700х1700 3x2 Снаружи #06
 70
2
 10
0.0
 20
0.0
 30
0.0
  3
Пример 06 ОК-3.2Д 1700х1700 3x2 Снаружи #06
  1

  0
LWPOLYLINE
  5
143
330
140
100
AcDbEntity
  8
Штриховые
100
AcDbPolyline
 90
4
 70
1
 10
0.0
 20
0.0
 10
1700.0
 20
0.0
 10
1700.0
 20
1700.0
 10
0.0
 20
1700.0
  0
LWPOLYLINE
  5
144
330
140
100
AcDbEntity
  8
Окна
100
AcDbPolyline
 90
4
 70
1
 10
30.0
 20
30.0
 10
1670.0
 20
30.0
 10
1670.0
 20
1670.0
 10
30.0
 20
1670.0
  0
LWPOLYLINE
  5
145
330
140
100
AcDbEntity
  8
Окна
100
AcDbPolyline
 90
4
 70
1
 10
90.0
 20
90.0
 10
1610.0
 20
90.0
 10
1610.0
 20
1610.0
 10
90.0
 20
1610.0
  0
LINE
  5
146
330
140
100
AcDbEntity
  8
Окна
100
AcDbLine
 10
30.0
 20
30.0
 30
0.0
 11
90.0
 21
90.0
 31
0.0
  0
LINE
  5
147
330
140
100
AcDbEntity
  8
Окна
100
AcDbLine
 10
1670.0
 20
30.0
 30
0.0
 11
1610.0
 21
90.0
 31
0.0
  0
LINE
  5
148
330
140
100
AcDbEntity
  8
Окна
100
AcDbLine
 10
1670.0
 20
1670.0
 30
0.0
 11
1610.0
 21
1610.0
 31
0.0
  0
LINE
  5
149
330
140
100
AcDbEntity
  8
Окна
100
AcDbLine
 10
30.0
 20
1670.0
 30
0.0
 11
90.0
 21
1610.0
 31
0.0
  0
LWPOLYLINE
  5
14A
330
140
100
AcDbEntity
  8
Окна
100
AcDbPolyline
 90
4
 70
1
 10
543.3333333333333
 20
90.0
 10
623.3333333333333
 20
90.0
 10
623.3333333333333
 20
1610.0
 10
543.3333333333333
 20
1610.0
  0
LWPOLYLINE
  5
14B
330
140
100
AcDbEntity
  8
Окна
100
AcDbPolyline
 90
4
 70
1
 10
1076.6666666666665
 20
90.0
 10
1156.6666666666665
 20
90.0
 10
1156.6666666666665
 20
1610.0
 10
1076.6666666666665
 20
1610.0
  0
LWPOLYLINE
  5
14C
330
140
100
AcDbEntity
  8
Окна
100
AcDbPolyline
 90
4
 70
1
 10
90.0
 20
810.0
 10
1610.0
 20
810.0
 10
1610.0
 20
890.0
 10
90.0
 20
890.0
  0
LWPOLYLINE
  5
14D
330
140
100
AcDbEntity
  8
Окна
100
AcDbPolyline
 90
4
 70
1
 10
-40.0
 20
30.0
 10
30.0
 20
30.0
 10
30.0
 20
1670.0
 10
-40.0
 20
1670.0
  0
LWPOLYLINE
  5
14E
330
140
100
AcDbEntity
  8
Окна
100
AcDbPolyline
 90
4
 70
1
 10
1670.0
 20
30.0
 10
1740.0
 20
30.0
 10
1740.0
 20
1670.0
 10
1670.0
 20
1670.0
  0
LWPOLYLINE
  5
14F
330
140
100
AcDbEntity
  8
Окна
100
AcDbPolyline
 90
4
 70
1
 10
-40.0
 20
1670.0
 10
1740.0
 20
1670.0
 10
1740.0
 20
1720.0
 10
-40.0
 20
1720.0
  0
LINE
  5
150
330
140
100
AcDbEntity
  8
Окна
100
AcDbLine
 10
155.0
 20
155.0
 30
0.0
 11
478.33333333333326
 21
155.0
 31
0.0
  0
LINE
  5
151
330
140
100
AcDbEntity
  8
Окна
100
AcDbLine
 10
478.33333333333326
 20
155.0
 30
0.0
 11
478.33333333333326
 21
745.0
 31
0.0
  0
LINE
  5
152
330
140
100
AcDbEntity
  8
Окна
100
AcDbLine
 10
478.33333333333326
 20
745.0
 30
0.0
 11
155.0
 21
745.0
 31
0.0
  0
LINE
  5
153
330
140
100
AcDbEntity
  8
Окна
100
AcDbLine
 10
155.0
 20
745.0
 30
0.0
 11
155.0
 21
155.0
 31
0.0
  0
LINE
  5
154
330
140
100
AcDbEntity
  8
Окна
100
AcDbLine
 10
90.0
 20
90.0
 30
0.0
 11
155.0
 21
155.0
 31
0.0
  0
LINE
  5
155
330
140
100
AcDbEntity
  8
Окна
100
AcDbLine
 10
543.3333333333333
 20
90.0
 30
0.0
 11
478.33333333333326
 21
155.0
 31
0.0
  0
LINE
  5
156
330
140
100
AcDbEntity
  8
Окна
100
AcDbLine
 10
543.3333333333333
 20
810.0
 30
0.0
 11
478.33333333333326
 21
745.0
 31
0.0
  0
LINE
  5
157
330
140
100
AcDbEntity
  8
Окна
100
AcDbLine
 10
90.0
 20
810.0
 30
0.0
 11
155.0
 21
745.0
 31
0.0
  0
LINE
  5
158
330
140
100
AcDbEntity
  8
Штриховые
100
AcDbLine
 10
75.0
 20
75.0
 30
0.0
 11
558.3333333333333
 21
450.0
 31
0.0
  0
LINE
  5
159
330
140
100
AcDbEntity
  8
Штриховые
100
AcDbLine
 10
75.0
 20
825.0
 30
0.0
 11
558.3333333333333
 21
450.0
 31
0.0
  0
LINE
  5
15A
330
140
100
AcDbEntity
  8
Окна
100
AcDbLine
 10
688.3333333333333
 20
155.0
 30
0.0
 11
1011.6666666666665
 21
155.0
 31
0.0
  0
LINE
  5
15B
330
140
100
AcDbEntity
  8
Окна
100
AcDbLine
 10
1011.6666666666665
 20
155.0
 30
0.0
 11
1011.6666666666665
 21
745.0
 31
0.0
  0
LINE
  5
15C
330
140
100
AcDbEntity
  8
Окна
100
AcDbLine
 10
1011.6666666666665
 20
745.0
 30
0.0
 11
688.3333333333333
 21
745.0
 31
0.0
  0
LINE
  5
15D
330
140
100
AcDbEntity
  8
Окна
100
AcDbLine
 10
688.3333333333333
 20
745.0
 30
0.0
 11
688.3333333333333
 21
155.0
 31
0.0
  0
LINE
  5
15E
330
140
100
AcDbEntity
  8
Окна
100
AcDbLine
 10
623.3333333333333
 20
90.0
 30
0.0
 11
688.3333333333333
 21
155.0
 31
0.0
  0
LINE
  5
15F
330
140
100
AcDbEntity
  8
Окна
100
AcDbLine
 10
1076.6666666666665
 20
90.0
 30
0.0
 11
1011.6666666666665
 21
155.0
 31
0.0
  0
LINE
  5
160
330
140
100
AcDbEntity
  8
Окна
100
AcDbLine
 10
1076.6666666666665
 20
810.0
 30
0.0
 11
1011.6666666666665
 21
745.0
 31
0.0
  0
LINE
  5
161
330
140
100
AcDbEntity
  8
Окна
100
AcDbLine
 10
623.3333333333333
 20
810.0
 30
0.0
 11
688.3333333333333
 21
745.0
 31
0.0
  0
LINE
  5
162
330
140
100
AcDbEntity
  8
Штриховые
100
AcDbLine
 10
608.3333333333333
 20
75.0
 30
0.0
 11
1091.6666666666665
 21
450.0
 31
0.0
  0
LINE
  5
163
330
140
100
AcDbEntity
  8
Штриховые
100
AcDbLine
 10
608.3333333333333
 20
825.0
 30
0.0
 11
1091.6666666666665
 21
450.0
 31
0.0
  0
LINE
  5
164
330
140
100
AcDbEntity
  8
Штриховые
100
AcDbLine
 10
608.3333333333333
 20
75.0
 30
0.0
 11
849.9999999999999
 21
825.0
 31
0.0
  0
LINE
  5
165
330
140
100
AcDbEntity
  8
Штриховые
100
AcDbLine
 10
1091.6666666666665
 20
75.0
 30
0.0
 11
849.9999999999999
 21
825.0
 31
0.0
  0
LINE
  5
166
330
140
100
AcDbEntity
  8
Окна
100
AcDbLine
 10
155.0
 20
955.0
 30
0.0
 11
478.33333333333326
 21
955.0
 31
0.0
  0
LINE
  5
167
330
140
100
AcDbEntity
  8
Окна
100
AcDbLine
 10
478.33333333333326
 20
955.0
 30
0.0
 11
478.33333333333326
 21
1545.0
 31
0.0
  0
LINE
  5
168
330
140
100
AcDbEntity
  8
Окна
100
AcDbLine
 10
478.33333333333326
 20
1545.0
 30
0.0
 11
155.0
 21
1545.0
 31
0.0
  0
LINE
  5
169
330
140
100
AcDbEntity
  8
Окна
100
AcDbLine
 10
155.0
 20
1545.0
 30
0.0
 11
155.0
 21
955.0
 31
0.0
  0
LINE
  5
16A
330
140
100
AcDbEntity
  8
Окна
100
AcDbLine
 10
90.0
 20
890.0
 30
0.0
 11
155.0
 21
955.0
 31
0.0
  0
LINE
  5
16B
330
140
100
AcDbEntity
  8
Окна
100
AcDbLine
 10
543.3333333333333
 20
890.0
 30
0.0
 11
478.33333333333326
 21
955.0
 31
0.0
  0
LINE
  5
16C
330
140
100
AcDbEntity
  8
Окна
100
AcDbLine
 10
543.3333333333333
 20
1610.0
 30
0.0
 11
478.33333333333326
 21
1545.0
 31
0.0
  0
LINE
  5
16D
330
140
100
AcDbEntity
  8
Окна
100
AcDbLine
 10
90.0
 20
1610.0
 30
0.0
 11
155.0
 21
1545.0
 31
0.0
  0
LINE
  5
16E
330
140
100
AcDbEntity
  8
Штриховые
100
AcDbLine
 10
75.0
 20
875.0
 30
0.0
 11
316.66666666666663
 21
1625.0
 31
0.0
  0
LINE
  5
16F
330
140
100
AcDbEntity
  8
Штриховые
100
AcDbLine
 10
558.3333333333333
 20
875.0
 30
0.0
 11
316.66666666666663
 21
1625.0
 31
0.0
  0
ATTDEF
  5
170
330
140
100
AcDbEntity
  8
Текст
100
AcDbText
 10
0.0
 20
2010.0
 30
0.0
 40
30.0
  1
Пример 06
  7
Основной стиль
100
AcDbAttributeDefinition
  3
Объект
  2
OBJECT
 70
0
  0
ATTDEF
  5
171
330
140
100
AcDbEntity
  8
Текст
100
AcDbText
 10
0.0
 20
1960.0
 30
0.0
 40
30.0
  1
ОК-3.2Д/1 шт.
  7
Основной стиль
100
AcDbAttributeDefinition
  3
Окно / кол-во
  2
WINDOW
 70
0
  0
ATTDEF
  5
172
330
140
100
AcDbEntity
  8
Текст
100
AcDbText
 10
0.0
 20
1910.0
 30
0.0
 40
30.0
  1
RAL8017/RAL9016
  7
Основной стиль
100
AcDbAttributeDefinition
  3
Цвет
  2
COLOR
 70
0
  0
ATTDEF
  5
173
330
140
100
AcDbEntity
  8
Текст
100
AcDbText
 10
0.0
 20
1860.0
 30
0.0
 40
30.0
  1
Заполнение СПД42
  7
Основной стиль
100
AcDbAttributeDefinition
  3
Заполнение
  2
GLAZING
 70
0
  0
ATTDEF
  5
174
330
140
100
AcDbEntity
  8
Текст
100
AcDbText
 10
0.0
 20
1810.0
 30
0.0
 40
30.0
  1
1700х1700
  7
Основной стиль
100
AcDbAttributeDefinition
  3
Габарит
  2
SIZE
 70
0
  0
ATTDEF
  5
175
330
140
100
AcDbEntity
  8
Текст
100
AcDbText
 10
0.0
 20
1760.0
 30
0.0
 40
30.0
  1
3х2
  7
Основной стиль
100
AcDbAttributeDefinition
  3
Сетка
  2
GRID
 70
0
  0
TEXT
  5
176
330
140
100
AcDbEntity
  8
Текст
100
AcDbText
 10
1700.0
 20
1760.0
 30
0.0
 40
30.0
  1
S=2.89 м²
  7
Основной стиль
 72
2
 11
1700.0
 21
1760.0
 31
0.0
100
AcDbText
 73
3
  0
DIMENSION
  5
177
330
140
100
AcDbEntity
  8
Размеры
100
AcDbDimension
280
0
  3
Основной стиль
 10
30.0
 20
-60.0
 30
0.0
 11
306.66666666666663
 21
-60.0
 31
0.0
 70
32
 71
5
  1
<>
100
AcDbAlignedDimension
 13
30.0
 23
30.0
 33
0.0
 14
583.3333333333333
 24
30.0
 34
0.0
 50
0.0
100
AcDbRotatedDimension
  0
DIMENSION
  5
178
330
140
100
AcDbEntity
  8
Размеры
100
AcDbDimension
280
0
  3
Основной стиль
 10
583.3333333333333
 20
-60.0
 30
0.0
 11
849.9999999999999
 21
-60.0
 31
0.0
 70
32
 71
5
  1
<>
100
AcDbAlignedDimension
 13
583.3333333333333
 23
30.0
 33
0.0
 14
1116.6666666666665
 24
30.0
 34
0.0
 50
0.0
100
AcDbRotatedDimension
  0
DIMENSION
  5
179
330
140
100
AcDbEntity
  8
Размеры
100
AcDbDimension
280
0
  3
Основной стиль
 10
1116.6666666666665
 20
-60.0
 30
0.0
 11
1393.3333333333333
 21
-60.0
 31
0.0
 70
32
 71
5
  1
<>
100
AcDbAlignedDimension
 13
1116.6666666666665
 23
30.0
 33
0.0
 14
1670.0
 24
30.0
 34
0.0
 50
0.0
100
AcDbRotatedDimension
  0
DIMENSION
  5
17A
330
140
100
AcDbEntity
  8
Размеры
100
AcDbDimension
280
0
  3
Основной стиль
 10
-40.0
 20
-120.0
 30
0.0
 11
850.0
 21
-120.0
 31
0.0
 70
32
 71
5
  1
<>
100
AcDbAlignedDimension
 13
-40.0
 23
30.0
 33
0.0
 14
1740.0
 24
30.0
 34
0.0
 50
0.0
100
AcDbRotatedDimension
  0
DIMENSION
  5
17B
330
140
100
AcDbEntity
  8
Размеры
100
AcDbDimension
280
0
  3
Основной стиль
 10
0.0
 20
-180.0
 30
0.0
 11
850.0
 21
-180.0
 31
0.0
 70
32
 71
5
  1
<>
100
AcDbAlignedDimension
 13
0.0
 23
0.0
 33
0.0
 14
1700.0
 24
0.0
 34
0.0
 50
0.0
100
AcDbRotatedDimension
  0
DIMENSION
  5
17C
330
140
100
AcDbEntity
  8
Размеры
100
AcDbDimension
280
0
  3
Основной стиль
 10
-40.0
 20
-60.0
 30
0.0
 11
-5.0
 21
-60.0
 31
0.0
 70
32
 71
5
  1
<>
100
AcDbAlignedDimension
 13
-40.0
 23
30.0
 33
0.0
 14
30.0
 24
30.0
 34
0.0
 50
0.0
100
AcDbRotatedDimension
  0
DIMENSION
  5
17D
330
140
100
AcDbEntity
  8
Размеры
100
AcDbDimension
280
0
  3
Основной стиль
 10
1670.0
 20
-60.0
 30
0.0
 11
1705.0
 21
-60.0
 31
0.0
 70
32
 71
5
  1
<>
100
AcDbAlignedDimension
 13
1670.0
 23
30.0
 33
0.0
 14
1740.0
 24
30.0
 34
0.0
 50
0.0
100
AcDbRotatedDimension
  0
DIMENSION
  5
17E
330
140
100
AcDbEntity
  8
Размеры
100
AcDbDimension
280
0
  3
Основной стиль
 10
0.0
 20
-120.0
 30
0.0
 11
-20.0
 21
-120.0
 31
0.0
 70
32
 71
5
  1
<>
100
AcDbAlignedDimension
 13
0.0
 23
0.0
 33
0.0
 14
-40.0
 24
0.0
 34
0.0
 50
0.0
100
AcDbRotatedDimension
  0
DIMENSION
  5
17F
330
140
100
AcDbEntity
  8
Размеры
100
AcDbDimension
280
0
  3
Основной стиль
 10
1740.0
 20
-120.0
 30
0.0
 11
1720.0
 21
-120.0
 31
0.0
 70
32
 71
5
  1
<>
100
AcDbAlignedDimension
 13
1740.0
 23
0.0
 33
0.0
 14
1700.0
 24
0.0
 34
0.0
 50
0.0
100
AcDbRotatedDimension
  0
DIMENSION
  5
180
330
140
100
AcDbEntity
  8
Размеры
100
AcDbDimension
280
0
  3
Основной стиль
 10
1760.0
 20
30.0
 30
0.0
 11
1760.0
 21
440.0
 31
0.0
 70
32
 71
5
  1
<>
100
AcDbAlignedDimension
 13
1740.0
 23
30.0
 33
0.0
 14
1740.0
 24
850.0
 34
0.0
 50
90.0
100
AcDbRotatedDimension
  0
DIMENSION
  5
181
330
140
100
AcDbEntity
  8
Размеры
100
AcDbDimension
280
0
  3
Основной стиль
 10
1760.0
 20
850.0
 30
0.0
 11
1760.0
 21
1260.0
 31
0.0
 70
32
 71
5
  1
<>
100
AcDbAlignedDimension
 13
1740.0
 23
850.0
 33
0.0
 14
1740.0
 24
1670.0
 34
0.0
 50
90.0
100
AcDbRotatedDimension
  0
DIMENSION
  5
182
330
140
100
AcDbEntity
  8
Размеры
100
AcDbDimension
280
0
  3
Основной стиль
 10
1820.0
 20
30.0
 30
0.0
 11
1820.0
 21
850.0
 31
0.0
 70
32
 71
5
  1
<>
100
AcDbAlignedDimension
 13
1740.0
 23
30.0
 33
0.0
 14
1740.0
 24
1670.0
 34
0.0
 50
90.0
100
AcDbRotatedDimension
  0
DIMENSION
  5
183
330
140
100
AcDbEntity
  8
Размеры
100
AcDbDimension
280
0
  3
Основной стиль
 10
1820.0
 20
1670.0
 30
0.0
 11
1820.0
 21
1695.0
 31
0.0
 70
32
 71
5
  1
<>
100
AcDbAlignedDimension
 13
1740.0
 23
1670.0
 33
0.0
 14
1740.0
 24
1720.0
 34
0.0
 50
90.0
100
AcDbRotatedDimension
  0
DIMENSION
  5
184
330
140
100
AcDbEntity
  8
Размеры
100
AcDbDimension
280
0
  3
Основной стиль
 10
1880.0
 20
0.0
 30
0.0
 11
1880.0
 21
850.0
 31
0.0
 70
32
 71
5
  1
<>
100
AcDbAlignedDimension
 13
1700.0
 23
0.0
 33
0.0
 14
1700.0
 24
1700.0
 34
0.0
 50
90.0
100
AcDbRotatedDimension
  0
DIMENSION
  5
185
330
140
100
AcDbEntity
  8
Размеры
100
AcDbDimension
280
0
  3
Основной стиль
 10
1820.0
 20
0.0
 30
0.0
 11
1820.0
 21
15.0
 31
0.0
 70
32
 71
5
  1
<>
100
AcDbAlignedDimension
 13
1700.0
 23
0.0
 33
0.0
 14
1700.0
 24
30.0
 34
0.0
 50
90.0
100
AcDbRotatedDimension
  0
DIMENSION
  5
186
330
140
100
AcDbEntity
  8
Размеры
100
AcDbDimension
280
0
  3
Основной стиль
 10
1820.0
 20
1720.0
 30
0.0
 11
1820.0
 21
1710.0
 31
0.0
 70
32
 71
5
  1
<>
100
AcDbAlignedDimension
 13
1700.0
 23
1720.0
 33
0.0
 14
1700.0
 24
1700.0
 34
0.0
 50
90.0
100
AcDbRotatedDimension
  0
ENDBLK
  5
142
330
140
100
AcDbEntity
  8
0
100
AcDbBlockEnd
  0
BLOCK
  5
188
330
187
100
AcDbEntity
  8
0
100
AcDbBlockBegin
  2
Пример 07 ОК-3.3 2100х2100 3x3 Снаружи #07
 70
2
 10
0.0
 20
0.0
 30
0.0
  3
Пример 07 ОК-3.3 2100х2100 3x3 Снаружи #07
  1

  0
LWPOLYLINE
  5
18A
330
187
100
AcDbEntity
  8
Штриховые
100
AcDbPolyline
 90
4
 70
1
 10
0.0
 20
0.0
 10
2100.0
 20
0.0
 10
2100.0
 20
2100.0
 10
0.0
 20
2100.0
  0
LWPOLYLINE
  5
18B
330
187
100
AcDbEntity
  8
Окна
100
AcDbPolyline
 90
4
 70
1
 10
30.0
 20
60.0
 10
2070.0
 20
60.0
 10
2070.0
 20
2070.0
 10
30.0
 20
2070.0
  0
LWPOLYLINE
  5
18C
330
187
100
AcDbEntity
  8
Окна
100
AcDbPolyline
 90
4
 70
1
 10
90.0
 20
120.0
 10
2010.0
 20
120.0
 10
2010.0
 20
2010.0
 10
90.0
 20
2010.0
  0
LINE
  5
18D
330
187
100
AcDbEntity
  8
Окна
100
AcDbLine
 10
30.0
 20
60.0
 30
0.0
 11
90.0
 21
120.0
 31
0.0
  0
LINE
  5
18E
330
187
100
AcDbEntity
  8
Окна
100
AcDbLine
 10
2070.0
 20
60.0
 30
0.0
 11
2010.0
 21
120.0
 31
0.0
  0
LINE
  5
18F
330
187
100
AcDbEntity
  8
Окна
100
AcDbLine
 10
2070.0
 20
2070.0
 30
0.0
 11
2010.0
 21
2010.0
 31
0.0
  0
LINE
  5
190
330
187
100
AcDbEntity
  8
Окна
100
AcDbLine
 10
30.0
 20
2070.0
 30
0.0
 11
90.0
 21
2010.0
 31
0.0
  0
LWPOLYLINE
  5
191
330
187
100
AcDbEntity
  8
Окна
100
AcDbPolyline
 90
4
 70
1
 10
676.6666666666666
 20
120.0
 10
756.6666666666666
 20
120.0
 10
756.6666666666666
 20
2010.0
 10
676.6666666666666
 20
2010.0
  0
LWPOLYLINE
  5
192
330
187
100
AcDbEntity
  8
Окна
100
AcDbPolyline
 90
4
 70
1
 10
1343.3333333333333
 20
120.0
 10
1423.3333333333333
 20
120.0
 10
1423.3333333333333
 20
2010.0
 10
1343.3333333333333
 20
2010.0
  0
LWPOLYLINE
  5
193
330
187
100
AcDbEntity
  8
Окна
100
AcDbPolyline
 90
4
 70
1
 10
90.0
 20
696.6666666666666
 10
2010.0
 20
696.6666666666666
 10
2010.0
 20
776.6666666666666
 10
90.0
 20
776.6666666666666
  0
LWPOLYLINE
  5
194
330
187
100
AcDbEntity
  8
Окна
100
AcDbPolyline
 90
4
 70
1
 10
90.0
 20
1353.3333333333333
 10
2010.0
 20
1353.3333333333333
 10
2010.0
 20
1433.3333333333333
 10
90.0
 20
1433.3333333333333
  0
LWPOLYLINE
  5
195
330
187
100
AcDbEntity
  8
Окна
100
AcDbPolyline
 90
4
 70
1
 10
30.0
 20
30.0
 10
2070.0
 20
30.0
 10
2070.0
 20
60.0
 10
30.0
 20
60.0
  0
LWPOLYLINE
  5
196
330
187
100
AcDbEntity
  8
Окна
100
AcDbPolyline
 90
4
 70
1
 10
0.0
 20
60.0
 10
30.0
 20
60.0
 10
30.0
 20
2070.0
 10
0.0
 20
2070.0
  0
LWPOLYLINE
  5
197
330
187
100
AcDbEntity
  8
Окна
100
AcDbPolyline
 90
4
 70
1
 10
2070.0
 20
60.0
 10
2100.0
 20
60.0
 10
2100.0
 20
2070.0
 10
2070.0
 20
2070.0
  0
LWPOLYLINE
  5
198
330
187
100
AcDbEntity
  8
Окна
100
AcDbPolyline
 90
4
 70
1
 10
0.0
 20
2070.0
 10
2100.0
 20
2070.0
 10
2100.0
 20
2100.0
 10
0.0
 20
2100.0
  0
LINE
  5
199
330
187
100
AcDbEntity
  8
Окна
100
AcDbLine
 10
155.0
 20
185.0
 30
0.0
 11
611.6666666666666
 21
185.0
 31
0.0
  0
LINE
  5
19A
330
187
100
AcDbEntity
  8
Окна
100
AcDbLine
 10
611.6666666666666
 20
185.0
 30
0.0
 11
611.6666666666666
 21
631.6666666666666
 31
0.0
  0
LINE
  5
19B
330
187
100
AcDbEntity
  8
Окна
100
AcDbLine
 10
611.6666666666666
 20
631.6666666666666
 30
0.0
 11
155.0
 21
631.6666666666666
 31
0.0
  0
LINE
  5
19C
330
187
100
AcDbEntity
  8
Окна
100
AcDbLine
 10
155.0
 20
631.6666666666666
 30
0.0
 11
155.0
 21
185.0
 31
0.0
  0
LINE
  5
19D
330
187
100
AcDbEntity
  8
Окна
100
AcDbLine
 10
90.0
 20
120.0
 30
0.0
 11
155.0
 21
185.0
 31
0.0
  0
LINE
  5
19E
330
187
100
AcDbEntity
  8
Окна
100
AcDbLine
 10
676.6666666666666
 20
120.0
 30
0.0
 11
611.6666666666666
 21
185.0
 31
0.0
  0
LINE
  5
19F
330
187
100
AcDbEntity
  8
Окна
100
AcDbLine
 10
676.6666666666666
 20
696.6666666666666
 30
0.0
 11
611.6666666666666
 21
631.6666666666666
 31
0.0
  0
LINE
  5
1A0
330
187
100
AcDbEntity
  8
Окна
100
AcDbLine
 10
90.0
 20
696.6666666666666
 30
0.0
 11
155.0
 21
631.6666666666666
 31
0.0
  0
LINE
  5
1A1
330
187
100
AcDbEntity
  8
Штриховые
100
AcDbLine
 10
75.0
 20
105.0
 30
0.0
 11
691.6666666666666
 21
408.3333333333333
 31
0.0
  0
LINE
  5
1A2
330
187
100
AcDbEntity
  8
Штриховые
100
AcDbLine
 10
75.0
 20
711.6666666666666
 30
0.0
 11
691.6666666666666
 21
408.3333333333333
 31
0.0
  0
LINE
  5
1A3
330
187
100
AcDbEntity
  8
Окна
100
AcDbLine
 10
1488.3333333333333
 20
185.0
 30
0.0
 11
1945.0
 21
185.0
 31
0.0
  0
LINE
  5
1A4
330
187
100
AcDbEntity
  8
Окна
100
AcDbLine
 10
1945.0
 20
185.0
 30
0.0
 11
1945.0
 21
631.6666666666666
 31
0.0
  0
LINE
  5
1A5
330
187
100
AcDbEntity
  8
Окна
100
AcDbLine
 10
1945.0
 20
631.6666666666666
 30
0.0
 11
1488.3333333333333
 21
631.6666666666666
 31
0.0
  0
LINE
  5
1A6
330
187
100
AcDbEntity
  8
Окна
100
AcDbLine
 10
1488.3333333333333
 20
631.6666666666666
 30
0.0
 11
1488.3333333333333
 21
185.0
 31
0.0
  0
LINE
  5
1A7
330
187
100
AcDbEntity
  8
Окна
100
AcDbLine
 10
1423.3333333333333
 20
120.0
 30
0.0
 11
1488.3333333333333
 21
185.0
 31
0.0
  0
LINE
  5
1A8
330
187
100
AcDbEntity
  8
Окна
100
AcDbLine
 10
2010.0
 20
120.0
 30
0.0
 11
1945.0
 21
185.0
 31
0.0
  0
LINE
  5
1A9
330
187
100
AcDbEntity
  8
Окна
100
AcDbLine
 10
2010.0
 20
696.6666666666666
 30
0.0
 11
1945.0
 21
631.6666666666666
 31
0.0
  0
LINE
  5
1AA
330
187
100
AcDbEntity
  8
Окна
100
AcDbLine
 10
1423.3333333333333
 20
696.6666666666666
 30
0.0
 11
1488.3333333333333
 21
631.6666666666666
 31
0.0
  0
LINE
  5
1AB
330
187
100
AcDbEntity
  8
Штриховые
100
AcDbLine
 10
1408.3333333333333
 20
105.0
 30
0.0
 11
2025.0
 21
408.3333333333333
 31
0.0
  0
LINE
  5
1AC
330
187
100
AcDbEntity
  8
Штриховые
100
AcDbLine
 10
1408.3333333333333
 20
711.6666666666666
 30
0.0
 11
2025.0
 21
408.3333333333333
 31
0.0
  0
LINE
  5
1AD
330
187
100
AcDbEntity
  8
Штриховые
100
AcDbLine
 10
1408.3333333333333
 20
105.0
 30
0.0
 11
1716.6666666666665
 21
711.6666666666666
 31
0.0
  0
LINE
  5
1AE
330
187
100
AcDbEntity
  8
Штриховые
100
AcDbLine
 10
2025.0
 20
105.0
 30
0.0
 11
1716.6666666666665
 21
711.6666666666666
 31
0.0
  0
LINE
  5
1AF
330
187
100
AcDbEntity
  8
Окна
100
AcDbLine
 10
821.6666666666666
 20
841.6666666666666
 30
0.0
 11
1278.3333333333333
 21
841.6666666666666
 31
0.0
  0
LINE
  5
1B0
330
187
100
AcDbEntity
  8
Окна
100
AcDbLine
 10
1278.3333333333333
 20
841.6666666666666
 30
0.0
 11
1278.3333333333333
 21
1288.3333333333333
 31
0.0
  0
LINE
  5
1B1
330
187
100
AcDbEntity
  8
Окна
100
AcDbLine
 10
1278.3333333333333
 20
1288.3333333333333
 30
0.0
 11
821.6666666666666
 21
1288.3333333333333
 31
0.0
  0
LINE
  5
1B2
330
187
100
AcDbEntity
  8
Окна
100
AcDbLine
 10
821.6666666666666
 20
1288.3333333333333
 30
0.0
 11
821.6666666666666
 21
841.6666666666666
 31
0.0
  0
LINE
  5
1B3
330
187
100
AcDbEntity
  8
Окна
100
AcDbLine
 10
756.6666666666666
 20
776.6666666666666
 30
0.0
 11
821.6666666666666
 21
841.6666666666666
 31
0.0
  0
LINE
  5
1B4
330
187
100
AcDbEntity
  8
Окна
100
AcDbLine
 10
1343.3333333333333
 20
776.6666666666666
 30
0.0
 11
1278.3333333333333
 21
841.6666666666666
 31
0.0
  0
LINE
  5
1B5
330
187
100
AcDbEntity
  8
Окна
100
AcDbLine
 10
1343.3333333333333
 20
1353.3333333333333
 30
0.0
 11
1278.3333333333333
 21
1288.3333333333333
 31
0.0
  0
LINE
  5
1B6
330
187
100
AcDbEntity
  8
Окна
100
AcDbLine
 10
756.6666666666666
 20
1353.3333333333333
 30
0.0
 11
821.6666666666666
 21
1288.3333333333333
 31
0.0
  0
LINE
  5
1B7
330
187
100
AcDbEntity
  8
Штриховые
100
AcDbLine
 10
741.6666666666666
 20
761.6666666666666
 30
0.0
 11
1358.3333333333333
 21
1065.0
 31
0.0
  0
LINE
  5
1B8
330
187
100
AcDbEntity
  8
Штриховые
100
AcDbLine
 10
741.6666666666666
 20
1368.3333333333333
 30
0.0
 11
1358.3333333333333
 21
1065.0
 31
0.0
  0
LINE
  5
1B9
330
187
100
AcDbEntity
  8
Штриховые
100
AcDbLine
 10
741.6666666666666
 20
761.6666666666666
 30
0.0
 11
1050.0
 21
1368.3333333333333
 31
0.0
  0
LINE
  5
1BA
330
187
100
AcDbEntity
  8
Штриховые
100
AcDbLine
 10
1358.3333333333333
 20
761.6666666666666
 30
0.0
 11
1050.0
 21
1368.3333333333333
 31
0.0
  0
LINE
  5
1BB
330
187
100
AcDbEntity
  8
Окна
100
AcDbLine
 10
155.0
 20
1498.3333333333333
 30
0.0
 11
611.6666666666666
 21
1498.3333333333333
 31
0.0
  0
LINE
  5
1BC
330
187
100
AcDbEntity
  8
Окна
100
AcDbLine
 10
611.6666666666666
 20
1498.3333333333333
 30
0.0
 11
611.6666666666666
 21
1945.0
 31
0.0
  0
LINE
  5
1BD
330
187
100
AcDbEntity
  8
Окна
100
AcDbLine
 10
611.6666666666666
 20
1945.0
 30
0.0
 11
155.0
 21
1945.0
 31
0.0
  0
LINE
  5
1BE
330
187
100
AcDbEntity
  8
Окна
100
AcDbLine
 10
155.0
 20
1945.0
 30
0.0
 11
155.0
 21
1498.3333333333333
 31
0.0
  0
LINE
  5
1BF
330
187
100
AcDbEntity
  8
Окна
100
AcDbLine
 10
90.0
 20
1433.3333333333333
 30
0.0
 11
155.0
 21
1498.3333333333333
 31
0.0
  0
LINE
  5
1C0
330
187
100
AcDbEntity
  8
Окна
100
AcDbLine
 10
676.6666666666666
 20
1433.3333333333333
 30
0.0
 11
611.6666666666666
 21
1498.3333333333333
 31
0.0
  0
LINE
  5
1C1
330
187
100
AcDbEntity
  8
Окна
100
AcDbLine
 10
676.6666666666666
 20
2010.0
 30
0.0
 11
611.6666666666666
 21
1945.0
 31
0.0
  0
LINE
  5
1C2
330
187
100
AcDbEntity
  8
Окна
100
AcDbLine
 10
90.0
 20
2010.0
 30
0.0
 11
155.0
 21
1945.0
 31
0.0
  0
LINE
  5
1C3
330
187
100
AcDbEntity
  8
Штриховые
100
AcDbLine
 10
75.0
 20
1418.3333333333333
 30
0.0
 11
383.3333333333333
 21
2025.0
 31
0.0
  0
LINE
  5
1C4
330
187
100
AcDbEntity
  8
Штриховые
100
AcDbLine
 10
691.6666666666666
 20
1418.3333333333333
 30
0.0
 11
383.3333333333333
 21
2025.0
 31
0.0
  0
LINE
  5
1C5
330
187
100
AcDbEntity
  8
Окна
100
AcDbLine
 10
1488.3333333333333
 20
1498.3333333333333
 30
0.0
 11
1945.0
 21
1498.3333333333333
 31
0.0
  0
LINE
  5
1C6
330
187
100
AcDbEntity
  8
Окна
100
AcDbLine
 10
1945.0
 20
1498.3333333333333
 30
0.0
 11
1945.0
 21
1945.0
 31
0.0
  0
LINE
  5
1C7
330
187
100
AcDbEntity
  8
Окна
100
AcDbLine
 10
1945.0
 20
1945.0
 30
0.0
 11
1488.3333333333333
 21
1945.0
 31
0.0
  0
LINE
  5
1C8
330
187
100
AcDbEntity
  8
Окна
100
AcDbLine
 10
1488.3333333333333
 20
1945.0
 30
0.0
 11
1488.3333333333333
 21
1498.3333333333333
 31
0.0
  0
LINE
  5
1C9
330
187
100
AcDbEntity
  8
Окна
100
AcDbLine
 10
1423.3333333333333
 20
1433.3333333333333
 30
0.0
 11
1488.3333333333333
 21
1498.3333333333333
 31
0.0
  0
LINE
  5
1CA
330
187
100
AcDbEntity
  8
Окна
100
AcDbLine
 10
2010.0
 20
1433.3333333333333
 30
0.0
 11
1945.0
 21
1498.3333333333333
 31
0.0
  0
LINE
  5
1CB
330
187
100
AcDbEntity
  8
Окна
100
AcDbLine
 10
2010.0
 20
2010.0
 30
0.0
 11
1945.0
 21
1945.0
 31
0.0
  0
LINE
  5
1CC
330
187
100
AcDbEntity
  8
Окна
100
AcDbLine
 10
1423.3333333333333
 20
2010.0
 30
0.0
 11
1488.3333333333333
 21
1945.0
 31
0.0
  0
LINE
  5
1CD
330
187
100
AcDbEntity
  8
Штриховые
100
AcDbLine
 10
1408.3333333333333
 20
1418.3333333333333
 30
0.0
 11
2025.0
 21
1721.6666666666665
 31
0.0
  0
LINE
  5
1CE
330
187
100
AcDbEntity
  8
Штриховые
100
AcDbLine
 10
1408.3333333333333
 20
2025.0
 30
0.0
 11
2025.0
 21
1721.6666666666665
 31
0.0
  0
ATTDEF
  5
1CF
330
187
100
AcDbEntity
  8
Текст
100
AcDbText
 10
0.0
 20
2410.0
 30
0.0
 40
30.0
  1
Пример 07
  7
Основной стиль
100
AcDbAttributeDefinition
  3
Объект
  2
OBJECT
 70
0
  0
ATTDEF
  5
1D0
330
187
100
AcDbEntity
  8
Текст
100
AcDbText
 10
0.0
 20
2360.0
 30
0.0
 40
30.0
  1
ОК-3.3/1 шт.
  7
Основной стиль
100
AcDbAttributeDefinition
  3
Окно / кол-во
  2
WINDOW
 70
0
  0
ATTDEF
  5
1D1
330
187
100
AcDbEntity
  8
Текст
100
AcDbText
 10
0.0
 20
2310.0
 30
0.0
 40
30.0
  1
RAL8017/RAL9016
  7
Основной стиль
100
AcDbAttributeDefinition
  3
Цвет
  2
COLOR
 70
0
  0
ATTDEF
  5
1D2
330
187
100
AcDbEntity
  8
Текст
100
AcDbText
 10
0.0
 20
2260.0
 30
0.0
 40
30.0
  1
Заполнение СПД42
  7
Основной стиль
100
AcDbAttributeDefinition
  3
Заполнение
  2
GLAZING
 70
0
  0
ATTDEF
  5
1D3
330
187
100
AcDbEntity
  8
Текст
100
AcDbText
 10
0.0
 20
2210.0
 30
0.0
 40
30.0
  1
2100х2100
  7
Основной стиль
100
AcDbAttributeDefinition
  3
Габарит
  2
SIZE
 70
0
  0
ATTDEF
  5
1D4
330
187
100
AcDbEntity
  8
Текст
100
AcDbText
 10
0.0
 20
2160.0
 30
0.0
 40
30.0
  1
3х3
  7
Основной стиль
100
AcDbAttributeDefinition
  3
Сетка
  2
GRID
 70
0
  0
TEXT
  5
1D5
330
187
100
AcDbEntity
  8
Текст
100
AcDbText
 10
2100.0
 20
2160.0
 30
0.0
 40
30.0
  1
S=4.41 м²
  7
Основной стиль
 72
2
 11
2100.0
 21
2160.0
 31
0.0
100
AcDbText
 73
3
  0
DIMENSION
  5
1D6
330
187
100
AcDbEntity
  8
Размеры
100
AcDbDimension
280
0
  3
Основной стиль
 10
30.0
 20
-60.0
 30
0.0
 11
373.3333333333333
 21
-60.0
 31
0.0
 70
32
 71
5
  1
<>
100
AcDbAlignedDimension
 13
30.0
 23
30.0
 33
0.0
 14
716.6666666666666
 24
30.0
 34
0.0
 50
0.0
100
AcDbRotatedDimension
  0
DIMENSION
  5
1D7
330
187
100
AcDbEntity
  8
Размеры
100
AcDbDimension
280
0
  3
Основной стиль
 10
716.6666666666666
 20
-60.0
 30
0.0
 11
1050.0
 21
-60.0
 31
0.0
 70
32
 71
5
  1
<>
100
AcDbAlignedDimension
 13
716.6666666666666
 23
30.0
 33
0.0
 14
1383.3333333333333
 24
30.0
 34
0.0
 50
0.0
100
AcDbRotatedDimension
  0
DIMENSION
  5
1D8
330
187
100
AcDbEntity
  8
Размеры
100
AcDbDimension
280
0
  3
Основной стиль
 10
1383.3333333333333
 20
-60.0
 30
0.0
 11
1726.6666666666665
 21
-60.0
 31
0.0
 70
32
 71
5
  1
<>
100
AcDbAlignedDimension
 13
1383.3333333333333
 23
30.0
 33
0.0
 14
2070.0
 24
30.0
 34
0.0
 50
0.0
100
AcDbRotatedDimension
  0
DIMENSION
  5
1D9
330
187
100
AcDbEntity
  8
Размеры
100
AcDbDimension
280
0
  3
Основной стиль
 10
0.0
 20
-120.0
 30
0.0
 11
1050.0
 21
-120.0
 31
0.0
 70
32
 71
5
  1
<>
100
AcDbAlignedDimension
 13
0.0
 23
30.0
 33
0.0
 14
2100.0
 24
30.0
 34
0.0
 50
0.0
100
AcDbRotatedDimension
  0
DIMENSION
  5
1DA
330
187
100
AcDbEntity
  8
Размеры
100
AcDbDimension
280
0
  3
Основной стиль
 10
0.0
 20
-180.0
 30
0.0
 11
1050.0
 21
-180.0
 31
0.0
 70
32
 71
5
  1
<>
100
AcDbAlignedDimension
 13
0.0
 23
0.0
 33
0.0
 14
2100.0
 24
0.0
 34
0.0
 50
0.0
100
AcDbRotatedDimension
  0
DIMENSION
  5
1DB
330
187
100
AcDbEntity
  8
Размеры
100
AcDbDimension
280
0
  3
Основной стиль
 10
0.0
 20
-60.0
 30
0.0
 11
15.0
 21
-60.0
 31
0.0
 70
32
 71
5
  1
<>
100
AcDbAlignedDimension
 13
0.0
 23
30.0
 33
0.0
 14
30.0
 24
30.0
 34
0.0
 50
0.0
100
AcDbRotatedDimension
  0
DIMENSION
  5
1DC
330
187
100
AcDbEntity
  8
Размеры
100
AcDbDimension
280
0
  3
Основной стиль
 10
2070.0
 20
-60.0
 30
0.0
 11
2085.0
 21
-60.0
 31
0.0
 70
32
 71
5
  1
<>
100
AcDbAlignedDimension
 13
2070.0
 23
30.0
 33
0.0
 14
2100.0
 24
30.0
 34
0.0
 50
0.0
100
AcDbRotatedDimension
  0
DIMENSION
  5
1DD
330
187
100
AcDbEntity
  8
Размеры
100
AcDbDimension
280
0
  3
Основной стиль
 10
2160.0
 20
60.0
 30
0.0
 11
2160.0
 21
398.3333333333333
 31
0.0
 70
32
 71
5
  1
<>
100
AcDbAlignedDimension
 13
2100.0
 23
60.0
 33
0.0
 14
2100.0
 24
736.6666666666666
 34
0.0
 50
90.0
100
AcDbRotatedDimension
  0
DIMENSION
  5
1DE
330
187
100
AcDbEntity
  8
Размеры
100
AcDbDimension
280
0
  3
Основной стиль
 10
2160.0
 20
736.6666666666666
 30
0.0
 11
2160.0
 21
1065.0
 31
0.0
 70
32
 71
5
  1
<>
100
AcDbAlignedDimension
 13
2100.0
 23
736.6666666666666
 33
0.0
 14
2100.0
 24
1393.3333333333333
 34
0.0
 50
90.0
100
AcDbRotatedDimension
  0
DIMENSION
  5
1DF
330
187
100
AcDbEntity
  8
Размеры
100
AcDbDimension
280
0
  3
Основной стиль
 10
2160.0
 20
1393.3333333333333
 30
0.0
 11
2160.0
 21
1731.6666666666665
 31
0.0
 70
32
 71
5
  1
<>
100
AcDbAlignedDimension
 13
2100.0
 23
1393.3333333333333
 33
0.0
 14
2100.0
 24
2070.0
 34
0.0
 50
90.0
100
AcDbRotatedDimension
  0
DIMENSION
  5
1E0
330
187
100
AcDbEntity
  8
Размеры
100
AcDbDimension
280
0
  3
Основной стиль
 10
2220.0
 20
60.0
 30
0.0
 11
2220.0
 21
1065.0
 31
0.0
 70
32
 71
5
  1
<>
100
AcDbAlignedDimension
 13
2100.0
 23
60.0
 33
0.0
 14
2100.0
 24
2070.0
 34
0.0
 50
90.0
100
AcDbRotatedDimension
  0
DIMENSION
  5
1E1
330
187
100
AcDbEntity
  8
Размеры
100
AcDbDimension
280
0
  3
Основной стиль
 10
2220.0
 20
30.0
 30
0.0
 11
2220.0
 21
45.0
 31
0.0
 70
32
 71
5
  1
<>
100
AcDbAlignedDimension
 13
2100.0
 23
30.0
 33
0.0
 14
2100.0
 24
60.0
 34
0.0
 50
90.0
100
AcDbRotatedDimension
  0
DIMENSION
  5
1E2
330
187
100
AcDbEntity
  8
Размеры
100
AcDbDimension
280
0
  3
Основной стиль
 10
2220.0
 20
2070.0
 30
0.0
 11
2220.0
 21
2085.0
 31
0.0
 70
32
 71
5
  1
<>
100
AcDbAlignedDimension
 13
2100.0
 23
2070.0
 33
0.0
 14
2100.0
 24
2100.0
 34
0.0
 50
90.0
100
AcDbRotatedDimension
  0
DIMENSION
  5
1E3
330
187
100
AcDbEntity
  8
Размеры
100
AcDbDimension
280
0
  3
Основной стиль
 10
2280.0
 20
0.0
 30
0.0
 11
2280.0
 21
1050.0
 31
0.0
 70
32
 71
5
  1
<>
100
AcDbAlignedDimension
 13
2100.0
 23
0.0
 33
0.0
 14
2100.0
 24
2100.0
 34
0.0
 50
90.0
100
AcDbRotatedDimension
  0
DIMENSION
  5
1E4
330
187
100
AcDbEntity
  8
Размеры
100
AcDbDimension
280
0
  3
Основной стиль
 10
2220.0
 20
0.0
 30
0.0
 11
2220.0
 21
15.0
 31
0.0
 70
32
 71
5
  1
<>
100
AcDbAlignedDimension
 13
2100.0
 23
0.0
 33
0.0
 14
2100.0
 24
30.0
 34
0.0
 50
90.0
100
AcDbRotatedDimension
  0
ENDBLK
  5
189
330
187
100
AcDbEntity
  8
0
100
AcDbBlockEnd
  0
BLOCK
  5
1E6
330
1E5
100
AcDbEntity
  8
0
100
AcDbBlockBegin
  2
Пример 08 ОК-4.3 2400х1800 4x3 Снаружи #08
 70
2
 10
0.0
 20
0.0
 30
0.0
  3
Пример 08 ОК-4.3 2400х1800 4x3 Снаружи #08
  1

  0
LWPOLYLINE
  5
1E8
330
1E5
100
AcDbEntity
  8
Штриховые
100
AcDbPolyline
 90
4
 70
1
 10
0.0
 20
0.0
 10
2400.0
 20
0.0
 10
2400.0
 20
1800.0
 10
0.0
 20
1800.0
  0
LWPOLYLINE
  5
1E9
330
1E5
100
AcDbEntity
  8
Окна
100
AcDbPolyline
 90
4
 70
1
 10
30.0
 20
60.0
 10
2370.0
 20
60.0
 10
2370.0
 20
1770.0
 10
30.0
 20
1770.0
  0
LWPOLYLINE
  5
1EA
330
1E5
100
AcDbEntity
  8
Окна
100
AcDbPolyline
 90
4
 70
1
 10
90.0
 20
120.0
 10
2310.0
 20
120.0
 10
2310.0
 20
1710.0
 10
90.0
 20
1710.0
  0
LINE
  5
1EB
330
1E5
100
AcDbEntity
  8
Окна
100
AcDbLine
 10
30.0
 20
60.0
 30
0.0
 11
90.0
 21
120.0
 31
0.0
  0
LINE
  5
1EC
330
1E5
100
AcDbEntity
  8
Окна
100
AcDbLine
 10
2370.0
 20
60.0
 30
0.0
 11
2310.0
 21
120.0
 31
0.0
  0
LINE
  5
1ED
330
1E5
100
AcDbEntity
  8
Окна
100
AcDbLine
 10
2370.0
 20
1770.0
 30
0.0
 11
2310.0
 21
1710.0
 31
0.0
  0
LINE
  5
1EE
330
1E5
100
AcDbEntity
  8
Окна
100
AcDbLine
 10
30.0
 20
1770.0
 30
0.0
 11
90.0
 21
1710.0
 31
0.0
  0
LWPOLYLINE
  5
1EF
330
1E5
100
AcDbEntity
  8
Окна
100
AcDbPolyline
 90
4
 70
1
 10
585.0
 20
120.0
 10
665.0
 20
120.0
 10
665.0
 20
1710.0
 10
585.0
 20
1710.0
  0
LWPOLYLINE
  5
1F0
330
1E5
100
AcDbEntity
  8
Окна
100
AcDbPolyline
 90
4
 70
1
 10
1160.0
 20
120.0
 10
1240.0
 20
120.0
 10
1240.0
 20
1710.0
 10
1160.0
 20
1710.0
  0
LWPOLYLINE
  5
1F1
330
1E5
100
AcDbEntity
  8
Окна
100
AcDbPolyline
 90
4
 70
1
 10
1735.0
 20
120.0
 10
1815.0
 20
120.0
 10
1815.0
 20
1710.0
 10
1735.0
 20
1710.0
  0
LWPOLYLINE
  5
1F2
330
1E5
100
AcDbEntity
  8
Окна
100
AcDbPolyline
 90
4
 70
1
 10
90.0
 20
596.6666666666667
 10
2310.0
 20
596.6666666666667
 10
2310.0
 20
676.6666666666667
 10
90.0
 20
676.6666666666667
  0
LWPOLYLINE
  5
1F3
330
1E5
100
AcDbEntity
  8
Окна
100
AcDbPolyline
 90
4
 70
1
 10
90.0
 20
1153.3333333333335
 10
2310.0
 20
1153.3333333333335
 10
2310.0
 20
1233.3333333333335
 10
90.0
 20
1233.3333333333335
  0
LWPOLYLINE
  5
1F4
330
1E5
100
AcDbEntity
  8
Окна
100
AcDbPolyline
 90
4
 70
1
 10
30.0
 20
30.0
 10
2370.0
 20
30.0
 10
2370.0
 20
60.0
 10
30.0
 20
60.0
  0
LINE
  5
1F5
330
1E5
100
AcDbEntity
  8
Окна
100
AcDbLine
 10
155.0
 20
185.0
 30
0.0
 11
520.0
 21
185.0
 31
0.0
  0
LINE
  5
1F6
330
1E5
100
AcDbEntity
  8
Окна
100
AcDbLine
 10
520.0
 20
185.0
 30
0.0
 11
520.0
 21
531.6666666666667
 31
0.0
  0
LINE
  5
1F7
330
1E5
100
AcDbEntity
  8
Окна
100
AcDbLine
 10
520.0
 20
531.6666666666667
 30
0.0
 11
155.0
 21
531.6666666666667
 31
0.0
  0
LINE
  5
1F8
330
1E5
100
AcDbEntity
  8
Окна
100
AcDbLine
 10
155.0
 20
531.6666666666667
 30
0.0
 11
155.0
 21
185.0
 31
0.0
  0
LINE
  5
1F9
330
1E5
100
AcDbEntity
  8
Окна
100
AcDbLine
 10
90.0
 20
120.0
 30
0.0
 11
155.0
 21
185.0
 31
0.0
  0
LINE
  5
1FA
330
1E5
100
AcDbEntity
  8
Окна
100
AcDbLine
 10
585.0
 20
120.0
 30
0.0
 11
520.0
 21
185.0
 31
0.0
  0
LINE
  5
1FB
330
1E5
100
AcDbEntity
  8
Окна
100
AcDbLine
 10
585.0
 20
596.6666666666667
 30
0.0
 11
520.0
 21
531.6666666666667
 31
0.0
  0
LINE
  5
1FC
330
1E5
100
AcDbEntity
  8
Окна
100
AcDbLine
 10
90.0
 20
596.6666666666667
 30
0.0
 11
155.0
 21
531.6666666666667
 31
0.0
  0
LINE
  5
1FD
330
1E5
100
AcDbEntity
  8
Штриховые
100
AcDbLine
 10
75.0
 20
105.0
 30
0.0
 11
600.0
 21
358.33333333333337
 31
0.0
  0
LINE
  5
1FE
330
1E5
100
AcDbEntity
  8
Штриховые
100
AcDbLine
 10
75.0
 20
611.6666666666667
 30
0.0
 11
600.0
 21
358.33333333333337
 31
0.0
  0
LINE
  5
1FF
330
1E5
100
AcDbEntity
  8
Штриховые
100
AcDbLine
 10
75.0
 20
105.0
 30
0.0
 11
337.5
 21
611.6666666666667
 31
0.0
  0
LINE
  5
200
330
1E5
100
AcDbEntity
  8
Штриховые
100
AcDbLine
 10
600.0
 20
105.0
 30
0.0
 11
337.5
 21
611.6666666666667
 31
0.0
  0
LINE
  5
201
330
1E5
100
AcDbEntity
  8
Окна
100
AcDbLine
 10
1305.0
 20
185.0
 30
0.0
 11
1670.0
 21
185.0
 31
0.0
  0
LINE
  5
202
330
1E5
100
AcDbEntity
  8
Окна
100
AcDbLine
 10
1670.0
 20
185.0
 30
0.0
 11
1670.0
 21
531.6666666666667
 31
0.0
  0
LINE
  5
203
330
1E5
100
AcDbEntity
  8
Окна
100
AcDbLine
 10
1670.0
 20
531.6666666666667
 30
0.0
 11
1305.0
 21
531.6666666666667
 31
0.0
  0
LINE
  5
204
330
1E5
100
AcDbEntity
  8
Окна
100
AcDbLine
 10
1305.0
 20
531.6666666666667
 30
0.0
 11
1305.0
 21
185.0
 31
0.0
  0
LINE
  5
205
330
1E5
100
AcDbEntity
  8
Окна
100
AcDbLine
 10
1240.0
 20
120.0
 30
0.0
 11
1305.0
 21
185.0
 31
0.0
  0
LINE
  5
206
330
1E5
100
AcDbEntity
  8
Окна
100
AcDbLine
 10
1735.0
 20
120.0
 30
0.0
 11
1670.0
 21
185.0
 31
0.0
  0
LINE
  5
207
330
1E5
100
AcDbEntity
  8
Окна
100
AcDbLine
 10
1735.0
 20
596.6666666666667
 30
0.0
 11
1670.0
 21
531.6666666666667
 31
0.0
  0
LINE
  5
208
330
1E5
100
AcDbEntity
  8
Окна
100
AcDbLine
 10
1240.0
 20
596.6666666666667
 30
0.0
 11
1305.0
 21
531.6666666666667
 31
0.0
  0
LINE
  5
209
330
1E5
100
AcDbEntity
  8
Штриховые
100
AcDbLine
 10
1225.0
 20
105.0
 30
0.0
 11
1750.0
 21
358.33333333333337
 31
0.0
  0
LINE
  5
20A
330
1E5
100
AcDbEntity
  8
Штриховые
100
AcDbLine
 10
1225.0
 20
611.6666666666667
 30
0.0
 11
1750.0
 21
358.33333333333337
 31
0.0
  0
LINE
  5
20B
330
1E5
100
AcDbEntity
  8
Штриховые
100
AcDbLine
 10
1225.0
 20
105.0
 30
0.0
 11
1487.5
 21
611.6666666666667
 31
0.0
  0
LINE
  5
20C
330
1E5
100
AcDbEntity
  8
Штриховые
100
AcDbLine
 10
1750.0
 20
105.0
 30
0.0
 11
1487.5
 21
611.6666666666667
 31
0.0
  0
LINE
  5
20D
330
1E5
100
AcDbEntity
  8
Окна
100
AcDbLine
 10
1880.0
 20
185.0
 30
0.0
 11
2245.0
 21
185.0
 31
0.0
  0
LINE
  5
20E
330
1E5
100
AcDbEntity
  8
Окна
100
AcDbLine
 10
2245.0
 20
185.0
 30
0.0
 11
2245.0
 21
531.6666666666667
 31
0.0
  0
LINE
  5
20F
330
1E5
100
AcDbEntity
  8
Окна
100
AcDbLine
 10
2245.0
 20
531.6666666666667
 30
0.0
 11
1880.0
 21
531.6666666666667
 31
0.0
  0
LINE
  5
210
330
1E5
100
AcDbEntity
  8
Окна
100
AcDbLine
 10
1880.0
 20
531.6666666666667
 30
0.0
 11
1880.0
 21
185.0
 31
0.0
  0
LINE
  5
211
330
1E5
100
AcDbEntity
  8
Окна
100
AcDbLine
 10
1815.0
 20
120.0
 30
0.0
 11
1880.0
 21
185.0
 31
0.0
  0
LINE
  5
212
330
1E5
100
AcDbEntity
  8
Окна
100
AcDbLine
 10
2310.0
 20
120.0
 30
0.0
 11
2245.0
 21
185.0
 31
0.0
  0
LINE
  5
213
330
1E5
100
AcDbEntity
  8
Окна
100
AcDbLine
 10
2310.0
 20
596.6666666666667
 30
0.0
 11
2245.0
 21
531.6666666666667
 31
0.0
  0
LINE
  5
214
330
1E5
100
AcDbEntity
  8
Окна
100
AcDbLine
 10
1815.0
 20
596.6666666666667
 30
0.0
 11
1880.0
 21
531.6666666666667
 31
0.0
  0
LINE
  5
215
330
1E5
100
AcDbEntity
  8
Штриховые
100
AcDbLine
 10
1800.0
 20
105.0
 30
0.0
 11
2325.0
 21
358.33333333333337
 31
0.0
  0
LINE
  5
216
330
1E5
100
AcDbEntity
  8
Штриховые
100
AcDbLine
 10
1800.0
 20
611.6666666666667
 30
0.0
 11
2325.0
 21
358.33333333333337
 31
0.0
  0
LINE
  5
217
330
1E5
100
AcDbEntity
  8
Штриховые
100
AcDbLine
 10
1800.0
 20
105.0
 30
0.0
 11
2062.5
 21
611.6666666666667
 31
0.0
  0
LINE
  5
218
330
1E5
100
AcDbEntity
  8
Штриховые
100
AcDbLine
 10
2325.0
 20
105.0
 30
0.0
 11
2062.5
 21
611.6666666666667
 31
0.0
  0
LINE
  5
219
330
1E5
100
AcDbEntity
  8
Окна
100
AcDbLine
 10
730.0
 20
741.6666666666667
 30
0.0
 11
1095.0
 21
741.6666666666667
 31
0.0
  0
LINE
  5
21A
330
1E5
100
AcDbEntity
  8
Окна
100
AcDbLine
 10
1095.0
 20
741.6666666666667
 30
0.0
 11
1095.0
 21
1088.3333333333335
 31
0.0
  0
LINE
  5
21B
330
1E5
100
AcDbEntity
  8
Окна
100
AcDbLine
 10
1095.0
 20
1088.3333333333335
 30
0.0
 11
730.0
 21
1088.3333333333335
 31
0.0
  0
LINE
  5
21C
330
1E5
100
AcDbEntity
  8
Окна
100
AcDbLine
 10
730.0
 20
1088.3333333333335
 30
0.0
 11
730.0
 21
741.6666666666667
 31
0.0
  0
LINE
  5
21D
330
1E5
100
AcDbEntity
  8
Окна
100
AcDbLine
 10
665.0
 20
676.6666666666667
 30
0.0
 11
730.0
 21
741.6666666666667
 31
0.0
  0
LINE
  5
21E
330
1E5
100
AcDbEntity
  8
Окна
100
AcDbLine
 10
1160.0
 20
676.6666666666667
 30
0.0
 11
1095.0
 21
741.6666666666667
 31
0.0
  0
LINE
  5
21F
330
1E5
100
AcDbEntity
  8
Окна
100
AcDbLine
 10
1160.0
 20
1153.3333333333335
 30
0.0
 11
1095.0
 21
1088.3333333333335
 31
0.0
  0
LINE
  5
220
330
1E5
100
AcDbEntity
  8
Окна
100
AcDbLine
 10
665.0
 20
1153.3333333333335
 30
0.0
 11
730.0
 21
1088.3333333333335
 31
0.0
  0
LINE
  5
221
330
1E5
100
AcDbEntity
  8
Штриховые
100
AcDbLine
 10
650.0
 20
661.6666666666667
 30
0.0
 11
1175.0
 21
915.0000000000001
 31
0.0
  0
LINE
  5
222
330
1E5
100
AcDbEntity
  8
Штриховые
100
AcDbLine
 10
650.0
 20
1168.3333333333335
 30
0.0
 11
1175.0
 21
915.0000000000001
 31
0.0
  0
LINE
  5
223
330
1E5
100
AcDbEntity
  8
Штриховые
100
AcDbLine
 10
650.0
 20
661.6666666666667
 30
0.0
 11
912.5
 21
1168.3333333333335
 31
0.0
  0
LINE
  5
224
330
1E5
100
AcDbEntity
  8
Штриховые
100
AcDbLine
 10
1175.0
 20
661.6666666666667
 30
0.0
 11
912.5
 21
1168.3333333333335
 31
0.0
  0
LINE
  5
225
330
1E5
100
AcDbEntity
  8
Окна
100
AcDbLine
 10
1305.0
 20
741.6666666666667
 30
0.0
 11
1670.0
 21
741.6666666666667
 31
0.0
  0
LINE
  5
226
330
1E5
100
AcDbEntity
  8
Окна
100
AcDbLine
 10
1670.0
 20
741.6666666666667
 30
0.0
 11
1670.0
 21
1088.3333333333335
 31
0.0
  0
LINE
  5
227
330
1E5
100
AcDbEntity
  8
Окна
100
AcDbLine
 10
1670.0
 20
1088.3333333333335
 30
0.0
 11
1305.0
 21
1088.3333333333335
 31
0.0
  0
LINE
  5
228
330
1E5
100
AcDbEntity
  8
Окна
100
AcDbLine
 10
1305.0
 20
1088.3333333333335
 30
0.0
 11
1305.0
 21
741.6666666666667
 31
0.0
  0
LINE
  5
229
330
1E5
100
AcDbEntity
  8
Окна
100
AcDbLine
 10
1240.0
 20
676.6666666666667
 30
0.0
 11
1305.0
 21
741.6666666666667
 31
0.0
  0
LINE
  5
22A
330
1E5
100
AcDbEntity
  8
Окна
100
AcDbLine
 10
1735.0
 20
676.6666666666667
 30
0.0
 11
1670.0
 21
741.6666666666667
 31
0.0
  0
LINE
  5
22B
330
1E5
100
AcDbEntity
  8
Окна
100
AcDbLine
 10
1735.0
 20
1153.3333333333335
 30
0.0
 11
1670.0
 21
1088.3333333333335
 31
0.0
  0
LINE
  5
22C
330
1E5
100
AcDbEntity
  8
Окна
100
AcDbLine
 10
1240.0
 20
1153.3333333333335
 30
0.0
 11
1305.0
 21
1088.3333333333335
 31
0.0
  0
LINE
  5
22D
330
1E5
100
AcDbEntity
  8
Штриховые
100
AcDbLine
 10
1225.0
 20
661.6666666666667
 30
0.0
 11
1750.0
 21
915.0000000000001
 31
0.0
  0
LINE
  5
22E
330
1E5
100
AcDbEntity
  8
Штриховые
100
AcDbLine
 10
1225.0
 20
1168.3333333333335
 30
0.0
 11
1750.0
 21
915.0000000000001
 31
0.0
  0
LINE
  5
22F
330
1E5
100
AcDbEntity
  8
Штриховые
100
AcDbLine
 10
1225.0
 20
661.6666666666667
 30
0.0
 11
1487.5
 21
1168.3333333333335
 31
0.0
  0
LINE
  5
230
330
1E5
100
AcDbEntity
  8
Штриховые
100
AcDbLine
 10
1750.0
 20
661.6666666666667
 30
0.0
 11
1487.5
 21
1168.3333333333335
 31
0.0
  0
LINE
  5
231
330
1E5
100
AcDbEntity
  8
Окна
100
AcDbLine
 10
155.0
 20
1298.3333333333335
 30
0.0
 11
520.0
 21
1298.3333333333335
 31
0.0
  0
LINE
  5
232
330
1E5
100
AcDbEntity
  8
Окна
100
AcDbLine
 10
520.0
 20
1298.3333333333335
 30
0.0
 11
520.0
 21
1645.0000000000002
 31
0.0
  0
LINE
  5
233
330
1E5
100
AcDbEntity
  8
Окна
100
AcDbLine
 10
520.0
 20
1645.0000000000002
 30
0.0
 11
155.0
 21
1645.0000000000002
 31
0.0
  0
LINE
  5
234
330
1E5
100
AcDbEntity
  8
Окна
100
AcDbLine
 10
155.0
 20
1645.0000000000002
 30
0.0
 11
155.0
 21
1298.3333333333335
 31
0.0
  0
LINE
  5
235
330
1E5
100
AcDbEntity
  8
Окна
100
AcDbLine
 10
90.0
 20
1233.3333333333335
 30
0.0
 11
155.0
 21
1298.3333333333335
 31
0.0
  0
LINE
  5
236
330
1E5
100
AcDbEntity
  8
Окна
100
AcDbLine
 10
585.0
 20
1233.3333333333335
 30
0.0
 11
520.0
 21
1298.3333333333335
 31
0.0
  0
LINE
  5
237
330
1E5
100
AcDbEntity
  8
Окна
100
AcDbLine
 10
585.0
 20
1710.0000000000002
 30
0.0
 11
520.0
 21
1645.0000000000002
 31
0.0
  0
LINE
  5
238
330
1E5
100
AcDbEntity
  8
Окна
100
AcDbLine
 10
90.0
 20
1710.0000000000002
 30
0.0
 11
155.0
 21
1645.0000000000002
 31
0.0
  0
LINE
  5
239
330
1E5
100
AcDbEntity
  8
Штриховые
100
AcDbLine
 10
75.0
 20
1218.3333333333335
 30
0.0
 11
600.0
 21
1471.666666666667
 31
0.0
  0
LINE
  5
23A
330
1E5
100
AcDbEntity
  8
Штриховые
100
AcDbLine
 10
75.0
 20
1725.0000000000002
 30
0.0
 11
600.0
 21
1471.666666666667
 31
0.0
  0
LINE
  5
23B
330
1E5
100
AcDbEntity
  8
Штриховые
100
AcDbLine
 10
75.0
 20
1218.3333333333335
 30
0.0
 11
337.5
 21
1725.0000000000002
 31
0.0
  0
LINE
  5
23C
330
1E5
100
AcDbEntity
  8
Штриховые
100
AcDbLine
 10
600.0
 20
1218.3333333333335
 30
0.0
 11
337.5
 21
1725.0000000000002
 31
0.0
  0
LINE
  5
23D
330
1E5
100
AcDbEntity
  8
Окна
100
AcDbLine
 10
730.0
 20
1298.3333333333335
 30
0.0
 11
1095.0
 21
1298.3333333333335
 31
0.0
  0
LINE
  5
23E
330
1E5
100
AcDbEntity
  8
Окна
100
AcDbLine
 10
1095.0
 20
1298.3333333333335
 30
0.0
 11
1095.0
 21
1645.0000000000002
 31
0.0
  0
LINE
  5
23F
330
1E5
100
AcDbEntity
  8
Окна
100
AcDbLine
 10
1095.0
 20
1645.0000000000002
 30
0.0
 11
730.0
 21
1645.0000000000002
 31
0.0
  0
LINE
  5
240
330
1E5
100
AcDbEntity
  8
Окна
100
AcDbLine
 10
730.0
 20
1645.0000000000002
 30
0.0
 11
730.0
 21
1298.3333333333335
 31
0.0
  0
LINE
  5
241
330
1E5
100
AcDbEntity
  8
Окна
100
AcDbLine
 10
665.0
 20
1233.3333333333335
 30
0.0
 11
730.0
 21
1298.3333333333335
 31
0.0
  0
LINE
  5
242
330
1E5
100
AcDbEntity
  8
Окна
100
AcDbLine
 10
1160.0
 20
1233.3333333333335
 30
0.0
 11
1095.0
 21
1298.3333333333335
 31
0.0
  0
LINE
  5
243
330
1E5
100
AcDbEntity
  8
Окна
100
AcDbLine
 10
1160.0
 20
1710.0000000000002
 30
0.0
 11
1095.0
 21
1645.0000000000002
 31
0.0
  0
LINE
  5
244
330
1E5
100
AcDbEntity
  8
Окна
100
AcDbLine
 10
665.0
 20
1710.0000000000002
 30
0.0
 11
730.0
 21
1645.0000000000002
 31
0.0
  0
LINE
  5
245
330
1E5
100
AcDbEntity
  8
Штриховые
100
AcDbLine
 10
650.0
 20
1218.3333333333335
 30
0.0
 11
1175.0
 21
1471.666666666667
 31
0.0
  0
LINE
  5
246
330
1E5
100
AcDbEntity
  8
Штриховые
100
AcDbLine
 10
650.0
 20
1725.0000000000002
 30
0.0
 11
1175.0
 21
1471.666666666667
 31
0.0
  0
LINE
  5
247
330
1E5
100
AcDbEntity
  8
Штриховые
100
AcDbLine
 10
650.0
 20
1218.3333333333335
 30
0.0
 11
912.5
 21
1725.0000000000002
 31
0.0
  0
LINE
  5
248
330
1E5
100
AcDbEntity
  8
Штриховые
100
AcDbLine
 10
1175.0
 20
1218.3333333333335
 30
0.0
 11
912.5
 21
1725.0000000000002
 31
0.0
  0
LINE
  5
249
330
1E5
100
AcDbEntity
  8
Окна
100
AcDbLine
 10
1880.0
 20
1298.3333333333335
 30
0.0
 11
2245.0
 21
1298.3333333333335
 31
0.0
  0
LINE
  5
24A
330
1E5
100
AcDbEntity
  8
Окна
100
AcDbLine
 10
2245.0
 20
1298.3333333333335
 30
0.0
 11
2245.0
 21
1645.0000000000002
 31
0.0
  0
LINE
  5
24B
330
1E5
100
AcDbEntity
  8
Окна
100
AcDbLine
 10
2245.0
 20
1645.0000000000002
 30
0.0
 11
1880.0
 21
1645.0000000000002
 31
0.0
  0
LINE
  5
24C
330
1E5
100
AcDbEntity
  8
Окна
100
AcDbLine
 10
1880.0
 20
1645.0000000000002
 30
0.0
 11
1880.0
 21
1298.3333333333335
 31
0.0
  0
LINE
  5
24D
330
1E5
100
AcDbEntity
  8
Окна
100
AcDbLine
 10
1815.0
 20
1233.3333333333335
 30
0.0
 11
1880.0
 21
1298.3333333333335
 31
0.0
  0
LINE
  5
24E
330
1E5
100
AcDbEntity
  8
Окна
100
AcDbLine
 10
2310.0
 20
1233.3333333333335
 30
0.0
 11
2245.0
 21
1298.3333333333335
 31
0.0
  0
LINE
  5
24F
330
1E5
100
AcDbEntity
  8
Окна
100
AcDbLine
 10
2310.0
 20
1710.0000000000002
 30
0.0
 11
2245.0
 21
1645.0000000000002
 31
0.0
  0
LINE
  5
250
330
1E5
100
AcDbEntity
  8
Окна
100
AcDbLine
 10
1815.0
 20
1710.0000000000002
 30
0.0
 11
1880.0
 21
1645.0000000000002
 31
0.0
  0
LINE
  5
251
330
1E5
100
AcDbEntity
  8
Штриховые
100
AcDbLine
 10
1800.0
 20
1218.3333333333335
 30
0.0
 11
2325.0
 21
1471.666666666667
 31
0.0
  0
LINE
  5
252
330
1E5
100
AcDbEntity
  8
Штриховые
100
AcDbLine
 10
1800.0
 20
1725.0000000000002
 30
0.0
 11
2325.0
 21
1471.666666666667
 31
0.0
  0
LINE
  5
253
330
1E5
100
AcDbEntity
  8
Штриховые
100
AcDbLine
 10
1800.0
 20
1218.3333333333335
 30
0.0
 11
2062.5
 21
1725.0000000000002
 31
0.0
  0
LINE
  5
254
330
1E5
100
AcDbEntity
  8
Штриховые
100
AcDbLine
 10
2325.0
 20
1218.3333333333335
 30
0.0
 11
2062.5
 21
1725.0000000000002
 31
0.0
  0
ATTDEF
  5
255
330
1E5
100
AcDbEntity
  8
Текст
100
AcDbText
 10
0.0
 20
2110.0
 30
0.0
 40
30.0
  1
Пример 08
  7
Основной стиль
100
AcDbAttributeDefinition
  3
Объект
  2
OBJECT
 70
0
  0
ATTDEF
  5
256
330
1E5
100
AcDbEntity
  8
Текст
100
AcDbText
 10
0.0
 20
2060.0
 30
0.0
 40
30.0
  1
ОК-4.3/1 шт.
  7
Основной стиль
100
AcDbAttributeDefinition
  3
Окно / кол-во
  2
WINDOW
 70
0
  0
ATTDEF
  5
257
330
1E5
100
AcDbEntity
  8
Текст
100
AcDbText
 10
0.0
 20
2010.0
 30
0.0
 40
30.0
  1
RAL8017/RAL9016
  7
Основной стиль
100
AcDbAttributeDefinition
  3
Цвет
  2
COLOR
 70
0
  0
ATTDEF
  5
258
330
1E5
100
AcDbEntity
  8
Текст
100
AcDbText
 10
0.0
 20
1960.0
 30
0.0
 40
30.0
  1
Заполнение СПД42
  7
Основной стиль
100
AcDbAttributeDefinition
  3
Заполнение
  2
GLAZING
 70
0
  0
ATTDEF
  5
259
330
1E5
100
AcDbEntity
  8
Текст
100
AcDbText
 10
0.0
 20
1910.0
 30
0.0
 40
30.0
  1
2400х1800
  7
Основной стиль
100
AcDbAttributeDefinition
  3
Габарит
  2
SIZE
 70
0
  0
ATTDEF
  5
25A
330
1E5
100
AcDbEntity
  8
Текст
100
AcDbText
 10
0.0
 20
1860.0
 30
0.0
 40
30.0
  1
4х3
  7
Основной стиль
100
AcDbAttributeDefinition
  3
Сетка
  2
GRID
 70
0
  0
TEXT
  5
25B
330
1E5
100
AcDbEntity
  8
Текст
100
AcDbText
 10
2400.0
 20
1860.0
 30
0.0
 40
30.0
  1
S=4.32 м²
  7
Основной стиль
 72
2
 11
2400.0
 21
1860.0
 31
0.0
100
AcDbText
 73
3
  0
DIMENSION
  5
25C
330
1E5
100
AcDbEntity
  8
Размеры
100
AcDbDimension
280
0
  3
Основной стиль
 10
30.0
 20
-60.0
 30
0.0
 11
327.5
 21
-60.0
 31
0.0
 70
32
 71
5
  1
<>
100
AcDbAlignedDimension
 13
30.0
 23
30.0
 33
0.0
 14
625.0
 24
30.0
 34
0.0
 50
0.0
100
AcDbRotatedDimension
  0
DIMENSION
  5
25D
330
1E5
100
AcDbEntity
  8
Размеры
100
AcDbDimension
280
0
  3
Основной стиль
 10
625.0
 20
-60.0
 30
0.0
 11
912.5
 21
-60.0
 31
0.0
 70
32
 71
5
  1
<>
100
AcDbAlignedDimension
 13
625.0
 23
30.0
 33
0.0
 14
1200.0
 24
30.0
 34
0.0
 50
0.0
100
AcDbRotatedDimension
  0
DIMENSION
  5
25E
330
1E5
100
AcDbEntity
  8
Размеры
100
AcDbDimension
280
0
  3
Основной стиль
 10
1200.0
 20
-60.0
 30
0.0
 11
1487.5
 21
-60.0
 31
0.0
 70
32
 71
5
  1
<>
100
AcDbAlignedDimension
 13
1200.0
 23
30.0
 33
0.0
 14
1775.0
 24
30.0
 34
0.0
 50
0.0
100
AcDbRotatedDimension
  0
DIMENSION
  5
25F
330
1E5
100
AcDbEntity
  8
Размеры
100
AcDbDimension
280
0
  3
Основной стиль
 10
1775.0
 20
-60.0
 30
0.0
 11
2072.5
 21
-60.0
 31
0.0
 70
32
 71
5
  1
<>
100
AcDbAlignedDimension
 13
1775.0
 23
30.0
 33
0.0
 14
2370.0
 24
30.0
 34
0.0
 50
0.0
100
AcDbRotatedDimension
  0
DIMENSION
  5
260
330
1E5
100
AcDbEntity
  8
Размеры
100
AcDbDimension
280
0
  3
Основной стиль
 10
30.0
 20
-120.0
 30
0.0
 11
1200.0
 21
-120.0
 31
0.0
 70
32
 71
5
  1
<>
100
AcDbAlignedDimension
 13
30.0
 23
30.0
 33
0.0
 14
2370.0
 24
30.0
 34
0.0
 50
0.0
100
AcDbRotatedDimension
  0
DIMENSION
  5
261
330
1E5
100
AcDbEntity
  8
Размеры
100
AcDbDimension
280
0
  3
Основной стиль
 10
0.0
 20
-180.0
 30
0.0
 11
1200.0
 21
-180.0
 31
0.0
 70
32
 71
5
  1
<>
100
AcDbAlignedDimension
 13
0.0
 23
0.0
 33
0.0
 14
2400.0
 24
0.0
 34
0.0
 50
0.0
100
AcDbRotatedDimension
  0
DIMENSION
  5
262
330
1E5
100
AcDbEntity
  8
Размеры
100
AcDbDimension
280
0
  3
Основной стиль
 10
0.0
 20
-120.0
 30
0.0
 11
15.0
 21
-120.0
 31
0.0
 70
32
 71
5
  1
<>
100
AcDbAlignedDimension
 13
0.0
 23
0.0
 33
0.0
 14
30.0
 24
0.0
 34
0.0
 50
0.0
100
AcDbRotatedDimension
  0
DIMENSION
  5
263
330
1E5
100
AcDbEntity
  8
Размеры
100
AcDbDimension
280
0
  3
Основной стиль
 10
2370.0
 20
-120.0
 30
0.0
 11
2385.0
 21
-120.0
 31
0.0
 70
32
 71
5
  1
<>
100
AcDbAlignedDimension
 13
2370.0
 23
0.0
 33
0.0
 14
2400.0
 24
0.0
 34
0.0
 50
0.0
100
AcDbRotatedDimension
  0
DIMENSION
  5
264
330
1E5
100
AcDbEntity
  8
Размеры
100
AcDbDimension
280
0
  3
Основной стиль
 10
2460.0
 20
60.0
 30
0.0
 11
2460.0
 21
348.33333333333337
 31
0.0
 70
32
 71
5
  1
<>
100
AcDbAlignedDimension
 13
2370.0
 23
60.0
 33
0.0
 14
2370.0
 24
636.6666666666667
 34
0.0
 50
90.0
100
AcDbRotatedDimension
  0
DIMENSION
  5
265
330
1E5
100
AcDbEntity
  8
Размеры
100
AcDbDimension
280
0
  3
Основной стиль
 10
2460.0
 20
636.6666666666667
 30
0.0
 11
2460.0
 21
915.0000000000001
 31
0.0
 70
32
 71
5
  1
<>
100
AcDbAlignedDimension
 13
2370.0
 23
636.6666666666667
 33
0.0
 14
2370.0
 24
1193.3333333333335
 34
0.0
 50
90.0
100
AcDbRotatedDimension
  0
DIMENSION
  5
266
330
1E5
100
AcDbEntity
  8
Размеры
100
AcDbDimension
280
0
  3
Основной стиль
 10
2460.0
 20
1193.3333333333335
 30
0.0
 11
2460.0
 21
1481.6666666666667
 31
0.0
 70
32
 71
5
  1
<>
100
AcDbAlignedDimension
 13
2370.0
 23
1193.3333333333335
 33
0.0
 14
2370.0
 24
1770.0
 34
0.0
 50
90.0
100
AcDbRotatedDimension
  0
DIMENSION
  5
267
330
1E5
100
AcDbEntity
  8
Размеры
100
AcDbDimension
280
0
  3
Основной стиль
 10
2520.0
 20
60.0
 30
0.0
 11
2520.0
 21
915.0
 31
0.0
 70
32
 71
5
  1
<>
100
AcDbAlignedDimension
 13
2370.0
 23
60.0
 33
0.0
 14
2370.0
 24
1770.0
 34
0.0
 50
90.0
100
AcDbRotatedDimension
  0
DIMENSION
  5
268
330
1E5
100
AcDbEntity
  8
Размеры
100
AcDbDimension
280
0
  3
Основной стиль
 10
2520.0
 20
30.0
 30
0.0
 11
2520.0
 21
45.0
 31
0.0
 70
32
 71
5
  1
<>
100
AcDbAlignedDimension
 13
2370.0
 23
30.0
 33
0.0
 14
2370.0
 24
60.0
 34
0.0
 50
90.0
100
AcDbRotatedDimension
  0
DIMENSION
  5
269
330
1E5
100
AcDbEntity
  8
Размеры
100
AcDbDimension
280
0
  3
Основной стиль
 10
2580.0
 20
0.0
 30
0.0
 11
2580.0
 21
900.0
 31
0.0
 70
32
 71
5
  1
<>
100
AcDbAlignedDimension
 13
2400.0
 23
0.0
 33
0.0
 14
2400.0
 24
1800.0
 34
0.0
 50
90.0
100
AcDbRotatedDimension
  0
DIMENSION
  5
26A
330
1E5
100
AcDbEntity
  8
Размеры
100
AcDbDimension
280
0
  3
Основной стиль
 10
2520.0
 20
0.0
 30
0.0
 11
2520.0
 21
15.0
 31
0.0
 70
32
 71
5
  1
<>
100
AcDbAlignedDimension
 13
2400.0
 23
0.0
 33
0.0
 14
2400.0
 24
30.0
 34
0.0
 50
90.0
100
AcDbRotatedDimension
  0
DIMENSION
  5
26B
330
1E5
100
AcDbEntity
  8
Размеры
100
AcDbDimension
280
0
  3
Основной стиль
 10
2520.0
 20
1770.0
 30
0.0
 11
2520.0
 21
1785.0
 31
0.0
 70
32
 71
5
  1
<>
100
AcDbAlignedDimension
 13
2400.0
 23
1770.0
 33
0.0
 14
2400.0
 24
1800.0
 34
0.0
 50
90.0
100
AcDbRotatedDimension
  0
ENDBLK
  5
1E7
330
1E5
100
AcDbEntity
  8
0
100
AcDbBlockEnd
  0
BLOCK
  5
26D
330
26C
100
AcDbEntity
  8
0
100
AcDbBlockBegin
  2
Пример 09 ОК-6.3 3600х2000 6x3 Снаружи #09
 70
2
 10
0.0
 20
0.0
 30
0.0
  3
Пример 09 ОК-6.3 3600х2000 6x3 Снаружи #09
  1

  0
LWPOLYLINE
  5
26F
330
26C
100
AcDbEntity
  8
Штриховые
100
AcDbPolyline
 90
4
 70
1
 10
0.0
 20
0.0
 10
3600.0
 20
0.0
 10
3600.0
 20
2000.0
 10
0.0
 20
2000.0
  0
LWPOLYLINE
  5
270
330
26C
100
AcDbEntity
  8
Окна
100
AcDbPolyline
 90
4
 70
1
 10
30.0
 20
60.0
 10
3570.0
 20
60.0
 10
3570.0
 20
1970.0
 10
30.0
 20
1970.0
  0
LWPOLYLINE
  5
271
330
26C
100
AcDbEntity
  8
Окна
100
AcDbPolyline
 90
4
 70
1
 10
90.0
 20
120.0
 10
3510.0
 20
120.0
 10
3510.0
 20
1910.0
 10
90.0
 20
1910.0
  0
LINE
  5
272
330
26C
100
AcDbEntity
  8
Окна
100
AcDbLine
 10
30.0
 20
60.0
 30
0.0
 11
90.0
 21
120.0
 31
0.0
  0
LINE
  5
273
330
26C
100
AcDbEntity
  8
Окна
100
AcDbLine
 10
3570.0
 20
60.0
 30
0.0
 11
3510.0
 21
120.0
 31
0.0
  0
LINE
  5
274
330
26C
100
AcDbEntity
  8
Окна
100
AcDbLine
 10
3570.0
 20
1970.0
 30
0.0
 11
3510.0
 21
1910.0
 31
0.0
  0
LINE
  5
275
330
26C
100
AcDbEntity
  8
Окна
100
AcDbLine
 10
30.0
 20
1970.0
 30
0.0
 11
90.0
 21
1910.0
 31
0.0
  0
LWPOLYLINE
  5
276
330
26C
100
AcDbEntity
  8
Окна
100
AcDbPolyline
 90
4
 70
1
 10
593.3333333333333
 20
120.0
 10
673.3333333333333
 20
120.0
 10
673.3333333333333
 20
1910.0
 10
593.3333333333333
 20
1910.0
  0
LWPOLYLINE
  5
277
330
26C
100
AcDbEntity
  8
Окна
100
AcDbPolyline
 90
4
 70
1
 10
1176.6666666666665
 20
120.0
 10
1256.6666666666665
 20
120.0
 10
1256.6666666666665
 20
1910.0
 10
1176.6666666666665
 20
1910.0
  0
LWPOLYLINE
  5
278
330
26C
100
AcDbEntity
  8
Окна
100
AcDbPolyline
 90
4
 70
1
 10
1760.0
 20
120.0
 10
1840.0
 20
120.0
 10
1840.0
 20
1910.0
 10
1760.0
 20
1910.0
  0
LWPOLYLINE
  5
279
330
26C
100
AcDbEntity
  8
Окна
100
AcDbPolyline
 90
4
 70
1
 10
2343.333333333333
 20
120.0
 10
2423.333333333333
 20
120.0
 10
2423.333333333333
 20
1910.0
 10
2343.333333333333
 20
1910.0
  0
LWPOLYLINE
  5
27A
330
26C
100
AcDbEntity
  8
Окна
100
AcDbPolyline
 90
4
 70
1
 10
2926.6666666666665
 20
120.0
 10
3006.6666666666665
 20
120.0
 10
3006.6666666666665
 20
1910.0
 10
2926.6666666666665
 20
1910.0
  0
LWPOLYLINE
  5
27B
330
26C
100
AcDbEntity
  8
Окна
100
AcDbPolyline
 90
4
 70
1
 10
90.0
 20
663.3333333333334
 10
3510.0
 20
663.3333333333334
 10
3510.0
 20
743.3333333333334
 10
90.0
 20
743.3333333333334
  0
LWPOLYLINE
  5
27C
330
26C
100
AcDbEntity
  8
Окна
100
AcDbPolyline
 90
4
 70
1
 10
90.0
 20
1286.6666666666667
 10
3510.0
 20
1286.6666666666667
 10
3510.0
 20
1366.6666666666667
 10
90.0
 20
1366.6666666666667
  0
LWPOLYLINE
  5
27D
330
26C
100
AcDbEntity
  8
Окна
100
AcDbPolyline
 90
4
 70
1
 10
30.0
 20
30.0
 10
3570.0
 20
30.0
 10
3570.0
 20
60.0
 10
30.0
 20
60.0
  0
ATTDEF
  5
27E
330
26C
100
AcDbEntity
  8
Текст
100
AcDbText
 10
0.0
 20
2310.0
 30
0.0
 40
30.0
  1
Пример 09
  7
Основной стиль
100
AcDbAttributeDefinition
  3
Объект
  2
OBJECT
 70
0
  0
ATTDEF
  5
27F
330
26C
100
AcDbEntity
  8
Текст
100
AcDbText
 10
0.0
 20
2260.0
 30
0.0
 40
30.0
  1
ОК-6.3/1 шт.
  7
Основной стиль
100
AcDbAttributeDefinition
  3
Окно / кол-во
  2
WINDOW
 70
0
  0
ATTDEF
  5
280
330
26C
100
AcDbEntity
  8
Текст
100
AcDbText
 10
0.0
 20
2210.0
 30
0.0
 40
30.0
  1
RAL8017/RAL9016
  7
Основной стиль
100
AcDbAttributeDefinition
  3
Цвет
  2
COLOR
 70
0
  0
ATTDEF
  5
281
330
26C
100
AcDbEntity
  8
Текст
100
AcDbText
 10
0.0
 20
2160.0
 30
0.0
 40
30.0
  1
Заполнение СПД42
  7
Основной стиль
100
AcDbAttributeDefinition
  3
Заполнение
  2
GLAZING
 70
0
  0
ATTDEF
  5
282
330
26C
100
AcDbEntity
  8
Текст
100
AcDbText
 10
0.0
 20
2110.0
 30
0.0
 40
30.0
  1
3600х2000
  7
Основной стиль
100
AcDbAttributeDefinition
  3
Габарит
  2
SIZE
 70
0
  0
ATTDEF
  5
283
330
26C
100
AcDbEntity
  8
Текст
100
AcDbText
 10
0.0
 20
2060.0
 30
0.0
 40
30.0
  1
6х3
  7
Основной стиль
100
AcDbAttributeDefinition
  3
Сетка
  2
GRID
 70
0
  0
TEXT
  5
284
330
26C
100
AcDbEntity
  8
Текст
100
AcDbText
 10
3600.0
 20
2060.0
 30
0.0
 40
30.0
  1
S=7.20 м²
  7
Основной стиль
 72
2
 11
3600.0
 21
2060.0
 31
0.0
100
AcDbText
 73
3
  0
DIMENSION
  5
285
330
26C
100
AcDbEntity
  8
Размеры
100
AcDbDimension
280
0
  3
Основной стиль
 10
30.0
 20
-60.0
 30
0.0
 11
331.66666666666663
 21
-60.0
 31
0.0
 70
32
 71
5
  1
<>
100
AcDbAlignedDimension
 13
30.0
 23
30.0
 33
0.0
 14
633.3333333333333
 24
30.0
 34
0.0
 50
0.0
100
AcDbRotatedDimension
  0
DIMENSION
  5
286
330
26C
100
AcDbEntity
  8
Размеры
100
AcDbDimension
280
0
  3
Основной стиль
 10
633.3333333333333
 20
-60.0
 30
0.0
 11
924.9999999999999
 21
-60.0
 31
0.0
 70
32
 71
5
  1
<>
100
AcDbAlignedDimension
 13
633.3333333333333
 23
30.0
 33
0.0
 14
1216.6666666666665
 24
30.0
 34
0.0
 50
0.0
100
AcDbRotatedDimension
  0
DIMENSION
  5
287
330
26C
100
AcDbEntity
  8
Размеры
100
AcDbDimension
280
0
  3
Основной стиль
 10
1216.6666666666665
 20
-60.0
 30
0.0
 11
1508.3333333333333
 21
-60.0
 31
0.0
 70
32
 71
5
  1
<>
100
AcDbAlignedDimension
 13
1216.6666666666665
 23
30.0
 33
0.0
 14
1800.0
 24
30.0
 34
0.0
 50
0.0
100
AcDbRotatedDimension
  0
DIMENSION
  5
288
330
26C
100
AcDbEntity
  8
Размеры
100
AcDbDimension
280
0
  3
Основной стиль
 10
1800.0
 20
-60.0
 30
0.0
 11
2091.6666666666665
 21
-60.0
 31
0.0
 70
32
 71
5
  1
<>
100
AcDbAlignedDimension
 13
1800.0
 23
30.0
 33
0.0
 14
2383.333333333333
 24
30.0
 34
0.0
 50
0.0
100
AcDbRotatedDimension
  0
DIMENSION
  5
289
330
26C
100
AcDbEntity
  8
Размеры
100
AcDbDimension
280
0
  3
Основной стиль
 10
2383.333333333333
 20
-60.0
 30
0.0
 11
2675.0
 21
-60.0
 31
0.0
 70
32
 71
5
  1
<>
100
AcDbAlignedDimension
 13
2383.333333333333
 23
30.0
 33
0.0
 14
2966.6666666666665
 24
30.0
 34
0.0
 50
0.0
100
AcDbRotatedDimension
  0
DIMENSION
  5
28A
330
26C
100
AcDbEntity
  8
Размеры
100
AcDbDimension
280
0
  3
Основной стиль
 10
2966.6666666666665
 20
-60.0
 30
0.0
 11
3268.333333333333
 21
-60.0
 31
0.0
 70
32
 71
5
  1
<>
100
AcDbAlignedDimension
 13
2966.6666666666665
 23
30.0
 33
0.0
 14
3570.0
 24
30.0
 34
0.0
 50
0.0
100
AcDbRotatedDimension
  0
DIMENSION
  5
28B
330
26C
100
AcDbEntity
  8
Размеры
100
AcDbDimension
280
0
  3
Основной стиль
 10
30.0
 20
-120.0
 30
0.0
 11
1800.0
 21
-120.0
 31
0.0
 70
32
 71
5
  1
<>
100
AcDbAlignedDimension
 13
30.0
 23
30.0
 33
0.0
 14
3570.0
 24
30.0
 34
0.0
 50
0.0
100
AcDbRotatedDimension
  0
DIMENSION
  5
28C
330
26C
100
AcDbEntity
  8
Размеры
100
AcDbDimension
280
0
  3
Основной стиль
 10
0.0
 20
-180.0
 30
0.0
 11
1800.0
 21
-180.0
 31
0.0
 70
32
 71
5
  1
<>
100
AcDbAlignedDimension
 13
0.0
 23
0.0
 33
0.0
 14
3600.0
 24
0.0
 34
0.0
 50
0.0
100
AcDbRotatedDimension
  0
DIMENSION
  5
28D
330
26C
100
AcDbEntity
  8
Размеры
100
AcDbDimension
280
0
  3
Основной стиль
 10
0.0
 20
-120.0
 30
0.0
 11
15.0
 21
-120.0
 31
0.0
 70
32
 71
5
  1
<>
100
AcDbAlignedDimension
 13
0.0
 23
0.0
 33
0.0
 14
30.0
 24
0.0
 34
0.0
 50
0.0
100
AcDbRotatedDimension
  0
DIMENSION
  5
28E
330
26C
100
AcDbEntity
  8
Размеры
100
AcDbDimension
280
0
  3
Основной стиль
 10
3570.0
 20
-120.0
 30
0.0
 11
3585.0
 21
-120.0
 31
0.0
 70
32
 71
5
  1
<>
100
AcDbAlignedDimension
 13
3570.0
 23
0.0
 33
0.0
 14
3600.0
 24
0.0
 34
0.0
 50
0.0
100
AcDbRotatedDimension
  0
DIMENSION
  5
28F
330
26C
100
AcDbEntity
  8
Размеры
100
AcDbDimension
280
0
  3
Основной стиль
 10
3660.0
 20
60.0
 30
0.0
 11
3660.0
 21
381.6666666666667
 31
0.0
 70
32
 71
5
  1
<>
100
AcDbAlignedDimension
 13
3570.0
 23
60.0
 33
0.0
 14
3570.0
 24
703.3333333333334
 34
0.0
 50
90.0
100
AcDbRotatedDimension
  0
DIMENSION
  5
290
330
26C
100
AcDbEntity
  8
Размеры
100
AcDbDimension
280
0
  3
Основной стиль
 10
3660.0
 20
703.3333333333334
 30
0.0
 11
3660.0
 21
1015.0
 31
0.0
 70
32
 71
5
  1
<>
100
AcDbAlignedDimension
 13
3570.0
 23
703.3333333333334
 33
0.0
 14
3570.0
 24
1326.6666666666667
 34
0.0
 50
90.0
100
AcDbRotatedDimension
  0
DIMENSION
  5
291
330
26C
100
AcDbEntity
  8
Размеры
100
AcDbDimension
280
0
  3
Основной стиль
 10
3660.0
 20
1326.6666666666667
 30
0.0
 11
3660.0
 21
1648.3333333333335
 31
0.0
 70
32
 71
5
  1
<>
100
AcDbAlignedDimension
 13
3570.0
 23
1326.6666666666667
 33
0.0
 14
3570.0
 24
1970.0
 34
0.0
 50
90.0
100
AcDbRotatedDimension
  0
DIMENSION
  5
292
330
26C
100
AcDbEntity
  8
Размеры
100
AcDbDimension
280
0
  3
Основной стиль
 10
3720.0
 20
60.0
 30
0.0
 11
3720.0
 21
1015.0
 31
0.0
 70
32
 71
5
  1
<>
100
AcDbAlignedDimension
 13
3570.0
 23
60.0
 33
0.0
 14
3570.0
 24
1970.0
 34
0.0
 50
90.0
100
AcDbRotatedDimension
  0
DIMENSION
  5
293
330
26C
100
AcDbEntity
  8
Размеры
100
AcDbDimension
280
0
  3
Основной стиль
 10
3720.0
 20
30.0
 30
0.0
 11
3720.0
 21
45.0
 31
0.0
 70
32
 71
5
  1
<>
100
AcDbAlignedDimension
 13
3570.0
 23
30.0
 33
0.0
 14
3570.0
 24
60.0
 34
0.0
 50
90.0
100
AcDbRotatedDimension
  0
DIMENSION
  5
294
330
26C
100
AcDbEntity
  8
Размеры
100
AcDbDimension
280
0
  3
Основной стиль
 10
3780.0
 20
0.0
 30
0.0
 11
3780.0
 21
1000.0
 31
0.0
 70
32
 71
5
  1
<>
100
AcDbAlignedDimension
 13
3600.0
 23
0.0
 33
0.0
 14
3600.0
 24
2000.0
 34
0.0
 50
90.0
100
AcDbRotatedDimension
  0
DIMENSION
  5
295
330
26C
100
AcDbEntity
  8
Размеры
100
AcDbDimension
280
0
  3
Основной стиль
 10
3720.0
 20
0.0
 30
0.0
 11
3720.0
 21
15.0
 31
0.0
 70
32
 71
5
  1
<>
100
AcDbAlignedDimension
 13
3600.0
 23
0.0
 33
0.0
 14
3600.0
 24
30.0
 34
0.0
 50
90.0
100
AcDbRotatedDimension
  0
DIMENSION
  5
296
330
26C
100
AcDbEntity
  8
Размеры
100
AcDbDimension
280
0
  3
Основной стиль
 10
3720.0
 20
1970.0
 30
0.0
 11
3720.0
 21
1985.0
 31
0.0
 70
32
 71
5
  1
<>
100
AcDbAlignedDimension
 13
3600.0
 23
1970.0
 33
0.0
 14
3600.0
 24
2000.0
 34
0.0
 50
90.0
100
AcDbRotatedDimension
  0
ENDBLK
  5
26E
330
26C
100
AcDbEntity
  8
0
100
AcDbBlockEnd
  0
BLOCK
  5
298
330
297
100
AcDbEntity
  8
0
100
AcDbBlockBegin
  2
Пример 10 ОК-8.4 4800х3000 8x4 Снаружи #10
 70
2
 10
0.0
 20
0.0
 30
0.0
  3
Пример 10 ОК-8.4 4800х3000 8x4 Снаружи #10
  1

  0
LWPOLYLINE
  5
29A
330
297
100
AcDbEntity
  8
Штриховые
100
AcDbPolyline
 90
4
 70
1
 10
0.0
 20
0.0
 10
4800.0
 20
0.0
 10
4800.0
 20
3000.0
 10
0.0
 20
3000.0
  0
LWPOLYLINE
  5
29B
330
297
100
AcDbEntity
  8
Окна
100
AcDbPolyline
 90
4
 70
1
 10
30.0
 20
60.0
 10
4770.0
 20
60.0
 10
4770.0
 20
2970.0
 10
30.0
 20
2970.0
  0
LWPOLYLINE
  5
29C
330
297
100
AcDbEntity
  8
Окна
100
AcDbPolyline
 90
4
 70
1
 10
90.0
 20
120.0
 10
4710.0
 20
120.0
 10
4710.0
 20
2910.0
 10
90.0
 20
2910.0
  0
LINE
  5
29D
330
297
100
AcDbEntity
  8
Окна
100
AcDbLine
 10
30.0
 20
60.0
 30
0.0
 11
90.0
 21
120.0
 31
0.0
  0
LINE
  5
29E
330
297
100
AcDbEntity
  8
Окна
100
AcDbLine
 10
4770.0
 20
60.0
 30
0.0
 11
4710.0
 21
120.0
 31
0.0
  0
LINE
  5
29F
330
297
100
AcDbEntity
  8
Окна
100
AcDbLine
 10
4770.0
 20
2970.0
 30
0.0
 11
4710.0
 21
2910.0
 31
0.0
  0
LINE
  5
2A0
330
297
100
AcDbEntity
  8
Окна
100
AcDbLine
 10
30.0
 20
2970.0
 30
0.0
 11
90.0
 21
2910.0
 31
0.0
  0
LWPOLYLINE
  5
2A1
330
297
100
AcDbEntity
  8
Окна
100
AcDbPolyline
 90
4
 70
1
 10
597.5
 20
120.0
 10
677.5
 20
120.0
 10
677.5
 20
2910.0
 10
597.5
 20
2910.0
  0
LWPOLYLINE
  5
2A2
330
297
100
AcDbEntity
  8
Окна
100
AcDbPolyline
 90
4
 70
1
 10
1185.0
 20
120.0
 10
1265.0
 20
120.0
 10
1265.0
 20
2910.0
 10
1185.0
 20
2910.0
  0
LWPOLYLINE
  5
2A3
330
297
100
AcDbEntity
  8
Окна
100
AcDbPolyline
 90
4
 70
1
 10
1772.5
 20
120.0
 10
1852.5
 20
120.0
 10
1852.5
 20
2910.0
 10
1772.5
 20
2910.0
  0
LWPOLYLINE
  5
2A4
330
297
100
AcDbEntity
  8
Окна
100
AcDbPolyline
 90
4
 70
1
 10
2360.0
 20
120.0
 10
2440.0
 20
120.0
 10
2440.0
 20
2910.0
 10
2360.0
 20
2910.0
  0
LWPOLYLINE
  5
2A5
330
297
100
AcDbEntity
  8
Окна
100
AcDbPolyline
 90
4
 70
1
 10
2947.5
 20
120.0
 10
3027.5
 20
120.0
 10
3027.5
 20
2910.0
 10
2947.5
 20
2910.0
  0
LWPOLYLINE
  5
2A6
330
297
100
AcDbEntity
  8
Окна
100
AcDbPolyline
 90
4
 70
1
 10
3535.0
 20
120.0
 10
3615.0
 20
120.0
 10
3615.0
 20
2910.0
 10
3535.0
 20
2910.0
  0
LWPOLYLINE
  5
2A7
330
297
100
AcDbEntity
  8
Окна
100
AcDbPolyline
 90
4
 70
1
 10
4122.5
 20
120.0
 10
4202.5
 20
120.0
 10
4202.5
 20
2910.0
 10
4122.5
 20
2910.0
  0
LWPOLYLINE
  5
2A8
330
297
100
AcDbEntity
  8
Окна
100
AcDbPolyline
 90
4
 70
1
 10
90.0
 20
757.5
 10
4710.0
 20
757.5
 10
4710.0
 20
837.5
 10
90.0
 20
837.5
  0
LWPOLYLINE
  5
2A9
330
297
100
AcDbEntity
  8
Окна
100
AcDbPolyline
 90
4
 70
1
 10
90.0
 20
1475.0
 10
4710.0
 20
1475.0
 10
4710.0
 20
1555.0
 10
90.0
 20
1555.0
  0
LWPOLYLINE
  5
2AA
330
297
100
AcDbEntity
  8
Окна
100
AcDbPolyline
 90
4
 70
1
 10
90.0
 20
2192.5
 10
4710.0
 20
2192.5
 10
4710.0
 20
2272.5
 10
90.0
 20
2272.5
  0
LWPOLYLINE
  5
2AB
330
297
100
AcDbEntity
  8
Окна
100
AcDbPolyline
 90
4
 70
1
 10
30.0
 20
30.0
 10
4770.0
 20
30.0
 10
4770.0
 20
60.0
 10
30.0
 20
60.0
  0
ATTDEF
  5
2AC
330
297
100
AcDbEntity
  8
Текст
100
AcDbText
 10
0.0
 20
3310.0
 30
0.0
 40
30.0
  1
Пример 10
  7
Основной стиль
100
AcDbAttributeDefinition
  3
Объект
  2
OBJECT
 70
0
  0
ATTDEF
  5
2AD
330
297
100
AcDbEntity
  8
Текст
100
AcDbText
 10
0.0
 20
3260.0
 30
0.0
 40
30.0
  1
ОК-8.4/1 шт.
  7
Основной стиль
100
AcDbAttributeDefinition
  3
Окно / кол-во
  2
WINDOW
 70
0
  0
ATTDEF
  5
2AE
330
297
100
AcDbEntity
  8
Текст
100
AcDbText
 10
0.0
 20
3210.0
 30
0.0
 40
30.0
  1
RAL8017/RAL9016
  7
Основной стиль
100
AcDbAttributeDefinition
  3
Цвет
  2
COLOR
 70
0
  0
ATTDEF
  5
2AF
330
297
100
AcDbEntity
  8
Текст
100
AcDbText
 10
0.0
 20
3160.0
 30
0.0
 40
30.0
  1
Заполнение СПД42
  7
Основной стиль
100
AcDbAttributeDefinition
  3
Заполнение
  2
GLAZING
 70
0
  0
ATTDEF
  5
2B0
330
297
100
AcDbEntity
  8
Текст
100
AcDbText
 10
0.0
 20
3110.0
 30
0.0
 40
30.0
  1
4800х3000
  7
Основной стиль
100
AcDbAttributeDefinition
  3
Габарит
  2
SIZE
 70
0
  0
ATTDEF
  5
2B1
330
297
100
AcDbEntity
  8
Текст
100
AcDbText
 10
0.0
 20
3060.0
 30
0.0
 40
30.0
  1
8х4
  7
Основной стиль
100
AcDbAttributeDefinition
  3
Сетка
  2
GRID
 70
0
  0
TEXT
  5
2B2
330
297
100
AcDbEntity
  8
Текст
100
AcDbText
 10
4800.0
 20
3060.0
 30
0.0
 40
30.0
  1
S=14.40 м²
  7
Основной стиль
 72
2
 11
4800.0
 21
3060.0
 31
0.0
100
AcDbText
 73
3
  0
DIMENSION
  5
2B3
330
297
100
AcDbEntity
  8
Размеры
100
AcDbDimension
280
0
  3
Основной стиль
 10
30.0
 20
-60.0
 30
0.0
 11
333.75
 21
-60.0
 31
0.0
 70
32
 71
5
  1
<>
100
AcDbAlignedDimension
 13
30.0
 23
30.0
 33
0.0
 14
637.5
 24
30.0
 34
0.0
 50
0.0
100
AcDbRotatedDimension
  0
DIMENSION
  5
2B4
330
297
100
AcDbEntity
  8
Размеры
100
AcDbDimension
280
0
  3
Основной стиль
 10
637.5
 20
-60.0
 30
0.0
 11
931.25
 21
-60.0
 31
0.0
 70
32
 71
5
  1
<>
100
AcDbAlignedDimension
 13
637.5
 23
30.0
 33
0.0
 14
1225.0
 24
30.0
 34
0.0
 50
0.0
100
AcDbRotatedDimension
  0
DIMENSION
  5
2B5
330
297
100
AcDbEntity
  8
Размеры
100
AcDbDimension
280
0
  3
Основной стиль
 10
1225.0
 20
-60.0
 30
0.0
 11
1518.75
 21
-60.0
 31
0.0
 70
32
 71
5
  1
<>
100
AcDbAlignedDimension
 13
1225.0
 23
30.0
 33
0.0
 14
1812.5
 24
30.0
 34
0.0
 50
0.0
100
AcDbRotatedDimension
  0
DIMENSION
  5
2B6
330
297
100
AcDbEntity
  8
Размеры
100
AcDbDimension
280
0
  3
Основной стиль
 10
1812.5
 20
-60.0
 30
0.0
 11
2106.25
 21
-60.0
 31
0.0
 70
32
 71
5
  1
<>
100
AcDbAlignedDimension
 13
1812.5
 23
30.0
 33
0.0
 14
2400.0
 24
30.0
 34
0.0
 50
0.0
100
AcDbRotatedDimension
  0
DIMENSION
  5
2B7
330
297
100
AcDbEntity
  8
Размеры
100
AcDbDimension
280
0
  3
Основной стиль
 10
2400.0
 20
-60.0
 30
0.0
 11
2693.75
 21
-60.0
 31
0.0
 70
32
 71
5
  1
<>
100
AcDbAlignedDimension
 13
2400.0
 23
30.0
 33
0.0
 14
2987.5
 24
30.0
 34
0.0
 50
0.0
100
AcDbRotatedDimension
  0
DIMENSION
  5
2B8
330
297
100
AcDbEntity
  8
Размеры
100
AcDbDimension
280
0
  3
Основной стиль
 10
2987.5
 20
-60.0
 30
0.0
 11
3281.25
 21
-60.0
 31
0.0
 70
32
 71
5
  1
<>
100
AcDbAlignedDimension
 13
2987.5
 23
30.0
 33
0.0
 14
3575.0
 24
30.0
 34
0.0
 50
0.0
100
AcDbRotatedDimension
  0
DIMENSION
  5
2B9
330
297
100
AcDbEntity
  8
Размеры
100
AcDbDimension
280
0
  3
Основной стиль
 10
3575.0
 20
-60.0
 30
0.0
 11
3868.75
 21
-60.0
 31
0.0
 70
32
 71
5
  1
<>
100
AcDbAlignedDimension
 13
3575.0
 23
30.0
 33
0.0
 14
4162.5
 24
30.0
 34
0.0
 50
0.0
100
AcDbRotatedDimension
  0
DIMENSION
  5
2BA
330
297
100
AcDbEntity
  8
Размеры
100
AcDbDimension
280
0
  3
Основной стиль
 10
4162.5
 20
-60.0
 30
0.0
 11
4466.25
 21
-60.0
 31
0.0
 70
32
 71
5
  1
<>
100
AcDbAlignedDimension
 13
4162.5
 23
30.0
 33
0.0
 14
4770.0
 24
30.0
 34
0.0
 50
0.0
100
AcDbRotatedDimension
  0
DIMENSION
  5
2BB
330
297
100
AcDbEntity
  8
Размеры
100
AcDbDimension
280
0
  3
Основной стиль
 10
30.0
 20
-120.0
 30
0.0
 11
2400.0
 21
-120.0
 31
0.0
 70
32
 71
5
  1
<>
100
AcDbAlignedDimension
 13
30.0
 23
30.0
 33
0.0
 14
4770.0
 24
30.0
 34
0.0
 50
0.0
100
AcDbRotatedDimension
  0
DIMENSION
  5
2BC
330
297
100
AcDbEntity
  8
Размеры
100
AcDbDimension
280
0
  3
Основной стиль
 10
0.0
 20
-180.0
 30
0.0
 11
2400.0
 21
-180.0
 31
0.0
 70
32
 71
5
  1
<>
100
AcDbAlignedDimension
 13
0.0
 23
0.0
 33
0.0
 14
4800.0
 24
0.0
 34
0.0
 50
0.0
100
AcDbRotatedDimension
  0
DIMENSION
  5
2BD
330
297
100
AcDbEntity
  8
Размеры
100
AcDbDimension
280
0
  3
Основной стиль
 10
0.0
 20
-120.0
 30
0.0
 11
15.0
 21
-120.0
 31
0.0
 70
32
 71
5
  1
<>
100
AcDbAlignedDimension
 13
0.0
 23
0.0
 33
0.0
 14
30.0
 24
0.0
 34
0.0
 50
0.0
100
AcDbRotatedDimension
  0
DIMENSION
  5
2BE
330
297
100
AcDbEntity
  8
Размеры
100
AcDbDimension
280
0
  3
Основной стиль
 10
4770.0
 20
-120.0
 30
0.0
 11
4785.0
 21
-120.0
 31
0.0
 70
32
 71
5
  1
<>
100
AcDbAlignedDimension
 13
4770.0
 23
0.0
 33
0.0
 14
4800.0
 24
0.0
 34
0.0
 50
0.0
100
AcDbRotatedDimension
  0
DIMENSION
  5
2BF
330
297
100
AcDbEntity
  8
Размеры
100
AcDbDimension
280
0
  3
Основной стиль
 10
4860.0
 20
60.0
 30
0.0
 11
4860.0
 21
428.75
 31
0.0
 70
32
 71
5
  1
<>
100
AcDbAlignedDimension
 13
4770.0
 23
60.0
 33
0.0
 14
4770.0
 24
797.5
 34
0.0
 50
90.0
100
AcDbRotatedDimension
  0
DIMENSION
  5
2C0
330
297
100
AcDbEntity
  8
Размеры
100
AcDbDimension
280
0
  3
Основной стиль
 10
4860.0
 20
797.5
 30
0.0
 11
4860.0
 21
1156.25
 31
0.0
 70
32
 71
5
  1
<>
100
AcDbAlignedDimension
 13
4770.0
 23
797.5
 33
0.0
 14
4770.0
 24
1515.0
 34
0.0
 50
90.0
100
AcDbRotatedDimension
  0
DIMENSION
  5
2C1
330
297
100
AcDbEntity
  8
Размеры
100
AcDbDimension
280
0
  3
Основной стиль
 10
4860.0
 20
1515.0
 30
0.0
 11
4860.0
 21
1873.75
 31
0.0
 70
32
 71
5
  1
<>
100
AcDbAlignedDimension
 13
4770.0
 23
1515.0
 33
0.0
 14
4770.0
 24
2232.5
 34
0.0
 50
90.0
100
AcDbRotatedDimension
  0
DIMENSION
  5
2C2
330
297
100
AcDbEntity
  8
Размеры
100
AcDbDimension
280
0
  3
Основной стиль
 10
4860.0
 20
2232.5
 30
0.0
 11
4860.0
 21
2601.25
 31
0.0
 70
32
 71
5
  1
<>
100
AcDbAlignedDimension
 13
4770.0
 23
2232.5
 33
0.0
 14
4770.0
 24
2970.0
 34
0.0
 50
90.0
100
AcDbRotatedDimension
  0
DIMENSION
  5
2C3
330
297
100
AcDbEntity
  8
Размеры
100
AcDbDimension
280
0
  3
Основной стиль
 10
4920.0
 20
60.0
 30
0.0
 11
4920.0
 21
1515.0
 31
0.0
 70
32
 71
5
  1
<>
100
AcDbAlignedDimension
 13
4770.0
 23
60.0
 33
0.0
 14
4770.0
 24
2970.0
 34
0.0
 50
90.0
100
AcDbRotatedDimension
  0
DIMENSION
  5
2C4
330
297
100
AcDbEntity
  8
Размеры
100
AcDbDimension
280
0
  3
Основной стиль
 10
4920.0
 20
30.0
 30
0.0
 11
4920.0
 21
45.0
 31
0.0
 70
32
 71
5
  1
<>
100
AcDbAlignedDimension
 13
4770.0
 23
30.0
 33
0.0
 14
4770.0
 24
60.0
 34
0.0
 50
90.0
100
AcDbRotatedDimension
  0
DIMENSION
  5
2C5
330
297
100
AcDbEntity
  8
Размеры
100
AcDbDimension
280
0
  3
Основной стиль
 10
4980.0
 20
0.0
 30
0.0
 11
4980.0
 21
1500.0
 31
0.0
 70
32
 71
5
  1
<>
100
AcDbAlignedDimension
 13
4800.0
 23
0.0
 33
0.0
 14
4800.0
 24
3000.0
 34
0.0
 50
90.0
100
AcDbRotatedDimension
  0
DIMENSION
  5
2C6
330
297
100
AcDbEntity
  8
Размеры
100
AcDbDimension
280
0
  3
Основной стиль
 10
4920.0
 20
0.0
 30
0.0
 11
4920.0
 21
15.0
 31
0.0
 70
32
 71
5
  1
<>
100
AcDbAlignedDimension
 13
4800.0
 23
0.0
 33
0.0
 14
4800.0
 24
30.0
 34
0.0
 50
90.0
100
AcDbRotatedDimension
  0
DIMENSION
  5
2C7
330
297
100
AcDbEntity
  8
Размеры
100
AcDbDimension
280
0
  3
Основной стиль
 10
4920.0
 20
2970.0
 30
0.0
 11
4920.0
 21
2985.0
 31
0.0
 70
32
 71
5
  1
<>
100
AcDbAlignedDimension
 13
4800.0
 23
2970.0
 33
0.0
 14
4800.0
 24
3000.0
 34
0.0
 50
90.0
100
AcDbRotatedDimension
  0
ENDBLK
  5
299
330
297
100
AcDbEntity
  8
0
100
AcDbBlockEnd
  0
BLOCK
  5
2C9
330
2C8
100
AcDbEntity
  8
0
100
AcDbBlockBegin
  2
Пример 11 ОК-2.2П 1500х1500 2x2 Снаружи #11
 70
2
 10
0.0
 20
0.0
 30
0.0
  3
Пример 11 ОК-2.2П 1500х1500 2x2 Снаружи #11
  1

  0
LWPOLYLINE
  5
2CB
330
2C8
100
AcDbEntity
  8
Штриховые
100
AcDbPolyline
 90
4
 70
1
 10
0.0
 20
0.0
 10
1500.0
 20
0.0
 10
1500.0
 20
1500.0
 10
0.0
 20
1500.0
  0
LWPOLYLINE
  5
2CC
330
2C8
100
AcDbEntity
  8
Окна
100
AcDbPolyline
 90
4
 70
1
 10
20.0
 20
60.0
 10
1480.0
 20
60.0
 10
1480.0
 20
1480.0
 10
20.0
 20
1480.0
  0
LWPOLYLINE
  5
2CD
330
2C8
100
AcDbEntity
  8
Окна
100
AcDbPolyline
 90
4
 70
1
 10
90.0
 20
130.0
 10
1410.0
 20
130.0
 10
1410.0
 20
1410.0
 10
90.0
 20
1410.0
  0
LINE
  5
2CE
330
2C8
100
AcDbEntity
  8
Окна
100
AcDbLine
 10
20.0
 20
60.0
 30
0.0
 11
90.0
 21
130.0
 31
0.0
  0
LINE
  5
2CF
330
2C8
100
AcDbEntity
  8
Окна
100
AcDbLine
 10
1480.0
 20
60.0
 30
0.0
 11
1410.0
 21
130.0
 31
0.0
  0
LINE
  5
2D0
330
2C8
100
AcDbEntity
  8
Окна
100
AcDbLine
 10
1480.0
 20
1480.0
 30
0.0
 11
1410.0
 21
1410.0
 31
0.0
  0
LINE
  5
2D1
330
2C8
100
AcDbEntity
  8
Окна
100
AcDbLine
 10
20.0
 20
1480.0
 30
0.0
 11
90.0
 21
1410.0
 31
0.0
  0
LWPOLYLINE
  5
2D2
330
2C8
100
AcDbEntity
  8
Окна
100
AcDbPolyline
 90
4
 70
1
 10
700.0
 20
130.0
 10
800.0
 20
130.0
 10
800.0
 20
1410.0
 10
700.0
 20
1410.0
  0
LWPOLYLINE
  5
2D3
330
2C8
100
AcDbEntity
  8
Окна
100
AcDbPolyline
 90
4
 70
1
 10
90.0
 20
720.0
 10
1410.0
 20
720.0
 10
1410.0
 20
820.0
 10
90.0
 20
820.0
  0
LWPOLYLINE
  5
2D4
330
2C8
100
AcDbEntity
  8
Окна
100
AcDbPolyline
 90
4
 70
1
 10
20.0
 20
20.0
 10
1480.0
 20
20.0
 10
1480.0
 20
60.0
 10
20.0
 20
60.0
  0
LINE
  5
2D5
330
2C8
100
AcDbEntity
  8
Окна
100
AcDbLine
 10
155.0
 20
195.0
 30
0.0
 11
635.0
 21
195.0
 31
0.0
  0
LINE
  5
2D6
330
2C8
100
AcDbEntity
  8
Окна
100
AcDbLine
 10
635.0
 20
195.0
 30
0.0
 11
635.0
 21
655.0
 31
0.0
  0
LINE
  5
2D7
330
2C8
100
AcDbEntity
  8
Окна
100
AcDbLine
 10
635.0
 20
655.0
 30
0.0
 11
155.0
 21
655.0
 31
0.0
  0
LINE
  5
2D8
330
2C8
100
AcDbEntity
  8
Окна
100
AcDbLine
 10
155.0
 20
655.0
 30
0.0
 11
155.0
 21
195.0
 31
0.0
  0
LINE
  5
2D9
330
2C8
100
AcDbEntity
  8
Окна
100
AcDbLine
 10
90.0
 20
130.0
 30
0.0
 11
155.0
 21
195.0
 31
0.0
  0
LINE
  5
2DA
330
2C8
100
AcDbEntity
  8
Окна
100
AcDbLine
 10
700.0
 20
130.0
 30
0.0
 11
635.0
 21
195.0
 31
0.0
  0
LINE
  5
2DB
330
2C8
100
AcDbEntity
  8
Окна
100
AcDbLine
 10
700.0
 20
720.0
 30
0.0
 11
635.0
 21
655.0
 31
0.0
  0
LINE
  5
2DC
330
2C8
100
AcDbEntity
  8
Окна
100
AcDbLine
 10
90.0
 20
720.0
 30
0.0
 11
155.0
 21
655.0
 31
0.0
  0
LINE
  5
2DD
330
2C8
100
AcDbEntity
  8
Штриховые
100
AcDbLine
 10
75.0
 20
115.0
 30
0.0
 11
715.0
 21
425.0
 31
0.0
  0
LINE
  5
2DE
330
2C8
100
AcDbEntity
  8
Штриховые
100
AcDbLine
 10
75.0
 20
735.0
 30
0.0
 11
715.0
 21
425.0
 31
0.0
  0
LINE
  5
2DF
330
2C8
100
AcDbEntity
  8
Штриховые
100
AcDbLine
 10
75.0
 20
115.0
 30
0.0
 11
395.0
 21
735.0
 31
0.0
  0
LINE
  5
2E0
330
2C8
100
AcDbEntity
  8
Штриховые
100
AcDbLine
 10
715.0
 20
115.0
 30
0.0
 11
395.0
 21
735.0
 31
0.0
  0
LINE
  5
2E1
330
2C8
100
AcDbEntity
  8
Окна
100
AcDbLine
 10
865.0
 20
885.0
 30
0.0
 11
1345.0
 21
885.0
 31
0.0
  0
LINE
  5
2E2
330
2C8
100
AcDbEntity
  8
Окна
100
AcDbLine
 10
1345.0
 20
885.0
 30
0.0
 11
1345.0
 21
1345.0
 31
0.0
  0
LINE
  5
2E3
330
2C8
100
AcDbEntity
  8
Окна
100
AcDbLine
 10
1345.0
 20
1345.0
 30
0.0
 11
865.0
 21
1345.0
 31
0.0
  0
LINE
  5
2E4
330
2C8
100
AcDbEntity
  8
Окна
100
AcDbLine
 10
865.0
 20
1345.0
 30
0.0
 11
865.0
 21
885.0
 31
0.0
  0
LINE
  5
2E5
330
2C8
100
AcDbEntity
  8
Окна
100
AcDbLine
 10
800.0
 20
820.0
 30
0.0
 11
865.0
 21
885.0
 31
0.0
  0
LINE
  5
2E6
330
2C8
100
AcDbEntity
  8
Окна
100
AcDbLine
 10
1410.0
 20
820.0
 30
0.0
 11
1345.0
 21
885.0
 31
0.0
  0
LINE
  5
2E7
330
2C8
100
AcDbEntity
  8
Окна
100
AcDbLine
 10
1410.0
 20
1410.0
 30
0.0
 11
1345.0
 21
1345.0
 31
0.0
  0
LINE
  5
2E8
330
2C8
100
AcDbEntity
  8
Окна
100
AcDbLine
 10
800.0
 20
1410.0
 30
0.0
 11
865.0
 21
1345.0
 31
0.0
  0
LINE
  5
2E9
330
2C8
100
AcDbEntity
  8
Штриховые
100
AcDbLine
 10
785.0
 20
805.0
 30
0.0
 11
1425.0
 21
1115.0
 31
0.0
  0
LINE
  5
2EA
330
2C8
100
AcDbEntity
  8
Штриховые
100
AcDbLine
 10
785.0
 20
1425.0
 30
0.0
 11
1425.0
 21
1115.0
 31
0.0
  0
ATTDEF
  5
2EB
330
2C8
100
AcDbEntity
  8
Текст
100
AcDbText
 10
0.0
 20
1810.0
 30
0.0
 40
30.0
  1
Пример 11
  7
Основной стиль
100
AcDbAttributeDefinition
  3
Объект
  2
OBJECT
 70
0
  0
ATTDEF
  5
2EC
330
2C8
100
AcDbEntity
  8
Текст
100
AcDbText
 10
0.0
 20
1760.0
 30
0.0
 40
30.0
  1
ОК-2.2П/1 шт.
  7
Основной стиль
100
AcDbAttributeDefinition
  3
Окно / кол-во
  2
WINDOW
 70
0
  0
ATTDEF
  5
2ED
330
2C8
100
AcDbEntity
  8
Текст
100
AcDbText
 10
0.0
 20
1710.0
 30
0.0
 40
30.0
  1
RAL8017/RAL9016
  7
Основной стиль
100
AcDbAttributeDefinition
  3
Цвет
  2
COLOR
 70
0
  0
ATTDEF
  5
2EE
330
2C8
100
AcDbEntity
  8
Текст
100
AcDbText
 10
0.0
 20
1660.0
 30
0.0
 40
30.0
  1
Заполнение СПД42
  7
Основной стиль
100
AcDbAttributeDefinition
  3
Заполнение
  2
GLAZING
 70
0
  0
ATTDEF
  5
2EF
330
2C8
100
AcDbEntity
  8
Текст
100
AcDbText
 10
0.0
 20
1610.0
 30
0.0
 40
30.0
  1
1500х1500
  7
Основной стиль
100
AcDbAttributeDefinition
  3
Габарит
  2
SIZE
 70
0
  0
ATTDEF
  5
2F0
330
2C8
100
AcDbEntity
  8
Текст
100
AcDbText
 10
0.0
 20
1560.0
 30
0.0
 40
30.0
  1
2х2
  7
Основной стиль
100
AcDbAttributeDefinition
  3
Сетка
  2
GRID
 70
0
  0
TEXT
  5
2F1
330
2C8
100
AcDbEntity
  8
Текст
100
AcDbText
 10
1500.0
 20
1560.0
 30
0.0
 40
30.0
  1
S=2.25 м²
  7
Основной стиль
 72
2
 11
1500.0
 21
1560.0
 31
0.0
100
AcDbText
 73
3
  0
DIMENSION
  5
2F2
330
2C8
100
AcDbEntity
  8
Размеры
100
AcDbDimension
280
0
  3
Основной стиль
 10
20.0
 20
-60.0
 30
0.0
 11
385.0
 21
-60.0
 31
0.0
 70
32
 71
5
  1
<>
100
AcDbAlignedDimension
 13
20.0
 23
20.0
 33
0.0
 14
750.0
 24
20.0
 34
0.0
 50
0.0
100
AcDbRotatedDimension
  0
DIMENSION
  5
2F3
330
2C8
100
AcDbEntity
  8
Размеры
100
AcDbDimension
280
0
  3
Основной стиль
 10
750.0
 20
-60.0
 30
0.0
 11
1115.0
 21
-60.0
 31
0.0
 70
32
 71
5
  1
<>
100
AcDbAlignedDimension
 13
750.0
 23
20.0
 33
0.0
 14
1480.0
 24
20.0
 34
0.0
 50
0.0
100
AcDbRotatedDimension
  0
DIMENSION
  5
2F4
330
2C8
100
AcDbEntity
  8
Размеры
100
AcDbDimension
280
0
  3
Основной стиль
 10
20.0
 20
-120.0
 30
0.0
 11
750.0
 21
-120.0
 31
0.0
 70
32
 71
5
  1
<>
100
AcDbAlignedDimension
 13
20.0
 23
20.0
 33
0.0
 14
1480.0
 24
20.0
 34
0.0
 50
0.0
100
AcDbRotatedDimension
  0
DIMENSION
  5
2F5
330
2C8
100
AcDbEntity
  8
Размеры
100
AcDbDimension
280
0
  3
Основной стиль
 10
0.0
 20
-180.0
 30
0.0
 11
750.0
 21
-180.0
 31
0.0
 70
32
 71
5
  1
<>
100
AcDbAlignedDimension
 13
0.0
 23
0.0
 33
0.0
 14
1500.0
 24
0.0
 34
0.0
 50
0.0
100
AcDbRotatedDimension
  0
DIMENSION
  5
2F6
330
2C8
100
AcDbEntity
  8
Размеры
100
AcDbDimension
280
0
  3
Основной стиль
 10
0.0
 20
-120.0
 30
0.0
 11
10.0
 21
-120.0
 31
0.0
 70
32
 71
5
  1
<>
100
AcDbAlignedDimension
 13
0.0
 23
0.0
 33
0.0
 14
20.0
 24
0.0
 34
0.0
 50
0.0
100
AcDbRotatedDimension
  0
DIMENSION
  5
2F7
330
2C8
100
AcDbEntity
  8
Размеры
100
AcDbDimension
280
0
  3
Основной стиль
 10
1480.0
 20
-120.0
 30
0.0
 11
1490.0
 21
-120.0
 31
0.0
 70
32
 71
5
  1
<>
100
AcDbAlignedDimension
 13
1480.0
 23
0.0
 33
0.0
 14
1500.0
 24
0.0
 34
0.0
 50
0.0
100
AcDbRotatedDimension
  0
DIMENSION
  5
2F8
330
2C8
100
AcDbEntity
  8
Размеры
100
AcDbDimension
280
0
  3
Основной стиль
 10
1560.0
 20
60.0
 30
0.0
 11
1560.0
 21
415.0
 31
0.0
 70
32
 71
5
  1
<>
100
AcDbAlignedDimension
 13
1480.0
 23
60.0
 33
0.0
 14
1480.0
 24
770.0
 34
0.0
 50
90.0
100
AcDbRotatedDimension
  0
DIMENSION
  5
2F9
330
2C8
100
AcDbEntity
  8
Размеры
100
AcDbDimension
280
0
  3
Основной стиль
 10
1560.0
 20
770.0
 30
0.0
 11
1560.0
 21
1125.0
 31
0.0
 70
32
 71
5
  1
<>
100
AcDbAlignedDimension
 13
1480.0
 23
770.0
 33
0.0
 14
1480.0
 24
1480.0
 34
0.0
 50
90.0
100
AcDbRotatedDimension
  0
DIMENSION
  5
2FA
330
2C8
100
AcDbEntity
  8
Размеры
100
AcDbDimension
280
0
  3
Основной стиль
 10
1620.0
 20
60.0
 30
0.0
 11
1620.0
 21
770.0
 31
0.0
 70
32
 71
5
  1
<>
100
AcDbAlignedDimension
 13
1480.0
 23
60.0
 33
0.0
 14
1480.0
 24
1480.0
 34
0.0
 50
90.0
100
AcDbRotatedDimension
  0
DIMENSION
  5
2FB
330
2C8
100
AcDbEntity
  8
Размеры
100
AcDbDimension
280
0
  3
Основной стиль
 10
1620.0
 20
20.0
 30
0.0
 11
1620.0
 21
40.0
 31
0.0
 70
32
 71
5
  1
<>
100
AcDbAlignedDimension
 13
1480.0
 23
20.0
 33
0.0
 14
1480.0
 24
60.0
 34
0.0
 50
90.0
100
AcDbRotatedDimension
  0
DIMENSION
  5
2FC
330
2C8
100
AcDbEntity
  8
Размеры
100
AcDbDimension
280
0
  3
Основной стиль
 10
1680.0
 20
0.0
 30
0.0
 11
1680.0
 21
750.0
 31
0.0
 70
32
 71
5
  1
<>
100
AcDbAlignedDimension
 13
1500.0
 23
0.0
 33
0.0
 14
1500.0
 24
1500.0
 34
0.0
 50
90.0
100
AcDbRotatedDimension
  0
DIMENSION
  5
2FD
330
2C8
100
AcDbEntity
  8
Размеры
100
AcDbDimension
280
0
  3
Основной стиль
 10
1620.0
 20
0.0
 30
0.0
 11
1620.0
 21
10.0
 31
0.0
 70
32
 71
5
  1
<>
100
AcDbAlignedDimension
 13
1500.0
 23
0.0
 33
0.0
 14
1500.0
 24
20.0
 34
0.0
 50
90.0
100
AcDbRotatedDimension
  0
DIMENSION
  5
2FE
330
2C8
100
AcDbEntity
  8
Размеры
100
AcDbDimension
280
0
  3
Основной стиль
 10
1620.0
 20
1480.0
 30
0.0
 11
1620.0
 21
1490.0
 31
0.0
 70
32
 71
5
  1
<>
100
AcDbAlignedDimension
 13
1500.0
 23
1480.0
 33
0.0
 14
1500.0
 24
1500.0
 34
0.0
 50
90.0
100
AcDbRotatedDimension
  0
ENDBLK
  5
2CA
330
2C8
100
AcDbEntity
  8
0
100
AcDbBlockEnd
  0
BLOCK
  5
300
330
2FF
100
AcDbEntity
  8
0
100
AcDbBlockBegin
  2
Пример 12 ОК-УЗ 1200х2100 2x3 Снаружи #12
 70
2
 10
0.0
 20
0.0
 30
0.0
  3
Пример 12 ОК-УЗ 1200х2100 2x3 Снаружи #12
  1

  0
LWPOLYLINE
  5
302
330
2FF
100
AcDbEntity
  8
Штриховые
100
AcDbPolyline
 90
4
 70
1
 10
0.0
 20
0.0
 10
1200.0
 20
0.0
 10
1200.0
 20
2100.0
 10
0.0
 20
2100.0
  0
LWPOLYLINE
  5
303
330
2FF
100
AcDbEntity
  8
Окна
100
AcDbPolyline
 90
4
 70
1
 10
30.0
 20
60.0
 10
1170.0
 20
60.0
 10
1170.0
 20
2070.0
 10
30.0
 20
2070.0
  0
LWPOLYLINE
  5
304
330
2FF
100
AcDbEntity
  8
Окна
100
AcDbPolyline
 90
4
 70
1
 10
90.0
 20
120.0
 10
1110.0
 20
120.0
 10
1110.0
 20
2010.0
 10
90.0
 20
2010.0
  0
LINE
  5
305
330
2FF
100
AcDbEntity
  8
Окна
100
AcDbLine
 10
30.0
 20
60.0
 30
0.0
 11
90.0
 21
120.0
 31
0.0
  0
LINE
  5
306
330
2FF
100
AcDbEntity
  8
Окна
100
AcDbLine
 10
1170.0
 20
60.0
 30
0.0
 11
1110.0
 21
120.0
 31
0.0
  0
LINE
  5
307
330
2FF
100
AcDbEntity
  8
Окна
100
AcDbLine
 10
1170.0
 20
2070.0
 30
0.0
 11
1110.0
 21
2010.0
 31
0.0
  0
LINE
  5
308
330
2FF
100
AcDbEntity
  8
Окна
100
AcDbLine
 10
30.0
 20
2070.0
 30
0.0
 11
90.0
 21
2010.0
 31
0.0
  0
LWPOLYLINE
  5
309
330
2FF
100
AcDbEntity
  8
Окна
100
AcDbPolyline
 90
4
 70
1
 10
560.0
 20
120.0
 10
640.0
 20
120.0
 10
640.0
 20
2010.0
 10
560.0
 20
2010.0
  0
LWPOLYLINE
  5
30A
330
2FF
100
AcDbEntity
  8
Окна
100
AcDbPolyline
 90
4
 70
1
 10
90.0
 20
696.6666666666666
 10
1110.0
 20
696.6666666666666
 10
1110.0
 20
776.6666666666666
 10
90.0
 20
776.6666666666666
  0
LWPOLYLINE
  5
30B
330
2FF
100
AcDbEntity
  8
Окна
100
AcDbPolyline
 90
4
 70
1
 10
90.0
 20
1353.3333333333333
 10
1110.0
 20
1353.3333333333333
 10
1110.0
 20
1433.3333333333333
 10
90.0
 20
1433.3333333333333
  0
LWPOLYLINE
  5
30C
330
2FF
100
AcDbEntity
  8
Окна
100
AcDbPolyline
 90
4
 70
1
 10
30.0
 20
30.0
 10
1170.0
 20
30.0
 10
1170.0
 20
60.0
 10
30.0
 20
60.0
  0
LINE
  5
30D
330
2FF
100
AcDbEntity
  8
Окна
100
AcDbLine
 10
705.0
 20
185.0
 30
0.0
 11
1045.0
 21
185.0
 31
0.0
  0
LINE
  5
30E
330
2FF
100
AcDbEntity
  8
Окна
100
AcDbLine
 10
1045.0
 20
185.0
 30
0.0
 11
1045.0
 21
631.6666666666666
 31
0.0
  0
LINE
  5
30F
330
2FF
100
AcDbEntity
  8
Окна
100
AcDbLine
 10
1045.0
 20
631.6666666666666
 30
0.0
 11
705.0
 21
631.6666666666666
 31
0.0
  0
LINE
  5
310
330
2FF
100
AcDbEntity
  8
Окна
100
AcDbLine
 10
705.0
 20
631.6666666666666
 30
0.0
 11
705.0
 21
185.0
 31
0.0
  0
LINE
  5
311
330
2FF
100
AcDbEntity
  8
Окна
100
AcDbLine
 10
640.0
 20
120.0
 30
0.0
 11
705.0
 21
185.0
 31
0.0
  0
LINE
  5
312
330
2FF
100
AcDbEntity
  8
Окна
100
AcDbLine
 10
1110.0
 20
120.0
 30
0.0
 11
1045.0
 21
185.0
 31
0.0
  0
LINE
  5
313
330
2FF
100
AcDbEntity
  8
Окна
100
AcDbLine
 10
1110.0
 20
696.6666666666666
 30
0.0
 11
1045.0
 21
631.6666666666666
 31
0.0
  0
LINE
  5
314
330
2FF
100
AcDbEntity
  8
Окна
100
AcDbLine
 10
640.0
 20
696.6666666666666
 30
0.0
 11
705.0
 21
631.6666666666666
 31
0.0
  0
LINE
  5
315
330
2FF
100
AcDbEntity
  8
Штриховые
100
AcDbLine
 10
625.0
 20
105.0
 30
0.0
 11
1125.0
 21
408.3333333333333
 31
0.0
  0
LINE
  5
316
330
2FF
100
AcDbEntity
  8
Штриховые
100
AcDbLine
 10
625.0
 20
711.6666666666666
 30
0.0
 11
1125.0
 21
408.3333333333333
 31
0.0
  0
LINE
  5
317
330
2FF
100
AcDbEntity
  8
Окна
100
AcDbLine
 10
155.0
 20
841.6666666666666
 30
0.0
 11
495.0
 21
841.6666666666666
 31
0.0
  0
LINE
  5
318
330
2FF
100
AcDbEntity
  8
Окна
100
AcDbLine
 10
495.0
 20
841.6666666666666
 30
0.0
 11
495.0
 21
1288.3333333333333
 31
0.0
  0
LINE
  5
319
330
2FF
100
AcDbEntity
  8
Окна
100
AcDbLine
 10
495.0
 20
1288.3333333333333
 30
0.0
 11
155.0
 21
1288.3333333333333
 31
0.0
  0
LINE
  5
31A
330
2FF
100
AcDbEntity
  8
Окна
100
AcDbLine
 10
155.0
 20
1288.3333333333333
 30
0.0
 11
155.0
 21
841.6666666666666
 31
0.0
  0
LINE
  5
31B
330
2FF
100
AcDbEntity
  8
Окна
100
AcDbLine
 10
90.0
 20
776.6666666666666
 30
0.0
 11
155.0
 21
841.6666666666666
 31
0.0
  0
LINE
  5
31C
330
2FF
100
AcDbEntity
  8
Окна
100
AcDbLine
 10
560.0
 20
776.6666666666666
 30
0.0
 11
495.0
 21
841.6666666666666
 31
0.0
  0
LINE
  5
31D
330
2FF
100
AcDbEntity
  8
Окна
100
AcDbLine
 10
560.0
 20
1353.3333333333333
 30
0.0
 11
495.0
 21
1288.3333333333333
 31
0.0
  0
LINE
  5
31E
330
2FF
100
AcDbEntity
  8
Окна
100
AcDbLine
 10
90.0
 20
1353.3333333333333
 30
0.0
 11
155.0
 21
1288.3333333333333
 31
0.0
  0
LINE
  5
31F
330
2FF
100
AcDbEntity
  8
Штриховые
100
AcDbLine
 10
75.0
 20
761.6666666666666
 30
0.0
 11
575.0
 21
1065.0
 31
0.0
  0
LINE
  5
320
330
2FF
100
AcDbEntity
  8
Штриховые
100
AcDbLine
 10
75.0
 20
1368.3333333333333
 30
0.0
 11
575.0
 21
1065.0
 31
0.0
  0
LINE
  5
321
330
2FF
100
AcDbEntity
  8
Окна
100
AcDbLine
 10
705.0
 20
841.6666666666666
 30
0.0
 11
1045.0
 21
841.6666666666666
 31
0.0
  0
LINE
  5
322
330
2FF
100
AcDbEntity
  8
Окна
100
AcDbLine
 10
1045.0
 20
841.6666666666666
 30
0.0
 11
1045.0
 21
1288.3333333333333
 31
0.0
  0
LINE
  5
323
330
2FF
100
AcDbEntity
  8
Окна
100
AcDbLine
 10
1045.0
 20
1288.3333333333333
 30
0.0
 11
705.0
 21
1288.3333333333333
 31
0.0
  0
LINE
  5
324
330
2FF
100
AcDbEntity
  8
Окна
100
AcDbLine
 10
705.0
 20
1288.3333333333333
 30
0.0
 11
705.0
 21
841.6666666666666
 31
0.0
  0
LINE
  5
325
330
2FF
100
AcDbEntity
  8
Окна
100
AcDbLine
 10
640.0
 20
776.6666666666666
 30
0.0
 11
705.0
 21
841.6666666666666
 31
0.0
  0
LINE
  5
326
330
2FF
100
AcDbEntity
  8
Окна
100
AcDbLine
 10
1110.0
 20
776.6666666666666
 30
0.0
 11
1045.0
 21
841.6666666666666
 31
0.0
  0
LINE
  5
327
330
2FF
100
AcDbEntity
  8
Окна
100
AcDbLine
 10
1110.0
 20
1353.3333333333333
 30
0.0
 11
1045.0
 21
1288.3333333333333
 31
0.0
  0
LINE
  5
328
330
2FF
100
AcDbEntity
  8
Окна
100
AcDbLine
 10
640.0
 20
1353.3333333333333
 30
0.0
 11
705.0
 21
1288.3333333333333
 31
0.0
  0
LINE
  5
329
330
2FF
100
AcDbEntity
  8
Штриховые
100
AcDbLine
 10
625.0
 20
761.6666666666666
 30
0.0
 11
1125.0
 21
1065.0
 31
0.0
  0
LINE
  5
32A
330
2FF
100
AcDbEntity
  8
Штриховые
100
AcDbLine
 10
625.0
 20
1368.3333333333333
 30
0.0
 11
1125.0
 21
1065.0
 31
0.0
  0
LINE
  5
32B
330
2FF
100
AcDbEntity
  8
Штриховые
100
AcDbLine
 10
625.0
 20
761.6666666666666
 30
0.0
 11
875.0
 21
1368.3333333333333
 31
0.0
  0
LINE
  5
32C
330
2FF
100
AcDbEntity
  8
Штриховые
100
AcDbLine
 10
1125.0
 20
761.6666666666666
 30
0.0
 11
875.0
 21
1368.3333333333333
 31
0.0
  0
LINE
  5
32D
330
2FF
100
AcDbEntity
  8
Окна
100
AcDbLine
 10
155.0
 20
1498.3333333333333
 30
0.0
 11
495.0
 21
1498.3333333333333
 31
0.0
  0
LINE
  5
32E
330
2FF
100
AcDbEntity
  8
Окна
100
AcDbLine
 10
495.0
 20
1498.3333333333333
 30
0.0
 11
495.0
 21
1945.0
 31
0.0
  0
LINE
  5
32F
330
2FF
100
AcDbEntity
  8
Окна
100
AcDbLine
 10
495.0
 20
1945.0
 30
0.0
 11
155.0
 21
1945.0
 31
0.0
  0
LINE
  5
330
330
2FF
100
AcDbEntity
  8
Окна
100
AcDbLine
 10
155.0
 20
1945.0
 30
0.0
 11
155.0
 21
1498.3333333333333
 31
0.0
  0
LINE
  5
331
330
2FF
100
AcDbEntity
  8
Окна
100
AcDbLine
 10
90.0
 20
1433.3333333333333
 30
0.0
 11
155.0
 21
1498.3333333333333
 31
0.0
  0
LINE
  5
332
330
2FF
100
AcDbEntity
  8
Окна
100
AcDbLine
 10
560.0
 20
1433.3333333333333
 30
0.0
 11
495.0
 21
1498.3333333333333
 31
0.0
  0
LINE
  5
333
330
2FF
100
AcDbEntity
  8
Окна
100
AcDbLine
 10
560.0
 20
2010.0
 30
0.0
 11
495.0
 21
1945.0
 31
0.0
  0
LINE
  5
334
330
2FF
100
AcDbEntity
  8
Окна
100
AcDbLine
 10
90.0
 20
2010.0
 30
0.0
 11
155.0
 21
1945.0
 31
0.0
  0
LINE
  5
335
330
2FF
100
AcDbEntity
  8
Штриховые
100
AcDbLine
 10
75.0
 20
1418.3333333333333
 30
0.0
 11
325.0
 21
2025.0
 31
0.0
  0
LINE
  5
336
330
2FF
100
AcDbEntity
  8
Штриховые
100
AcDbLine
 10
575.0
 20
1418.3333333333333
 30
0.0
 11
325.0
 21
2025.0
 31
0.0
  0
ATTDEF
  5
337
330
2FF
100
AcDbEntity
  8
Текст
100
AcDbText
 10
0.0
 20
2410.0
 30
0.0
 40
30.0
  1
Пример 12
  7
Основной стиль
100
AcDbAttributeDefinition
  3
Объект
  2
OBJECT
 70
0
  0
ATTDEF
  5
338
330
2FF
100
AcDbEntity
  8
Текст
100
AcDbText
 10
0.0
 20
2360.0
 30
0.0
 40
30.0
  1
ОК-УЗ/1 шт.
  7
Основной стиль
100
AcDbAttributeDefinition
  3
Окно / кол-во
  2
WINDOW
 70
0
  0
ATTDEF
  5
339
330
2FF
100
AcDbEntity
  8
Текст
100
AcDbText
 10
0.0
 20
2310.0
 30
0.0
 40
30.0
  1
RAL8017/RAL9016
  7
Основной стиль
100
AcDbAttributeDefinition
  3
Цвет
  2
COLOR
 70
0
  0
ATTDEF
  5
33A
330
2FF
100
AcDbEntity
  8
Текст
100
AcDbText
 10
0.0
 20
2260.0
 30
0.0
 40
30.0
  1
Заполнение СПД42
  7
Основной стиль
100
AcDbAttributeDefinition
  3
Заполнение
  2
GLAZING
 70
0
  0
ATTDEF
  5
33B
330
2FF
100
AcDbEntity
  8
Текст
100
AcDbText
 10
0.0
 20
2210.0
 30
0.0
 40
30.0
  1
1200х2100
  7
Основной стиль
100
AcDbAttributeDefinition
  3
Габарит
  2
SIZE
 70
0
  0
ATTDEF
  5
33C
330
2FF
100
AcDbEntity
  8
Текст
100
AcDbText
 10
0.0
 20
2160.0
 30
0.0
 40
30.0
  1
2х3
  7
Основной стиль
100
AcDbAttributeDefinition
  3
Сетка
  2
GRID
 70
0
  0
TEXT
  5
33D
330
2FF
100
AcDbEntity
  8
Текст
100
AcDbText
 10
1200.0
 20
2160.0
 30
0.0
 40
30.0
  1
S=2.52 м²
  7
Основной стиль
 72
2
 11
1200.0
 21
2160.0
 31
0.0
100
AcDbText
 73
3
  0
DIMENSION
  5
33E
330
2FF
100
AcDbEntity
  8
Размеры
100
AcDbDimension
280
0
  3
Основной стиль
 10
30.0
 20
-60.0
 30
0.0
 11
315.0
 21
-60.0
 31
0.0
 70
32
 71
5
  1
<>
100
AcDbAlignedDimension
 13
30.0
 23
30.0
 33
0.0
 14
600.0
 24
30.0
 34
0.0
 50
0.0
100
AcDbRotatedDimension
  0
DIMENSION
  5
33F
330
2FF
100
AcDbEntity
  8
Размеры
100
AcDbDimension
280
0
  3
Основной стиль
 10
600.0
 20
-60.0
 30
0.0
 11
885.0
 21
-60.0
 31
0.0
 70
32
 71
5
  1
<>
100
AcDbAlignedDimension
 13
600.0
 23
30.0
 33
0.0
 14
1170.0
 24
30.0
 34
0.0
 50
0.0
100
AcDbRotatedDimension
  0
DIMENSION
  5
340
330
2FF
100
AcDbEntity
  8
Размеры
100
AcDbDimension
280
0
  3
Основной стиль
 10
30.0
 20
-120.0
 30
0.0
 11
600.0
 21
-120.0
 31
0.0
 70
32
 71
5
  1
<>
100
AcDbAlignedDimension
 13
30.0
 23
30.0
 33
0.0
 14
1170.0
 24
30.0
 34
0.0
 50
0.0
100
AcDbRotatedDimension
  0
DIMENSION
  5
341
330
2FF
100
AcDbEntity
  8
Размеры
100
AcDbDimension
280
0
  3
Основной стиль
 10
0.0
 20
-180.0
 30
0.0
 11
600.0
 21
-180.0
 31
0.0
 70
32
 71
5
  1
<>
100
AcDbAlignedDimension
 13
0.0
 23
0.0
 33
0.0
 14
1200.0
 24
0.0
 34
0.0
 50
0.0
100
AcDbRotatedDimension
  0
DIMENSION
  5
342
330
2FF
100
AcDbEntity
  8
Размеры
100
AcDbDimension
280
0
  3
Основной стиль
 10
0.0
 20
-120.0
 30
0.0
 11
15.0
 21
-120.0
 31
0.0
 70
32
 71
5
  1
<>
100
AcDbAlignedDimension
 13
0.0
 23
0.0
 33
0.0
 14
30.0
 24
0.0
 34
0.0
 50
0.0
100
AcDbRotatedDimension
  0
DIMENSION
  5
343
330
2FF
100
AcDbEntity
  8
Размеры
100
AcDbDimension
280
0
  3
Основной стиль
 10
1170.0
 20
-120.0
 30
0.0
 11
1185.0
 21
-120.0
 31
0.0
 70
32
 71
5
  1
<>
100
AcDbAlignedDimension
 13
1170.0
 23
0.0
 33
0.0
 14
1200.0
 24
0.0
 34
0.0
 50
0.0
100
AcDbRotatedDimension
  0
DIMENSION
  5
344
330
2FF
100
AcDbEntity
  8
Размеры
100
AcDbDimension
280
0
  3
Основной стиль
 10
1260.0
 20
60.0
 30
0.0
 11
1260.0
 21
398.3333333333333
 31
0.0
 70
32
 71
5
  1
<>
100
AcDbAlignedDimension
 13
1170.0
 23
60.0
 33
0.0
 14
1170.0
 24
736.6666666666666
 34
0.0
 50
90.0
100
AcDbRotatedDimension
  0
DIMENSION
  5
345
330
2FF
100
AcDbEntity
  8
Размеры
100
AcDbDimension
280
0
  3
Основной стиль
 10
1260.0
 20
736.6666666666666
 30
0.0
 11
1260.0
 21
1065.0
 31
0.0
 70
32
 71
5
  1
<>
100
AcDbAlignedDimension
 13
1170.0
 23
736.6666666666666
 33
0.0
 14
1170.0
 24
1393.3333333333333
 34
0.0
 50
90.0
100
AcDbRotatedDimension
  0
DIMENSION
  5
346
330
2FF
100
AcDbEntity
  8
Размеры
100
AcDbDimension
280
0
  3
Основной стиль
 10
1260.0
 20
1393.3333333333333
 30
0.0
 11
1260.0
 21
1731.6666666666665
 31
0.0
 70
32
 71
5
  1
<>
100
AcDbAlignedDimension
 13
1170.0
 23
1393.3333333333333
 33
0.0
 14
1170.0
 24
2070.0
 34
0.0
 50
90.0
100
AcDbRotatedDimension
  0
DIMENSION
  5
347
330
2FF
100
AcDbEntity
  8
Размеры
100
AcDbDimension
280
0
  3
Основной стиль
 10
1320.0
 20
60.0
 30
0.0
 11
1320.0
 21
1065.0
 31
0.0
 70
32
 71
5
  1
<>
100
AcDbAlignedDimension
 13
1170.0
 23
60.0
 33
0.0
 14
1170.0
 24
2070.0
 34
0.0
 50
90.0
100
AcDbRotatedDimension
  0
DIMENSION
  5
348
330
2FF
100
AcDbEntity
  8
Размеры
100
AcDbDimension
280
0
  3
Основной стиль
 10
1320.0
 20
30.0
 30
0.0
 11
1320.0
 21
45.0
 31
0.0
 70
32
 71
5
  1
<>
100
AcDbAlignedDimension
 13
1170.0
 23
30.0
 33
0.0
 14
1170.0
 24
60.0
 34
0.0
 50
90.0
100
AcDbRotatedDimension
  0
DIMENSION
  5
349
330
2FF
100
AcDbEntity
  8
Размеры
100
AcDbDimension
280
0
  3
Основной стиль
 10
1380.0
 20
0.0
 30
0.0
 11
1380.0
 21
1050.0
 31
0.0
 70
32
 71
5
  1
<>
100
AcDbAlignedDimension
 13
1200.0
 23
0.0
 33
0.0
 14
1200.0
 24
2100.0
 34
0.0
 50
90.0
100
AcDbRotatedDimension
  0
DIMENSION
  5
34A
330
2FF
100
AcDbEntity
  8
Размеры
100
AcDbDimension
280
0
  3
Основной стиль
 10
1320.0
 20
0.0
 30
0.0
 11
1320.0
 21
15.0
 31
0.0
 70
32
 71
5
  1
<>
100
AcDbAlignedDimension
 13
1200.0
 23
0.0
 33
0.0
 14
1200.0
 24
30.0
 34
0.0
 50
90.0
100
AcDbRotatedDimension
  0
DIMENSION
  5
34B
330
2FF
100
AcDbEntity
  8
Размеры
100
AcDbDimension
280
0
  3
Основной стиль
 10
1320.0
 20
2070.0
 30
0.0
 11
1320.0
 21
2085.0
 31
0.0
 70
32
 71
5
  1
<>
100
AcDbAlignedDimension
 13
1200.0
 23
2070.0
 33
0.0
 14
1200.0
 24
2100.0
 34
0.0
 50
90.0
100
AcDbRotatedDimension
  0
ENDBLK
  5
301
330
2FF
100
AcDbEntity
  8
0
100
AcDbBlockEnd
  0
ENDSEC
  0
SECTION
  2
ENTITIES
  0
INSERT
  5
34C
330
17
100
AcDbEntity
  8
Окна
100
AcDbBlockReference
 66
1
  2
Пример 01 ОК-1.1 900х900 1x1 Снаружи #01
 10
0.0
 20
0.0
 30
0.0
  0
ATTRIB
  5
34E
330
17
100
AcDbEntity
  8
Текст
100
AcDbText
 10
0.0
 20
1210.0
 30
0.0
 40
30.0
  1
Пример 01
  7
Основной стиль
 11
0.0
 21
1210.0
 31
0.0
100
AcDbAttribute
  2
OBJECT
 70
0
  0
ATTRIB
  5
34F
330
17
100
AcDbEntity
  8
Текст
100
AcDbText
 10
0.0
 20
1160.0
 30
0.0
 40
30.0
  1
ОК-1.1/1 шт.
  7
Основной стиль
 11
0.0
 21
1160.0
 31
0.0
100
AcDbAttribute
  2
WINDOW
 70
0
  0
ATTRIB
  5
350
330
17
100
AcDbEntity
  8
Текст
100
AcDbText
 10
0.0
 20
1110.0
 30
0.0
 40
30.0
  1
RAL8017/RAL9016
  7
Основной стиль
 11
0.0
 21
1110.0
 31
0.0
100
AcDbAttribute
  2
COLOR
 70
0
  0
ATTRIB
  5
351
330
17
100
AcDbEntity
  8
Текст
100
AcDbText
 10
0.0
 20
1060.0
 30
0.0
 40
30.0
  1
Заполнение СПД42
  7
Основной стиль
 11
0.0
 21
1060.0
 31
0.0
100
AcDbAttribute
  2
GLAZING
 70
0
  0
ATTRIB
  5
352
330
17
100
AcDbEntity
  8
Текст
100
AcDbText
 10
0.0
 20
1010.0
 30
0.0
 40
30.0
  1
900х900
  7
Основной стиль
 11
0.0
 21
1010.0
 31
0.0
100
AcDbAttribute
  2
SIZE
 70
0
  0
ATTRIB
  5
353
330
17
100
AcDbEntity
  8
Текст
100
AcDbText
 10
0.0
 20
960.0
 30
0.0
 40
30.0
  1
1х1
  7
Основной стиль
 11
0.0
 21
960.0
 31
0.0
100
AcDbAttribute
  2
GRID
 70
0
  0
SEQEND
  5
34D
330
34C
100
AcDbEntity
  8
Окна
  0
TEXT
  5
354
330
17
100
AcDbEntity
  8
Текст
100
AcDbText
 10
0.0
 20
0.0
 30
0.0
 40
40.0
  1
01. Пример 01 ОК-1.1 900х900 1x1 Снаружи #01
  7
Основной стиль
100
AcDbText
  0
INSERT
  5
355
330
17
100
AcDbEntity
  8
Окна
100
AcDbBlockReference
 66
1
  2
Пример 02 ОК-1.2 1000х1200 1x1 Снаружи #02
 10
3500.0
 20
0.0
 30
0.0
  0
ATTRIB
  5
357
330
17
100
AcDbEntity
  8
Текст
100
AcDbText
 10
3500.0
 20
1510.0
 30
0.0
 40
30.0
  1
Пример 02
  7
Основной стиль
 11
3500.0
 21
1510.0
 31
0.0
100
AcDbAttribute
  2
OBJECT
 70
0
  0
ATTRIB
  5
358
330
17
100
AcDbEntity
  8
Текст
100
AcDbText
 10
3500.0
 20
1460.0
 30
0.0
 40
30.0
  1
ОК-1.2/1 шт.
  7
Основной стиль
 11
3500.0
 21
1460.0
 31
0.0
100
AcDbAttribute
  2
WINDOW
 70
0
  0
ATTRIB
  5
359
330
17
100
AcDbEntity
  8
Текст
100
AcDbText
 10
3500.0
 20
1410.0
 30
0.0
 40
30.0
  1
RAL8017/RAL9016
  7
Основной стиль
 11
3500.0
 21
1410.0
 31
0.0
100
AcDbAttribute
  2
COLOR
 70
0
  0
ATTRIB
  5
35A
330
17
100
AcDbEntity
  8
Текст
100
AcDbText
 10
3500.0
 20
1360.0
 30
0.0
 40
30.0
  1
Заполнение СПД42
  7
Основной стиль
 11
3500.0
 21
1360.0
 31
0.0
100
AcDbAttribute
  2
GLAZING
 70
0
  0
ATTRIB
  5
35B
330
17
100
AcDbEntity
  8
Текст
100
AcDbText
 10
3500.0
 20
1310.0
 30
0.0
 40
30.0
  1
1000х1200
  7
Основной стиль
 11
3500.0
 21
1310.0
 31
0.0
100
AcDbAttribute
  2
SIZE
 70
0
  0
ATTRIB
  5
35C
330
17
100
AcDbEntity
  8
Текст
100
AcDbText
 10
3500.0
 20
1260.0
 30
0.0
 40
30.0
  1
1х1
  7
Основной стиль
 11
3500.0
 21
1260.0
 31
0.0
100
AcDbAttribute
  2
GRID
 70
0
  0
SEQEND
  5
356
330
355
100
AcDbEntity
  8
Окна
  0
TEXT
  5
35D
330
17
100
AcDbEntity
  8
Текст
100
AcDbText
 10
0.0
 20
0.0
 30
0.0
 40
40.0
  1
02. Пример 02 ОК-1.2 1000х1200 1x1 Снаружи #02
  7
Основной стиль
100
AcDbText
  0
INSERT
  5
35E
330
17
100
AcDbEntity
  8
Окна
100
AcDbBlockReference
 66
1
  2
Пример 03 ОК-2.1 1400х1500 2x1 Снаружи #03
 10
7000.0
 20
0.0
 30
0.0
  0
ATTRIB
  5
360
330
17
100
AcDbEntity
  8
Текст
100
AcDbText
 10
7000.0
 20
1810.0
 30
0.0
 40
30.0
  1
Пример 03
  7
Основной стиль
 11
7000.0
 21
1810.0
 31
0.0
100
AcDbAttribute
  2
OBJECT
 70
0
  0
ATTRIB
  5
361
330
17
100
AcDbEntity
  8
Текст
100
AcDbText
 10
7000.0
 20
1760.0
 30
0.0
 40
30.0
  1
ОК-2.1/1 шт.
  7
Основной стиль
 11
7000.0
 21
1760.0
 31
0.0
100
AcDbAttribute
  2
WINDOW
 70
0
  0
ATTRIB
  5
362
330
17
100
AcDbEntity
  8
Текст
100
AcDbText
 10
7000.0
 20
1710.0
 30
0.0
 40
30.0
  1
RAL8017/RAL9016
  7
Основной стиль
 11
7000.0
 21
1710.0
 31
0.0
100
AcDbAttribute
  2
COLOR
 70
0
  0
ATTRIB
  5
363
330
17
100
AcDbEntity
  8
Текст
100
AcDbText
 10
7000.0
 20
1660.0
 30
0.0
 40
30.0
  1
Заполнение СПД42
  7
Основной стиль
 11
7000.0
 21
1660.0
 31
0.0
100
AcDbAttribute
  2
GLAZING
 70
0
  0
ATTRIB
  5
364
330
17
100
AcDbEntity
  8
Текст
100
AcDbText
 10
7000.0
 20
1610.0
 30
0.0
 40
30.0
  1
1400х1500
  7
Основной стиль
 11
7000.0
 21
1610.0
 31
0.0
100
AcDbAttribute
  2
SIZE
 70
0
  0
ATTRIB
  5
365
330
17
100
AcDbEntity
  8
Текст
100
AcDbText
 10
7000.0
 20
1560.0
 30
0.0
 40
30.0
  1
2х1
  7
Основной стиль
 11
7000.0
 21
1560.0
 31
0.0
100
AcDbAttribute
  2
GRID
 70
0
  0
SEQEND
  5
35F
330
35E
100
AcDbEntity
  8
Окна
  0
TEXT
  5
366
330
17
100
AcDbEntity
  8
Текст
100
AcDbText
 10
0.0
 20
0.0
 30
0.0
 40
40.0
  1
03. Пример 03 ОК-2.1 1400х1500 2x1 Снаружи #03
  7
Основной стиль
100
AcDbText
  0
INSERT
  5
367
330
17
100
AcDbEntity
  8
Окна
100
AcDbBlockReference
 66
1
  2
Пример 04 ОК-2.2 1800х1800 2x2 Снаружи #04
 10
0.0
 20
-3500.0
 30
0.0
  0
ATTRIB
  5
369
330
17
100
AcDbEntity
  8
Текст
100
AcDbText
 10
0.0
 20
-1390.0
 30
0.0
 40
30.0
  1
Пример 04
  7
Основной стиль
 11
0.0
 21
-1390.0
 31
0.0
100
AcDbAttribute
  2
OBJECT
 70
0
  0
ATTRIB
  5
36A
330
17
100
AcDbEntity
  8
Текст
100
AcDbText
 10
0.0
 20
-1440.0
 30
0.0
 40
30.0
  1
ОК-2.2/1 шт.
  7
Основной стиль
 11
0.0
 21
-1440.0
 31
0.0
100
AcDbAttribute
  2
WINDOW
 70
0
  0
ATTRIB
  5
36B
330
17
100
AcDbEntity
  8
Текст
100
AcDbText
 10
0.0
 20
-1490.0
 30
0.0
 40
30.0
  1
RAL8017/RAL9016
  7
Основной стиль
 11
0.0
 21
-1490.0
 31
0.0
100
AcDbAttribute
  2
COLOR
 70
0
  0
ATTRIB
  5
36C
330
17
100
AcDbEntity
  8
Текст
100
AcDbText
 10
0.0
 20
-1540.0
 30
0.0
 40
30.0
  1
Заполнение СПД42
  7
Основной стиль
 11
0.0
 21
-1540.0
 31
0.0
100
AcDbAttribute
  2
GLAZING
 70
0
  0
ATTRIB
  5
36D
330
17
100
AcDbEntity
  8
Текст
100
AcDbText
 10
0.0
 20
-1590.0
 30
0.0
 40
30.0
  1
1800х1800
  7
Основной стиль
 11
0.0
 21
-1590.0
 31
0.0
100
AcDbAttribute
  2
SIZE
 70
0
  0
ATTRIB
  5
36E
330
17
100
AcDbEntity
  8
Текст
100
AcDbText
 10
0.0
 20
-1640.0
 30
0.0
 40
30.0
  1
2х2
  7
Основной стиль
 11
0.0
 21
-1640.0
 31
0.0
100
AcDbAttribute
  2
GRID
 70
0
  0
SEQEND
  5
368
330
367
100
AcDbEntity
  8
Окна
  0
TEXT
  5
36F
330
17
100
AcDbEntity
  8
Текст
100
AcDbText
 10
0.0
 20
0.0
 30
0.0
 40
40.0
  1
04. Пример 04 ОК-2.2 1800х1800 2x2 Снаружи #04
  7
Основной стиль
100
AcDbText
  0
INSERT
  5
370
330
17
100
AcDbEntity
  8
Окна
100
AcDbBlockReference
 66
1
  2
Пример 05 ОК-3.2 1500х1500 3x2 Снаружи #05
 10
3500.0
 20
-3500.0
 30
0.0
  0
ATTRIB
  5
372
330
17
100
AcDbEntity
  8
Текст
100
AcDbText
 10
3500.0
 20
-1690.0
 30
0.0
 40
30.0
  1
Пример 05
  7
Основной стиль
 11
3500.0
 21
-1690.0
 31
0.0
100
AcDbAttribute
  2
OBJECT
 70
0
  0
ATTRIB
  5
373
330
17
100
AcDbEntity
  8
Текст
100
AcDbText
 10
3500.0
 20
-1740.0
 30
0.0
 40
30.0
  1
ОК-3.2/1 шт.
  7
Основной стиль
 11
3500.0
 21
-1740.0
 31
0.0
100
AcDbAttribute
  2
WINDOW
 70
0
  0
ATTRIB
  5
374
330
17
100
AcDbEntity
  8
Текст
100
AcDbText
 10
3500.0
 20
-1790.0
 30
0.0
 40
30.0
  1
RAL8017/RAL9016
  7
Основной стиль
 11
3500.0
 21
-1790.0
 31
0.0
100
AcDbAttribute
  2
COLOR
 70
0
  0
ATTRIB
  5
375
330
17
100
AcDbEntity
  8
Текст
100
AcDbText
 10
3500.0
 20
-1840.0
 30
0.0
 40
30.0
  1
Заполнение СПД42
  7
Основной стиль
 11
3500.0
 21
-1840.0
 31
0.0
100
AcDbAttribute
  2
GLAZING
 70
0
  0
ATTRIB
  5
376
330
17
100
AcDbEntity
  8
Текст
100
AcDbText
 10
3500.0
 20
-1890.0
 30
0.0
 40
30.0
  1
1500х1500
  7
Основной стиль
 11
3500.0
 21
-1890.0
 31
0.0
100
AcDbAttribute
  2
SIZE
 70
0
  0
ATTRIB
  5
377
330
17
100
AcDbEntity
  8
Текст
100
AcDbText
 10
3500.0
 20
-1940.0
 30
0.0
 40
30.0
  1
3х2
  7
Основной стиль
 11
3500.0
 21
-1940.0
 31
0.0
100
AcDbAttribute
  2
GRID
 70
0
  0
SEQEND
  5
371
330
370
100
AcDbEntity
  8
Окна
  0
TEXT
  5
378
330
17
100
AcDbEntity
  8
Текст
100
AcDbText
 10
0.0
 20
0.0
 30
0.0
 40
40.0
  1
05. Пример 05 ОК-3.2 1500х1500 3x2 Снаружи #05
  7
Основной стиль
100
AcDbText
  0
INSERT
  5
379
330
17
100
AcDbEntity
  8
Окна
100
AcDbBlockReference
 66
1
  2
Пример 06 ОК-3.2Д 1700х1700 3x2 Снаружи #06
 10
7000.0
 20
-3500.0
 30
0.0
  0
ATTRIB
  5
37B
330
17
100
AcDbEntity
  8
Текст
100
AcDbText
 10
7000.0
 20
-1490.0
 30
0.0
 40
30.0
  1
Пример 06
  7
Основной стиль
 11
7000.0
 21
-1490.0
 31
0.0
100
AcDbAttribute
  2
OBJECT
 70
0
  0
ATTRIB
  5
37C
330
17
100
AcDbEntity
  8
Текст
100
AcDbText
 10
7000.0
 20
-1540.0
 30
0.0
 40
30.0
  1
ОК-3.2Д/1 шт.
  7
Основной стиль
 11
7000.0
 21
-1540.0
 31
0.0
100
AcDbAttribute
  2
WINDOW
 70
0
  0
ATTRIB
  5
37D
330
17
100
AcDbEntity
  8
Текст
100
AcDbText
 10
7000.0
 20
-1590.0
 30
0.0
 40
30.0
  1
RAL8017/RAL9016
  7
Основной стиль
 11
7000.0
 21
-1590.0
 31
0.0
100
AcDbAttribute
  2
COLOR
 70
0
  0
ATTRIB
  5
37E
330
17
100
AcDbEntity
  8
Текст
100
AcDbText
 10
7000.0
 20
-1640.0
 30
0.0
 40
30.0
  1
Заполнение СПД42
  7
Основной стиль
 11
7000.0
 21
-1640.0
 31
0.0
100
AcDbAttribute
  2
GLAZING
 70
0
  0
ATTRIB
  5
37F
330
17
100
AcDbEntity
  8
Текст
100
AcDbText
 10
7000.0
 20
-1690.0
 30
0.0
 40
30.0
  1
1700х1700
  7
Основной стиль
 11
7000.0
 21
-1690.0
 31
0.0
100
AcDbAttribute
  2
SIZE
 70
0
  0
ATTRIB
  5
380
330
17
100
AcDbEntity
  8
Текст
100
AcDbText
 10
7000.0
 20
-1740.0
 30
0.0
 40
30.0
  1
3х2
  7
Основной стиль
 11
7000.0
 21
-1740.0
 31
0.0
100
AcDbAttribute
  2
GRID
 70
0
  0
SEQEND
  5
37A
330
379
100
AcDbEntity
  8
Окна
  0
TEXT
  5
381
330
17
100
AcDbEntity
  8
Текст
100
AcDbText
 10
0.0
 20
0.0
 30
0.0
 40
40.0
  1
06. Пример 06 ОК-3.2Д 1700х1700 3x2 Снаружи #06
  7
Основной стиль
100
AcDbText
  0
INSERT
  5
382
330
17
100
AcDbEntity
  8
Окна
100
AcDbBlockReference
 66
1
  2
Пример 07 ОК-3.3 2100х2100 3x3 Снаружи #07
 10
0.0
 20
-7000.0
 30
0.0
  0
ATTRIB
  5
384
330
17
100
AcDbEntity
  8
Текст
100
AcDbText
 10
0.0
 20
-4590.0
 30
0.0
 40
30.0
  1
Пример 07
  7
Основной стиль
 11
0.0
 21
-4590.0
 31
0.0
100
AcDbAttribute
  2
OBJECT
 70
0
  0
ATTRIB
  5
385
330
17
100
AcDbEntity
  8
Текст
100
AcDbText
 10
0.0
 20
-4640.0
 30
0.0
 40
30.0
  1
ОК-3.3/1 шт.
  7
Основной стиль
 11
0.0
 21
-4640.0
 31
0.0
100
AcDbAttribute
  2
WINDOW
 70
0
  0
ATTRIB
  5
386
330
17
100
AcDbEntity
  8
Текст
100
AcDbText
 10
0.0
 20
-4690.0
 30
0.0
 40
30.0
  1
RAL8017/RAL9016
  7
Основной стиль
 11
0.0
 21
-4690.0
 31
0.0
100
AcDbAttribute
  2
COLOR
 70
0
  0
ATTRIB
  5
387
330
17
100
AcDbEntity
  8
Текст
100
AcDbText
 10
0.0
 20
-4740.0
 30
0.0
 40
30.0
  1
Заполнение СПД42
  7
Основной стиль
 11
0.0
 21
-4740.0
 31
0.0
100
AcDbAttribute
  2
GLAZING
 70
0
  0
ATTRIB
  5
388
330
17
100
AcDbEntity
  8
Текст
100
AcDbText
 10
0.0
 20
-4790.0
 30
0.0
 40
30.0
  1
2100х2100
  7
Основной стиль
 11
0.0
 21
-4790.0
 31
0.0
100
AcDbAttribute
  2
SIZE
 70
0
  0
ATTRIB
  5
389
330
17
100
AcDbEntity
  8
Текст
100
AcDbText
 10
0.0
 20
-4840.0
 30
0.0
 40
30.0
  1
3х3
  7
Основной стиль
 11
0.0
 21
-4840.0
 31
0.0
100
AcDbAttribute
  2
GRID
 70
0
  0
SEQEND
  5
383
330
382
100
AcDbEntity
  8
Окна
  0
TEXT
  5
38A
330
17
100
AcDbEntity
  8
Текст
100
AcDbText
 10
0.0
 20
0.0
 30
0.0
 40
40.0
  1
07. Пример 07 ОК-3.3 2100х2100 3x3 Снаружи #07
  7
Основной стиль
100
AcDbText
  0
INSERT
  5
38B
330
17
100
AcDbEntity
  8
Окна
100
AcDbBlockReference
 66
1
  2
Пример 08 ОК-4.3 2400х1800 4x3 Снаружи #08
 10
3500.0
 20
-7000.0
 30
0.0
  0
ATTRIB
  5
38D
330
17
100
AcDbEntity
  8
Текст
100
AcDbText
 10
3500.0
 20
-4890.0
 30
0.0
 40
30.0
  1
Пример 08
  7
Основной стиль
 11
3500.0
 21
-4890.0
 31
0.0
100
AcDbAttribute
  2
OBJECT
 70
0
  0
ATTRIB
  5
38E
330
17
100
AcDbEntity
  8
Текст
100
AcDbText
 10
3500.0
 20
-4940.0
 30
0.0
 40
30.0
  1
ОК-4.3/1 шт.
  7
Основной стиль
 11
3500.0
 21
-4940.0
 31
0.0
100
AcDbAttribute
  2
WINDOW
 70
0
  0
ATTRIB
  5
38F
330
17
100
AcDbEntity
  8
Текст
100
AcDbText
 10
3500.0
 20
-4990.0
 30
0.0
 40
30.0
  1
RAL8017/RAL9016
  7
Основной стиль
 11
3500.0
 21
-4990.0
 31
0.0
100
AcDbAttribute
  2
COLOR
 70
0
  0
ATTRIB
  5
390
330
17
100
AcDbEntity
  8
Текст
100
AcDbText
 10
3500.0
 20
-5040.0
 30
0.0
 40
30.0
  1
Заполнение СПД42
  7
Основной стиль
 11
3500.0
 21
-5040.0
 31
0.0
100
AcDbAttribute
  2
GLAZING
 70
0
  0
ATTRIB
  5
391
330
17
100
AcDbEntity
  8
Текст
100
AcDbText
 10
3500.0
 20
-5090.0
 30
0.0
 40
30.0
  1
2400х1800
  7
Основной стиль
 11
3500.0
 21
-5090.0
 31
0.0
100
AcDbAttribute
  2
SIZE
 70
0
  0
ATTRIB
  5
392
330
17
100
AcDbEntity
  8
Текст
100
AcDbText
 10
3500.0
 20
-5140.0
 30
0.0
 40
30.0
  1
4х3
  7
Основной стиль
 11
3500.0
 21
-5140.0
 31
0.0
100
AcDbAttribute
  2
GRID
 70
0
  0
SEQEND
  5
38C
330
38B
100
AcDbEntity
  8
Окна
  0
TEXT
  5
393
330
17
100
AcDbEntity
  8
Текст
100
AcDbText
 10
0.0
 20
0.0
 30
0.0
 40
40.0
  1
08. Пример 08 ОК-4.3 2400х1800 4x3 Снаружи #08
  7
Основной стиль
100
AcDbText
  0
INSERT
  5
394
330
17
100
AcDbEntity
  8
Окна
100
AcDbBlockReference
 66
1
  2
Пример 09 ОК-6.3 3600х2000 6x3 Снаружи #09
 10
7000.0
 20
-7000.0
 30
0.0
  0
ATTRIB
  5
396
330
17
100
AcDbEntity
  8
Текст
100
AcDbText
 10
7000.0
 20
-4690.0
 30
0.0
 40
30.0
  1
Пример 09
  7
Основной стиль
 11
7000.0
 21
-4690.0
 31
0.0
100
AcDbAttribute
  2
OBJECT
 70
0
  0
ATTRIB
  5
397
330
17
100
AcDbEntity
  8
Текст
100
AcDbText
 10
7000.0
 20
-4740.0
 30
0.0
 40
30.0
  1
ОК-6.3/1 шт.
  7
Основной стиль
 11
7000.0
 21
-4740.0
 31
0.0
100
AcDbAttribute
  2
WINDOW
 70
0
  0
ATTRIB
  5
398
330
17
100
AcDbEntity
  8
Текст
100
AcDbText
 10
7000.0
 20
-4790.0
 30
0.0
 40
30.0
  1
RAL8017/RAL9016
  7
Основной стиль
 11
7000.0
 21
-4790.0
 31
0.0
100
AcDbAttribute
  2
COLOR
 70
0
  0
ATTRIB
  5
399
330
17
100
AcDbEntity
  8
Текст
100
AcDbText
 10
7000.0
 20
-4840.0
 30
0.0
 40
30.0
  1
Заполнение СПД42
  7
Основной стиль
 11
7000.0
 21
-4840.0
 31
0.0
100
AcDbAttribute
  2
GLAZING
 70
0
  0
ATTRIB
  5
39A
330
17
100
AcDbEntity
  8
Текст
100
AcDbText
 10
7000.0
 20
-4890.0
 30
0.0
 40
30.0
  1
3600х2000
  7
Основной стиль
 11
7000.0
 21
-4890.0
 31
0.0
100
AcDbAttribute
  2
SIZE
 70
0
  0
ATTRIB
  5
39B
330
17
100
AcDbEntity
  8
Текст
100
AcDbText
 10
7000.0
 20
-4940.0
 30
0.0
 40
30.0
  1
6х3
  7
Основной стиль
 11
7000.0
 21
-4940.0
 31
0.0
100
AcDbAttribute
  2
GRID
 70
0
  0
SEQEND
  5
395
330
394
100
AcDbEntity
  8
Окна
  0
TEXT
  5
39C
330
17
100
AcDbEntity
  8
Текст
100
AcDbText
 10
0.0
 20
0.0
 30
0.0
 40
40.0
  1
09. Пример 09 ОК-6.3 3600х2000 6x3 Снаружи #09
  7
Основной стиль
100
AcDbText
  0
INSERT
  5
39D
330
17
100
AcDbEntity
  8
Окна
100
AcDbBlockReference
 66
1
  2
Пример 10 ОК-8.4 4800х3000 8x4 Снаружи #10
 10
0.0
 20
-10500.0
 30
0.0
  0
ATTRIB
  5
39F
330
17
100
AcDbEntity
  8
Текст
100
AcDbText
 10
0.0
 20
-7190.0
 30
0.0
 40
30.0
  1
Пример 10
  7
Основной стиль
 11
0.0
 21
-7190.0
 31
0.0
100
AcDbAttribute
  2
OBJECT
 70
0
  0
ATTRIB
  5
3A0
330
17
100
AcDbEntity
  8
Текст
100
AcDbText
 10
0.0
 20
-7240.0
 30
0.0
 40
30.0
  1
ОК-8.4/1 шт.
  7
Основной стиль
 11
0.0
 21
-7240.0
 31
0.0
100
AcDbAttribute
  2
WINDOW
 70
0
  0
ATTRIB
  5
3A1
330
17
100
AcDbEntity
  8
Текст
100
AcDbText
 10
0.0
 20
-7290.0
 30
0.0
 40
30.0
  1
RAL8017/RAL9016
  7
Основной стиль
 11
0.0
 21
-7290.0
 31
0.0
100
AcDbAttribute
  2
COLOR
 70
0
  0
ATTRIB
  5
3A2
330
17
100
AcDbEntity
  8
Текст
100
AcDbText
 10
0.0
 20
-7340.0
 30
0.0
 40
30.0
  1
Заполнение СПД42
  7
Основной стиль
 11
0.0
 21
-7340.0
 31
0.0
100
AcDbAttribute
  2
GLAZING
 70
0
  0
ATTRIB
  5
3A3
330
17
100
AcDbEntity
  8
Текст
100
AcDbText
 10
0.0
 20
-7390.0
 30
0.0
 40
30.0
  1
4800х3000
  7
Основной стиль
 11
0.0
 21
-7390.0
 31
0.0
100
AcDbAttribute
  2
SIZE
 70
0
  0
ATTRIB
  5
3A4
330
17
100
AcDbEntity
  8
Текст
100
AcDbText
 10
0.0
 20
-7440.0
 30
0.0
 40
30.0
  1
8х4
  7
Основной стиль
 11
0.0
 21
-7440.0
 31
0.0
100
AcDbAttribute
  2
GRID
 70
0
  0
SEQEND
  5
39E
330
39D
100
AcDbEntity
  8
Окна
  0
TEXT
  5
3A5
330
17
100
AcDbEntity
  8
Текст
100
AcDbText
 10
0.0
 20
0.0
 30
0.0
 40
40.0
  1
10. Пример 10 ОК-8.4 4800х3000 8x4 Снаружи #10
  7
Основной стиль
100
AcDbText
  0
INSERT
  5
3A6
330
17
100
AcDbEntity
  8
Окна
100
AcDbBlockReference
 66
1
  2
Пример 11 ОК-2.2П 1500х1500 2x2 Снаружи #11
 10
3500.0
 20
-10500.0
 30
0.0
  0
ATTRIB
  5
3A8
330
17
100
AcDbEntity
  8
Текст
100
AcDbText
 10
3500.0
 20
-8690.0
 30
0.0
 40
30.0
  1
Пример 11
  7
Основной стиль
 11
3500.0
 21
-8690.0
 31
0.0
100
AcDbAttribute
  2
OBJECT
 70
0
  0
ATTRIB
  5
3A9
330
17
100
AcDbEntity
  8
Текст
100
AcDbText
 10
3500.0
 20
-8740.0
 30
0.0
 40
30.0
  1
ОК-2.2П/1 шт.
  7
Основной стиль
 11
3500.0
 21
-8740.0
 31
0.0
100
AcDbAttribute
  2
WINDOW
 70
0
  0
ATTRIB
  5
3AA
330
17
100
AcDbEntity
  8
Текст
100
AcDbText
 10
3500.0
 20
-8790.0
 30
0.0
 40
30.0
  1
RAL8017/RAL9016
  7
Основной стиль
 11
3500.0
 21
-8790.0
 31
0.0
100
AcDbAttribute
  2
COLOR
 70
0
  0
ATTRIB
  5
3AB
330
17
100
AcDbEntity
  8
Текст
100
AcDbText
 10
3500.0
 20
-8840.0
 30
0.0
 40
30.0
  1
Заполнение СПД42
  7
Основной стиль
 11
3500.0
 21
-8840.0
 31
0.0
100
AcDbAttribute
  2
GLAZING
 70
0
  0
ATTRIB
  5
3AC
330
17
100
AcDbEntity
  8
Текст
100
AcDbText
 10
3500.0
 20
-8890.0
 30
0.0
 40
30.0
  1
1500х1500
  7
Основной стиль
 11
3500.0
 21
-8890.0
 31
0.0
100
AcDbAttribute
  2
SIZE
 70
0
  0
ATTRIB
  5
3AD
330
17
100
AcDbEntity
  8
Текст
100
AcDbText
 10
3500.0
 20
-8940.0
 30
0.0
 40
30.0
  1
2х2
  7
Основной стиль
 11
3500.0
 21
-8940.0
 31
0.0
100
AcDbAttribute
  2
GRID
 70
0
  0
SEQEND
  5
3A7
330
3A6
100
AcDbEntity
  8
Окна
  0
TEXT
  5
3AE
330
17
100
AcDbEntity
  8
Текст
100
AcDbText
 10
0.0
 20
0.0
 30
0.0
 40
40.0
  1
11. Пример 11 ОК-2.2П 1500х1500 2x2 Снаружи #11
  7
Основной стиль
100
AcDbText
  0
INSERT
  5
3AF
330
17
100
AcDbEntity
  8
Окна
100
AcDbBlockReference
 66
1
  2
Пример 12 ОК-УЗ 1200х2100 2x3 Снаружи #12
 10
7000.0
 20
-10500.0
 30
0.0
  0
ATTRIB
  5
3B1
330
17
100
AcDbEntity
  8
Текст
100
AcDbText
 10
7000.0
 20
-8090.0
 30
0.0
 40
30.0
  1
Пример 12
  7
Основной стиль
 11
7000.0
 21
-8090.0
 31
0.0
100
AcDbAttribute
  2
OBJECT
 70
0
  0
ATTRIB
  5
3B2
330
17
100
AcDbEntity
  8
Текст
100
AcDbText
 10
7000.0
 20
-8140.0
 30
0.0
 40
30.0
  1
ОК-УЗ/1 шт.
  7
Основной стиль
 11
7000.0
 21
-8140.0
 31
0.0
100
AcDbAttribute
  2
WINDOW
 70
0
  0
ATTRIB
  5
3B3
330
17
100
AcDbEntity
  8
Текст
100
AcDbText
 10
7000.0
 20
-8190.0
 30
0.0
 40
30.0
  1
RAL8017/RAL9016
  7
Основной стиль
 11
7000.0
 21
-8190.0
 31
0.0
100
AcDbAttribute
  2
COLOR
 70
0
  0
ATTRIB
  5
3B4
330
17
100
AcDbEntity
  8
Текст
100
AcDbText
 10
7000.0
 20
-8240.0
 30
0.0
 40
30.0
  1
Заполнение СПД42
  7
Основной стиль
 11
7000.0
 21
-8240.0
 31
0.0
100
AcDbAttribute
  2
GLAZING
 70
0
  0
ATTRIB
  5
3B5
330
17
100
AcDbEntity
  8
Текст
100
AcDbText
 10
7000.0
 20
-8290.0
 30
0.0
 40
30.0
  1
1200х2100
  7
Основной стиль
 11
7000.0
 21
-8290.0
 31
0.0
100
AcDbAttribute
  2
SIZE
 70
0
  0
ATTRIB
  5
3B6
330
17
100
AcDbEntity
  8
Текст
100
AcDbText
 10
7000.0
 20
-8340.0
 30
0.0
 40
30.0
  1
2х3
  7
Основной стиль
 11
7000.0
 21
-8340.0
 31
0.0
100
AcDbAttribute
  2
GRID
 70
0
  0
SEQEND
  5
3B0
330
3AF
100
AcDbEntity
  8
Окна
  0
TEXT
  5
3B7
330
17
100
AcDbEntity
  8
Текст
100
AcDbText
 10
0.0
 20
0.0
 30
0.0
 40
40.0
  1
12. Пример 12 ОК-УЗ 1200х2100 2x3 Снаружи #12
  7
Основной стиль
100
AcDbText
  0
ENDSEC
  0
SECTION
  2
OBJECTS
  0
DICTIONARY
  5
A
330
0
100
AcDbDictionary
281
1
  3
ACAD_COLOR
350
B
  3
ACAD_GROUP
350
C
  3
ACAD_LAYOUT
350
D
  3
ACAD_MATERIAL
350
E
  3
ACAD_MLEADERSTYLE
350
F
  3
ACAD_MLINESTYLE
350
10
  3
ACAD_PLOTSETTINGS
350
11
  3
ACAD_PLOTSTYLENAME
350
12
  3
ACAD_SCALELIST
350
14
  3
ACAD_TABLESTYLE
350
15
  3
ACAD_VISUALSTYLE
350
16
  3
EZDXF_META
350
2D
  0
DICTIONARY
  5
B
330
A
100
AcDbDictionary
281
1
  0
DICTIONARY
  5
C
330
A
100
AcDbDictionary
281
1
  0
DICTIONARY
  5
D
330
A
100
AcDbDictionary
281
1
  3
Model
350
1A
  3
Layout1
350
1E
  0
DICTIONARY
  5
E
330
A
100
AcDbDictionary
281
1
  3
ByBlock
350
1F
  3
ByLayer
350
20
  3
Global
350
21
  0
DICTIONARY
  5
F
330
A
100
AcDbDictionary
281
1
  3
Standard
350
2C
  0
DICTIONARY
  5
10
330
A
100
AcDbDictionary
281
1
  3
Standard
350
22
  0
DICTIONARY
  5
11
330
A
100
AcDbDictionary
281
1
  0
ACDBDICTIONARYWDFLT
  5
12
330
A
100
AcDbDictionary
281
1
  3
Normal
350
13
100
AcDbDictionaryWithDefault
340
13
  0
ACDBPLACEHOLDER
  5
13
330
12
  0
DICTIONARY
  5
14
330
A
100
AcDbDictionary
281
1
  0
DICTIONARY
  5
15
330
A
100
AcDbDictionary
281
1
  0
DICTIONARY
  5
16
330
A
100
AcDbDictionary
281
1
  0
LAYOUT
  5
1A
330
D
100
AcDbPlotSettings
  1

  4
A3
  6

 40
7.5
 41
20.0
 42
7.5
 43
20.0
 44
420.0
 45
297.0
 46
0.0
 47
0.0
 48
0.0
 49
0.0
140
0.0
141
0.0
142
1.0
143
1.0
 70
1024
 72
1
 73
0
 74
5
  7

 75
16
 76
0
 77
2
 78
300
147
1.0
148
0.0
149
0.0
100
AcDbLayout
  1
Model
 70
1
 71
0
 10
0.0
 20
0.0
 11
420.0
 21
297.0
 12
0.0
 22
0.0
 32
0.0
 14
1e+20
 24
1e+20
 34
1e+20
 15
-1e+20
 25
-1e+20
 35
-1e+20
146
0.0
 13
0.0
 23
0.0
 33
0.0
 16
1.0
 26
0.0
 36
0.0
 17
0.0
 27
1.0
 37
0.0
 76
1
330
17
  0
LAYOUT
  5
1E
330
D
100
AcDbPlotSettings
  1

  4
A3
  6

 40
7.5
 41
20.0
 42
7.5
 43
20.0
 44
420.0
 45
297.0
 46
0.0
 47
0.0
 48
0.0
 49
0.0
140
0.0
141
0.0
142
1.0
143
1.0
 70
0
 72
1
 73
0
 74
5
  7

 75
16
 76
0
 77
2
 78
300
147
1.0
148
0.0
149
0.0
100
AcDbLayout
  1
Layout1
 70
1
 71
1
 10
0.0
 20
0.0
 11
420.0
 21
297.0
 12
0.0
 22
0.0
 32
0.0
 14
1e+20
 24
1e+20
 34
1e+20
 15
-1e+20
 25
-1e+20
 35
-1e+20
146
0.0
 13
0.0
 23
0.0
 33
0.0
 16
1.0
 26
0.0
 36
0.0
 17
0.0
 27
1.0
 37
0.0
 76
1
330
1B
  0
MATERIAL
  5
1F
102
{ACAD_REACTORS
330
E
102
}
330
E
100
AcDbMaterial
  1
ByBlock
  2

 70
0
 40
1.0
 71
1
 41
1.0
 91
-1023410177
 42
1.0
 72
1
  3

 73
1
 74
1
 75
1
 44
0.5
 73
0
 45
1.0
 46
1.0
 77
1
  4

 78
1
 79
1
170
1
 48
1.0
171
1
  6

172
1
173
1
174
1
140
1.0
141
1.0
175
1
  7

176
1
177
1
178
1
143
1.0
179
1
  8

270
1
271
1
272
1
145
1.0
146
1.0
273
1
  9

274
1
275
1
276
1
 42
1.0
 72
1
  3

 73
1
 74
1
 75
1
 94
63
  0
MATERIAL
  5
20
102
{ACAD_REACTORS
330
E
102
}
330
E
100
AcDbMaterial
  1
ByLayer
  2

 70
0
 40
1.0
 71
1
 41
1.0
 91
-1023410177
 42
1.0
 72
1
  3

 73
1
 74
1
 75
1
 44
0.5
 73
0
 45
1.0
 46
1.0
 77
1
  4

 78
1
 79
1
170
1
 48
1.0
171
1
  6

172
1
173
1
174
1
140
1.0
141
1.0
175
1
  7

176
1
177
1
178
1
143
1.0
179
1
  8

270
1
271
1
272
1
145
1.0
146
1.0
273
1
  9

274
1
275
1
276
1
 42
1.0
 72
1
  3

 73
1
 74
1
 75
1
 94
63
  0
MATERIAL
  5
21
102
{ACAD_REACTORS
330
E
102
}
330
E
100
AcDbMaterial
  1
Global
  2

 70
0
 40
1.0
 71
1
 41
1.0
 91
-1023410177
 42
1.0
 72
1
  3

 73
1
 74
1
 75
1
 44
0.5
 73
0
 45
1.0
 46
1.0
 77
1
  4

 78
1
 79
1
170
1
 48
1.0
171
1
  6

172
1
173
1
174
1
140
1.0
141
1.0
175
1
  7

176
1
177
1
178
1
143
1.0
179
1
  8

270
1
271
1
272
1
145
1.0
146
1.0
273
1
  9

274
1
275
1
276
1
 42
1.0
 72
1
  3

 73
1
 74
1
 75
1
 94
63
  0
MLINESTYLE
  5
22
102
{ACAD_REACTORS
330
10
102
}
330
10
100
AcDbMlineStyle
  2
Standard
 70
0
  3

 62
256
 51
90.0
 52
90.0
 71
2
 49
0.5
 62
256
  6
BYLAYER
 49
-0.5
 62
256
  6
BYLAYER
  0
MLEADERSTYLE
  5
2C
102
{ACAD_REACTORS
330
F
102
}
330
F
100
AcDbMLeaderStyle
179
2
170
2
171
1
172
0
 90
2
 40
0.0
 41
0.0
173
1
 91
-1056964608
 92
-2
290
1
 42
2.0
291
1
 43
8.0
  3
Standard
 44
4.0
300

342
29
174
1
175
1
176
0
178
1
 93
-1056964608
 45
4.0
292
0
297
0
 46
4.0
 94
-1056964608
 47
1.0
 49
1.0
140
1.0
294
1
141
0.0
177
0
142
1.0
295
0
296
0
143
3.75
271
0
272
9
273
9
  0
DICTIONARY
  5
2D
330
A
100
AcDbDictionary
280
1
281
1
  3
CREATED_BY_EZDXF
350
2E
  3
WRITTEN_BY_EZDXF
350
3BA
  0
DICTIONARYVAR
  5
2E
330
2D
100
DictionaryVariables
280
0
  1
1.4.5b0 @ 2026-09-20T17:23:32.310541+00:00
  0
DICTIONARYVAR
  5
3BA
330
2D
100
DictionaryVariables
280
0
  1
1.4.5b0 @ 2026-09-20T17:23:32.952220+00:00
  0
ENDSEC
  0
EOF
