  0
SECTION
  2
HEADER
  9
$ACADVER
  1
AC1027
  9
$ACADMAINTVER
 70
105
  9
$DWGCODEPAGE
  3
ANSI_1251
  9
$LASTSAVEDBY
  1
ezdxf
  9
$REQUIREDVERSIONS
160
0
  9
$INSBASE
 10
0.0
 20
0.0
 30
0.0
  9
$EXTMIN
 10
1e+20
 20
1e+20
 30
1e+20
  9
$EXTMAX
 10
-1e+20
 20
-1e+20
 30
-1e+20
  9
$LIMMIN
 10
0.0
 20
0.0
  9
$LIMMAX
 10
420.0
 20
297.0
  9
$ORTHOMODE
 70
0
  9
$REGENMODE
 70
1
  9
$FILLMODE
 70
1
  9
$QTEXTMODE
 70
0
  9
$MIRRTEXT
 70
1
  9
$LTSCALE
 40
25.0
  9
$ATTMODE
 70
1
  9
$TEXTSIZE
 40
2.5
  9
$TRACEWID
 40
1.0
  9
$TEXTSTYLE
  7
Standard
  9
$CLAYER
  8
0
  9
$CELTYPE
  6
ByLayer
  9
$CECOLOR
 62
256
  9
$CELTSCALE
 40
1.0
  9
$DISPSILH
 70
0
  9
$DIMSCALE
 40
1.0
  9
$DIMASZ
 40
2.5
  9
$DIMEXO
 40
0.625
  9
$DIMDLI
 40
3.75
  9
$DIMRND
 40
0.0
  9
$DIMDLE
 40
0.0
  9
$DIMEXE
 40
1.25
  9
$DIMTP
 40
0.0
  9
$DIMTM
 40
0.0
  9
$DIMTXT
 40
2.5
  9
$DIMCEN
 40
2.5
  9
$DIMTSZ
 40
0.0
  9
$DIMTOL
 70
0
  9
$DIMLIM
 70
0
  9
$DIMTIH
 70
0
  9
$DIMTOH
 70
0
  9
$DIMSE1
 70
0
  9
$DIMSE2
 70
0
  9
$DIMTAD
 70
1
  9
$DIMZIN
 70
8
  9
$DIMBLK
  1

  9
$DIMASO
 70
1
  9
$DIMSHO
 70
1
  9
$DIMPOST
  1

  9
$DIMAPOST
  1

  9
$DIMALT
 70
0
  9
$DIMALTD
 70
3
  9
$DIMALTF
 40
0.03937007874
  9
$DIMLFAC
 40
1.0
  9
$DIMTOFL
 70
1
  9
$DIMTVP
 40
0.0
  9
$DIMTIX
 70
0
  9
$DIMSOXD
 70
0
  9
$DIMSAH
 70
0
  9
$DIMBLK1
  1

  9
$DIMBLK2
  1

  9
$DIMSTYLE
  2
ISO-25
  9
$DIMCLRD
 70
0
  9
$DIMCLRE
 70
0
  9
$DIMCLRT
 70
0
  9
$DIMTFAC
 40
1.0
  9
$DIMGAP
 40
0.625
  9
$DIMJUST
 70
0
  9
$DIMSD1
 70
0
  9
$DIMSD2
 70
0
  9
$DIMTOLJ
 70
0
  9
$DIMTZIN
 70
8
  9
$DIMALTZ
 70
0
  9
$DIMALTTZ
 70
0
  9
$DIMUPT
 70
0
  9
$DIMDEC
 70
2
  9
$DIMTDEC
 70
2
  9
$DIMALTU
 70
2
  9
$DIMALTTD
 70
3
  9
$DIMTXSTY
  7
Standard
  9
$DIMAUNIT
 70
0
  9
$DIMADEC
 70
0
  9
$DIMALTRND
 40
0.0
  9
$DIMAZIN
 70
0
  9
$DIMDSEP
 70
44
  9
$DIMATFIT
 70
3
  9
$DIMFRAC
 70
0
  9
$DIMLDRBLK
  1

  9
$DIMLUNIT
 70
2
  9
$DIMLWD
 70
-2
  9
$DIMLWE
 70
-2
  9
$DIMTMOVE
 70
0
  9
$DIMFXL
 40
1.0
  9
$DIMFXLON
 70
0
  9
$DIMJOGANG
 40
0.785398163397
  9
$DIMTFILL
 70
0
  9
$DIMTFILLCLR
 70
0
  9
$DIMARCSYM
 70
0
  9
$DIMLTYPE
  6

  9
$DIMLTEX1
  6

  9
$DIMLTEX2
  6

  9
$DIMTXTDIRECTION
 70
0
  9
$LUNITS
 70
2
  9
$LUPREC
 70
4
  9
$SKETCHINC
 40
1.0
  9
$FILLETRAD
 40
10.0
  9
$AUNITS
 70
0
  9
$AUPREC
 70
2
  9
$MENU
  1
.
  9
$ELEVATION
 40
0.0
  9
$PELEVATION
 40
0.0
  9
$THICKNESS
 40
0.0
  9
$LIMCHECK
 70
0
  9
$CHAMFERA
 40
0.0
  9
$CHAMFERB
 40
0.0
  9
$CHAMFERC
 40
0.0
  9
$CHAMFERD
 40
0.0
  9
$SKPOLY
 70
0
  9
$TDCREATE
 40
2461304.7079861113
  9
$TDUCREATE
 40
2458532.153996898
  9
$TDUPDATE
 40
2461304.7079861113
  9
$TDUUPDATE
 40
2458532.1544311
  9
$TDINDWG
 40
0.0
  9
$TDUSRTIMER
 40
0.0
  9
$USRTIMER
 70
1
  9
$ANGBASE
 50
0.0
  9
$ANGDIR
 70
0
  9
$PDMODE
 70
0
  9
$PDSIZE
 40
0.0
  9
$PLINEWID
 40
0.0
  9
$SPLFRAME
 70
0
  9
$SPLINETYPE
 70
6
  9
$SPLINESEGS
 70
8
  9
$HANDSEED
  5
160
  9
$SURFTAB1
 70
6
  9
$SURFTAB2
 70
6
  9
$SURFTYPE
 70
6
  9
$SURFU
 70
6
  9
$SURFV
 70
6
  9
$UCSBASE
  2

  9
$UCSNAME
  2

  9
$UCSORG
 10
0.0
 20
0.0
 30
0.0
  9
$UCSXDIR
 10
1.0
 20
0.0
 30
0.0
  9
$UCSYDIR
 10
0.0
 20
1.0
 30
0.0
  9
$UCSORTHOREF
  2

  9
$UCSORTHOVIEW
 70
0
  9
$UCSORGTOP
 10
0.0
 20
0.0
 30
0.0
  9
$UCSORGBOTTOM
 10
0.0
 20
0.0
 30
0.0
  9
$UCSORGLEFT
 10
0.0
 20
0.0
 30
0.0
  9
$UCSORGRIGHT
 10
0.0
 20
0.0
 30
0.0
  9
$UCSORGFRONT
 10
0.0
 20
0.0
 30
0.0
  9
$UCSORGBACK
 10
0.0
 20
0.0
 30
0.0
  9
$PUCSBASE
  2

  9
$PUCSNAME
  2

  9
$PUCSORG
 10
0.0
 20
0.0
 30
0.0
  9
$PUCSXDIR
 10
1.0
 20
0.0
 30
0.0
  9
$PUCSYDIR
 10
0.0
 20
1.0
 30
0.0
  9
$PUCSORTHOREF
  2

  9
$PUCSORTHOVIEW
 70
0
  9
$PUCSORGTOP
 10
0.0
 20
0.0
 30
0.0
  9
$PUCSORGBOTTOM
 10
0.0
 20
0.0
 30
0.0
  9
$PUCSORGLEFT
 10
0.0
 20
0.0
 30
0.0
  9
$PUCSORGRIGHT
 10
0.0
 20
0.0
 30
0.0
  9
$PUCSORGFRONT
 10
0.0
 20
0.0
 30
0.0
  9
$PUCSORGBACK
 10
0.0
 20
0.0
 30
0.0
  9
$USERI1
 70
0
  9
$USERI2
 70
0
  9
$USERI3
 70
0
  9
$USERI4
 70
0
  9
$USERI5
 70
0
  9
$USERR1
 40
0.0
  9
$USERR2
 40
0.0
  9
$USERR3
 40
0.0
  9
$USERR4
 40
0.0
  9
$USERR5
 40
0.0
  9
$WORLDVIEW
 70
1
  9
$SHADEDGE
 70
3
  9
$SHADEDIF
 70
70
  9
$TILEMODE
 70
1
  9
$MAXACTVP
 70
64
  9
$PINSBASE
 10
0.0
 20
0.0
 30
0.0
  9
$PLIMCHECK
 70
0
  9
$PEXTMIN
 10
1e+20
 20
1e+20
 30
1e+20
  9
$PEXTMAX
 10
-1e+20
 20
-1e+20
 30
-1e+20
  9
$PLIMMIN
 10
0.0
 20
0.0
  9
$PLIMMAX
 10
420.0
 20
297.0
  9
$UNITMODE
 70
0
  9
$VISRETAIN
 70
1
  9
$PLINEGEN
 70
0
  9
$PSLTSCALE
 70
1
  9
$TREEDEPTH
 70
3020
  9
$CMLSTYLE
  2
Standard
  9
$CMLJUST
 70
0
  9
$CMLSCALE
 40
20.0
  9
$PROXYGRAPHICS
 70
1
  9
$MEASUREMENT
 70
1
  9
$CELWEIGHT
370
-1
  9
$ENDCAPS
280
0
  9
$JOINSTYLE
280
0
  9
$LWDISPLAY
290
0
  9
$INSUNITS
 70
6
  9
$HYPERLINKBASE
  1

  9
$STYLESHEET
  1

  9
$XEDIT
290
1
  9
$CEPSNTYPE
380
0
  9
$PSTYLEMODE
290
1
  9
$FINGERPRINTGUID
  2
{A277231B-9FEC-448F-AC2E-DF40DDC776CB}
  9
$VERSIONGUID
  2
{3C073968-8349-44F7-9F85-F7A2D94B0319}
  9
$EXTNAMES
290
1
  9
$PSVPSCALE
 40
0.0
  9
$OLESTARTUP
290
0
  9
$SORTENTS
280
127
  9
$INDEXCTL
280
0
  9
$HIDETEXT
280
1
  9
$XCLIPFRAME
280
1
  9
$HALOGAP
280
0
  9
$OBSCOLOR
 70
257
  9
$OBSLTYPE
280
0
  9
$INTERSECTIONDISPLAY
280
0
  9
$INTERSECTIONCOLOR
 70
257
  9
$DIMASSOC
280
2
  9
$PROJECTNAME
  1

  9
$CAMERADISPLAY
290
0
  9
$LENSLENGTH
 40
50.0
  9
$CAMERAHEIGHT
 40
0.0
  9
$STEPSPERSEC
 40
24.0
  9
$STEPSIZE
 40
100.0
  9
$3DDWFPREC
 40
2.0
  9
$PSOLWIDTH
 40
0.005
  9
$PSOLHEIGHT
 40
0.08
  9
$LOFTANG1
 40
1.570796326795
  9
$LOFTANG2
 40
1.570796326795
  9
$LOFTMAG1
 40
0.0
  9
$LOFTMAG2
 40
0.0
  9
$LOFTPARAM
 70
7
  9
$LOFTNORMALS
280
1
  9
$LATITUDE
 40
37.795
  9
$LONGITUDE
 40
-122.394
  9
$NORTHDIRECTION
 40
0.0
  9
$TIMEZONE
 70
-8000
  9
$LIGHTGLYPHDISPLAY
280
1
  9
$TILEMODELIGHTSYNCH
280
1
  9
$CMATERIAL
347
20
  9
$SOLIDHIST
280
0
  9
$SHOWHIST
280
1
  9
$DWFFRAME
280
2
  9
$DGNFRAME
280
2
  9
$REALWORLDSCALE
290
1
  9
$INTERFERECOLOR
 62
256
  9
$CSHADOW
280
0
  9
$SHADOWPLANELOCATION
 40
0.0
  0
ENDSEC
  0
SECTION
  2
CLASSES
  0
CLASS
  1
ACDBDICTIONARYWDFLT
  2
AcDbDictionaryWithDefault
  3
ObjectDBX Classes
 90
0
 91
0
280
0
281
0
  0
CLASS
  1
SUN
  2
AcDbSun
  3
SCENEOE
 90
1153
 91
0
280
0
281
0
  0
CLASS
  1
VISUALSTYLE
  2
AcDbVisualStyle
  3
ObjectDBX Classes
 90
4095
 91
0
280
0
281
0
  0
CLASS
  1
MATERIAL
  2
AcDbMaterial
  3
ObjectDBX Classes
 90
1153
 91
0
280
0
281
0
  0
CLASS
  1
SCALE
  2
AcDbScale
  3
ObjectDBX Classes
 90
1153
 91
0
280
0
281
0
  0
CLASS
  1
TABLESTYLE
  2
AcDbTableStyle
  3
ObjectDBX Classes
 90
4095
 91
0
280
0
281
0
  0
CLASS
  1
MLEADERSTYLE
  2
AcDbMLeaderStyle
  3
ACDB_MLEADERSTYLE_CLASS
 90
4095
 91
0
280
0
281
0
  0
CLASS
  1
DICTIONARYVAR
  2
AcDbDictionaryVar
  3
ObjectDBX Classes
 90
0
 91
0
280
0
281
0
  0
CLASS
  1
CELLSTYLEMAP
  2
AcDbCellStyleMap
  3
ObjectDBX Classes
 90
1152
 91
0
280
0
281
0
  0
CLASS
  1
MENTALRAYRENDERSETTINGS
  2
AcDbMentalRayRenderSettings
  3
SCENEOE
 90
1024
 91
0
280
0
281
0
  0
CLASS
  1
ACDBDETAILVIEWSTYLE
  2
AcDbDetailViewStyle
  3
ObjectDBX Classes
 90
1025
 91
0
280
0
281
0
  0
CLASS
  1
ACDBSECTIONVIEWSTYLE
  2
AcDbSectionViewStyle
  3
ObjectDBX Classes
 90
1025
 91
0
280
0
281
0
  0
CLASS
  1
RASTERVARIABLES
  2
AcDbRasterVariables
  3
ISM
 90
0
 91
0
280
0
281
0
  0
CLASS
  1
LAYOUT
  2
AcDbLayout
  3
ObjectDBX Classes
 90
0
 91
0
280
0
281
0
  0
CLASS
  1
ACDBPLACEHOLDER
  2
AcDbPlaceHolder
  3
ObjectDBX Classes
 90
0
 91
0
280
0
281
0
  0
ENDSEC
  0
SECTION
  2
TABLES
  0
TABLE
  2
VPORT
  5
8
330
0
100
AcDbSymbolTable
 70
1
  0
VPORT
  5
23
330
8
100
AcDbSymbolTableRecord
100
AcDbViewportTableRecord
  2
*Active
 70
0
 10
0.0
 20
0.0
 11
1.0
 21
1.0
 12
0.0
 22
0.0
 13
0.0
 23
0.0
 14
0.5
 24
0.5
 15
0.5
 25
0.5
 16
0.0
 26
0.0
 36
1.0
 17
0.0
 27
0.0
 37
0.0
 40
1000.0
 41
1.34
 42
50.0
 43
0.0
 44
0.0
 50
0.0
 51
0.0
 71
0
 72
1000
 73
1
 74
3
 75
0
 76
0
 77
0
 78
0
281
0
 65
0
146
0.0
  0
ENDTAB
  0
TABLE
  2
LTYPE
  5
2
330
0
100
AcDbSymbolTable
 70
3
  0
LTYPE
  5
24
330
2
100
AcDbSymbolTableRecord
100
AcDbLinetypeTableRecord
  2
ByBlock
 70
0
  3

 72
65
 73
0
 40
0.0
  0
LTYPE
  5
25
330
2
100
AcDbSymbolTableRecord
100
AcDbLinetypeTableRecord
  2
ByLayer
 70
0
  3

 72
65
 73
0
 40
0.0
  0
LTYPE
  5
26
330
2
100
AcDbSymbolTableRecord
100
AcDbLinetypeTableRecord
  2
Continuous
 70
0
  3

 72
65
 73
0
 40
0.0
  0
ENDTAB
  0
TABLE
  2
LAYER
  5
1
330
0
100
AcDbSymbolTable
 70
7
  0
LAYER
  5
27
330
1
100
AcDbSymbolTableRecord
100
AcDbLayerTableRecord
  2
0
 70
0
 62
7
  6
Continuous
370
-3
390
13
347
21
  0
LAYER
  5
28
330
1
100
AcDbSymbolTableRecord
100
AcDbLayerTableRecord
  2
Defpoints
 70
0
 62
7
  6
Continuous
290
0
370
-3
390
13
347
21
  0
LAYER
  5
2F
330
1
100
AcDbSymbolTableRecord
100
AcDbLayerTableRecord
  2
Окна
 70
0
 62
7
  6
Continuous
370
-3
390
13
347
21
  0
LAYER
  5
30
330
1
100
AcDbSymbolTableRecord
100
AcDbLayerTableRecord
  2
Штриховые
 70
0
 62
1
  6
DASHED
370
-3
390
13
347
21
  0
LAYER
  5
60
330
1
100
AcDbSymbolTableRecord
100
AcDbLayerTableRecord
  2
Размеры
 70
0
 62
3
  6
Continuous
370
-3
390
13
347
21
  0
LAYER
  5
61
330
1
100
AcDbSymbolTableRecord
100
AcDbLayerTableRecord
  2
Текст
 70
0
 62
7
  6
Continuous
370
-3
390
13
347
21
  0
LAYER
  5
62
330
1
100
AcDbSymbolTableRecord
100
AcDbLayerTableRecord
  2
Основной
 70
0
 62
7
  6
Continuous
370
-3
390
13
347
21
  0
ENDTAB
  0
TABLE
  2
STYLE
  5
5
330
0
100
AcDbSymbolTable
 70
3
  0
STYLE
  5
29
330
5
100
AcDbSymbolTableRecord
100
AcDbTextStyleTableRecord
  2
Standard
 70
0
 40
0.0
 41
1.0
 50
0.0
 71
0
 42
2.5
  3
txt
  4

  0
STYLE
  5
31
330
5
100
AcDbSymbolTableRecord
100
AcDbTextStyleTableRecord
  2
WindowStyle
 70
0
 40
0.0
 41
1.0
 50
0.0
 71
0
 42
2.5
  3
Arial.ttf
  4

  0
STYLE
  5
63
330
5
100
AcDbSymbolTableRecord
100
AcDbTextStyleTableRecord
  2
Основной стиль
 70
0
 40
0.0
 41
1.0
 50
0.0
 71
0
 42
2.5
  3
Arial.ttf
  4

  0
ENDTAB
  0
TABLE
  2
VIEW
  5
7
330
0
100
AcDbSymbolTable
 70
0
  0
ENDTAB
  0
TABLE
  2
UCS
  5
6
330
0
100
AcDbSymbolTable
 70
0
  0
ENDTAB
  0
TABLE
  2
APPID
  5
3
330
0
100
AcDbSymbolTable
 70
3
  0
APPID
  5
2A
330
3
100
AcDbSymbolTableRecord
100
AcDbRegAppTableRecord
  2
ACAD
 70
0
  0
APPID
  5
15D
330
3
100
AcDbSymbolTableRecord
100
AcDbRegAppTableRecord
  2
HATCHBACKGROUNDCOLOR
 70
0
  0
APPID
  5
15E
330
3
100
AcDbSymbolTableRecord
100
AcDbRegAppTableRecord
  2
EZDXF
 70
0
  0
ENDTAB
  0
TABLE
  2
DIMSTYLE
  5
4
330
0
100
AcDbSymbolTable
 70
2
100
AcDbDimStyleTable
  0
DIMSTYLE
105
2B
330
4
100
AcDbSymbolTableRecord
100
AcDbDimStyleTableRecord
  2
Standard
 70
0
 40
1.0
 41
2.5
 42
0.625
 43
3.75
 44
1.25
 45
0.0
 46
0.0
 47
0.0
 48
0.0
 49
2.5
140
2.5
141
2.5
142
0.0
143
0.03937007874
144
1.0
145
0.0
146
1.0
147
0.625
148
0.0
 69
0
 70
0
 71
0
 72
0
 73
0
 74
0
 75
0
 76
0
 77
1
 78
8
 79
3
170
0
171
3
172
1
173
0
174
0
175
0
176
0
177
0
178
0
179
2
271
2
272
2
273
2
274
3
275
0
276
0
277
2
278
44
279
0
280
0
281
0
282
0
283
0
284
8
285
0
286
0
288
0
289
3
290
0
371
-2
372
-2
  0
DIMSTYLE
105
64
330
4
100
AcDbSymbolTableRecord
100
AcDbDimStyleTableRecord
  2
Основной стиль
 70
0
 40
4.0
 41
6.0
 42
2.5
 43
3.75
 44
3.0
 45
0.0
 46
0.0
 47
0.0
 48
0.0
 49
2.5
140
8.0
141
2.5
142
0.0
143
0.03937007874
144
1.0
145
0.0
146
1.0
147
3.0
148
0.0
 69
0
 70
0
 71
0
 72
0
 73
0
 74
0
 75
0
 76
0
 77
1
 78
8
 79
3
170
0
171
3
172
1
173
0
174
0
175
0
176
0
177
0
178
0
179
2
271
2
272
2
273
2
274
3
275
0
276
0
277
2
278
44
279
0
280
0
281
0
282
0
283
0
284
8
285
0
286
0
288
0
289
3
290
0
340
63
371
-2
372
-2
  0
ENDTAB
  0
TABLE
  2
BLOCK_RECORD
  5
9
330
0
100
AcDbSymbolTable
 70
18
  0
BLOCK_RECORD
  5
17
330
9
100
AcDbSymbolTableRecord
100
AcDbBlockTableRecord
  2
*Model_Space
340
1A
 70
0
280
1
281
0
  0
BLOCK_RECORD
  5
1B
330
9
100
AcDbSymbolTableRecord
100
AcDbBlockTableRecord
  2
*Paper_Space
340
1E
 70
0
280
1
281
0
  0
BLOCK_RECORD
  5
32
330
9
100
AcDbSymbolTableRecord
100
AcDbBlockTableRecord
  2
Тестовый объект ОК-1 1500х1500 Снаружи
340
0
 70
0
280
1
281
0
  0
BLOCK_RECORD
  5
6D
330
9
100
AcDbSymbolTableRecord
100
AcDbBlockTableRecord
  2
*D1
340
0
 70
0
280
1
281
0
  0
BLOCK_RECORD
  5
72
330
9
100
AcDbSymbolTableRecord
100
AcDbBlockTableRecord
  2
_CLOSEDFILLED
340
0
 70
0
280
1
281
0
  0
BLOCK_RECORD
  5
81
330
9
100
AcDbSymbolTableRecord
100
AcDbBlockTableRecord
  2
*D2
340
0
 70
0
280
1
281
0
  0
BLOCK_RECORD
  5
91
330
9
100
AcDbSymbolTableRecord
100
AcDbBlockTableRecord
  2
*D3
340
0
 70
0
280
1
281
0
  0
BLOCK_RECORD
  5
A1
330
9
100
AcDbSymbolTableRecord
100
AcDbBlockTableRecord
  2
*D4
340
0
 70
0
280
1
281
0
  0
BLOCK_RECORD
  5
B1
330
9
100
AcDbSymbolTableRecord
100
AcDbBlockTableRecord
  2
*D5
340
0
 70
0
280
1
281
0
  0
BLOCK_RECORD
  5
C1
330
9
100
AcDbSymbolTableRecord
100
AcDbBlockTableRecord
  2
*D6
340
0
 70
0
280
1
281
0
  0
BLOCK_RECORD
  5
D2
330
9
100
AcDbSymbolTableRecord
100
AcDbBlockTableRecord
  2
*D7
340
0
 70
0
280
1
281
0
  0
BLOCK_RECORD
  5
E3
330
9
100
AcDbSymbolTableRecord
100
AcDbBlockTableRecord
  2
*D8
340
0
 70
0
280
1
281
0
  0
BLOCK_RECORD
  5
F3
330
9
100
AcDbSymbolTableRecord
100
AcDbBlockTableRecord
  2
*D9
340
0
 70
0
280
1
281
0
  0
BLOCK_RECORD
  5
103
330
9
100
AcDbSymbolTableRecord
100
AcDbBlockTableRecord
  2
*D10
340
0
 70
0
280
1
281
0
  0
BLOCK_RECORD
  5
113
330
9
100
AcDbSymbolTableRecord
100
AcDbBlockTableRecord
  2
*D11
340
0
 70
0
280
1
281
0
  0
BLOCK_RECORD
  5
124
330
9
100
AcDbSymbolTableRecord
100
AcDbBlockTableRecord
  2
*D12
340
0
 70
0
280
1
281
0
  0
BLOCK_RECORD
  5
134
330
9
100
AcDbSymbolTableRecord
100
AcDbBlockTableRecord
  2
*D13
340
0
 70
0
280
1
281
0
  0
BLOCK_RECORD
  5
145
330
9
100
AcDbSymbolTableRecord
100
AcDbBlockTableRecord
  2
*D14
340
0
 70
0
280
1
281
0
  0
ENDTAB
  0
ENDSEC
  0
SECTION
  2
BLOCKS
  0
BLOCK
  5
18
330
17
100
AcDbEntity
  8
0
100
AcDbBlockBegin
  2
*Model_Space
 70
0
 10
0.0
 20
0.0
 30
0.0
  3
*Model_Space
  1

  0
ENDBLK
  5
19
330
17
100
AcDbEntity
  8
0
100
AcDbBlockEnd
  0
BLOCK
  5
1C
330
1B
100
AcDbEntity
  8
0
100
AcDbBlockBegin
  2
*Paper_Space
 70
0
 10
0.0
 20
0.0
 30
0.0
  3
*Paper_Space
  1

  0
ENDBLK
  5
1D
330
1B
100
AcDbEntity
  8
0
100
AcDbBlockEnd
  0
BLOCK
  5
33
330
32
100
AcDbEntity
  8
0
100
AcDbBlockBegin
  2
Тестовый объект ОК-1 1500х1500 Снаружи
 70
2
 10
0.0
 20
0.0
 30
0.0
  3
Тестовый объект ОК-1 1500х1500 Снаружи
  1

  0
LWPOLYLINE
  5
35
330
32
100
AcDbEntity
  8
Штриховые
100
AcDbPolyline
 90
4
 70
1
 10
0.0
 20
0.0
 10
1500.0
 20
0.0
 10
1500.0
 20
1500.0
 10
0.0
 20
1500.0
  0
LWPOLYLINE
  5
36
330
32
100
AcDbEntity
  8
Окна
100
AcDbPolyline
 90
4
 70
1
 10
30.0
 20
60.0
 10
1470.0
 20
60.0
 10
1470.0
 20
1470.0
 10
30.0
 20
1470.0
  0
LWPOLYLINE
  5
37
330
32
100
AcDbEntity
  8
Окна
100
AcDbPolyline
 90
4
 70
1
 10
90.0
 20
120.0
 10
1410.0
 20
120.0
 10
1410.0
 20
1410.0
 10
90.0
 20
1410.0
  0
LINE
  5
38
330
32
100
AcDbEntity
  8
Окна
100
AcDbLine
 10
30.0
 20
60.0
 30
0.0
 11
90.0
 21
120.0
 31
0.0
  0
LINE
  5
39
330
32
100
AcDbEntity
  8
Окна
100
AcDbLine
 10
1470.0
 20
60.0
 30
0.0
 11
1410.0
 21
120.0
 31
0.0
  0
LINE
  5
3A
330
32
100
AcDbEntity
  8
Окна
100
AcDbLine
 10
1470.0
 20
1470.0
 30
0.0
 11
1410.0
 21
1410.0
 31
0.0
  0
LINE
  5
3B
330
32
100
AcDbEntity
  8
Окна
100
AcDbLine
 10
30.0
 20
1470.0
 30
0.0
 11
90.0
 21
1410.0
 31
0.0
  0
LWPOLYLINE
  5
3C
330
32
100
AcDbEntity
  8
Окна
100
AcDbPolyline
 90
4
 70
1
 10
476.6666666666667
 20
120.0
 10
556.6666666666667
 20
120.0
 10
556.6666666666667
 20
1410.0
 10
476.6666666666667
 20
1410.0
  0
LWPOLYLINE
  5
3D
330
32
100
AcDbEntity
  8
Окна
100
AcDbPolyline
 90
4
 70
1
 10
943.3333333333334
 20
120.0
 10
1023.3333333333334
 20
120.0
 10
1023.3333333333334
 20
1410.0
 10
943.3333333333334
 20
1410.0
  0
LWPOLYLINE
  5
3E
330
32
100
AcDbEntity
  8
Окна
100
AcDbPolyline
 90
4
 70
1
 10
90.0
 20
725.0
 10
1410.0
 20
725.0
 10
1410.0
 20
805.0
 10
90.0
 20
805.0
  0
LWPOLYLINE
  5
3F
330
32
100
AcDbEntity
  8
Окна
100
AcDbPolyline
 90
4
 70
1
 10
30.0
 20
30.0
 10
1470.0
 20
30.0
 10
1470.0
 20
60.0
 10
30.0
 20
60.0
  0
LINE
  5
40
330
32
100
AcDbEntity
  8
Окна
100
AcDbLine
 10
155.0
 20
185.0
 30
0.0
 11
411.6666666666667
 21
185.0
 31
0.0
  0
LINE
  5
41
330
32
100
AcDbEntity
  8
Окна
100
AcDbLine
 10
411.6666666666667
 20
185.0
 30
0.0
 11
411.6666666666667
 21
660.0
 31
0.0
  0
LINE
  5
42
330
32
100
AcDbEntity
  8
Окна
100
AcDbLine
 10
411.6666666666667
 20
660.0
 30
0.0
 11
155.0
 21
660.0
 31
0.0
  0
LINE
  5
43
330
32
100
AcDbEntity
  8
Окна
100
AcDbLine
 10
155.0
 20
660.0
 30
0.0
 11
155.0
 21
185.0
 31
0.0
  0
LINE
  5
44
330
32
100
AcDbEntity
  8
Окна
100
AcDbLine
 10
90.0
 20
120.0
 30
0.0
 11
155.0
 21
185.0
 31
0.0
  0
LINE
  5
45
330
32
100
AcDbEntity
  8
Окна
100
AcDbLine
 10
476.6666666666667
 20
120.0
 30
0.0
 11
411.6666666666667
 21
185.0
 31
0.0
  0
LINE
  5
46
330
32
100
AcDbEntity
  8
Окна
100
AcDbLine
 10
476.6666666666667
 20
725.0
 30
0.0
 11
411.6666666666667
 21
660.0
 31
0.0
  0
LINE
  5
47
330
32
100
AcDbEntity
  8
Окна
100
AcDbLine
 10
90.0
 20
725.0
 30
0.0
 11
155.0
 21
660.0
 31
0.0
  0
LINE
  5
48
330
32
100
AcDbEntity
  8
Штриховые
100
AcDbLine
 10
155.0
 20
185.0
 30
0.0
 11
411.6666666666667
 21
422.5
 31
0.0
  0
LINE
  5
49
330
32
100
AcDbEntity
  8
Штриховые
100
AcDbLine
 10
155.0
 20
660.0
 30
0.0
 11
411.6666666666667
 21
422.5
 31
0.0
  0
LINE
  5
4A
330
32
100
AcDbEntity
  8
Окна
100
AcDbLine
 10
621.6666666666667
 20
185.0
 30
0.0
 11
878.3333333333335
 21
185.0
 31
0.0
  0
LINE
  5
4B
330
32
100
AcDbEntity
  8
Окна
100
AcDbLine
 10
878.3333333333335
 20
185.0
 30
0.0
 11
878.3333333333335
 21
660.0
 31
0.0
  0
LINE
  5
4C
330
32
100
AcDbEntity
  8
Окна
100
AcDbLine
 10
878.3333333333335
 20
660.0
 30
0.0
 11
621.6666666666667
 21
660.0
 31
0.0
  0
LINE
  5
4D
330
32
100
AcDbEntity
  8
Окна
100
AcDbLine
 10
621.6666666666667
 20
660.0
 30
0.0
 11
621.6666666666667
 21
185.0
 31
0.0
  0
LINE
  5
4E
330
32
100
AcDbEntity
  8
Окна
100
AcDbLine
 10
556.6666666666667
 20
120.0
 30
0.0
 11
621.6666666666667
 21
185.0
 31
0.0
  0
LINE
  5
4F
330
32
100
AcDbEntity
  8
Окна
100
AcDbLine
 10
943.3333333333335
 20
120.0
 30
0.0
 11
878.3333333333335
 21
185.0
 31
0.0
  0
LINE
  5
50
330
32
100
AcDbEntity
  8
Окна
100
AcDbLine
 10
943.3333333333335
 20
725.0
 30
0.0
 11
878.3333333333335
 21
660.0
 31
0.0
  0
LINE
  5
51
330
32
100
AcDbEntity
  8
Окна
100
AcDbLine
 10
556.6666666666667
 20
725.0
 30
0.0
 11
621.6666666666667
 21
660.0
 31
0.0
  0
LINE
  5
52
330
32
100
AcDbEntity
  8
Штриховые
100
AcDbLine
 10
621.6666666666667
 20
185.0
 30
0.0
 11
878.3333333333335
 21
422.5
 31
0.0
  0
LINE
  5
53
330
32
100
AcDbEntity
  8
Штриховые
100
AcDbLine
 10
621.6666666666667
 20
660.0
 30
0.0
 11
878.3333333333335
 21
422.5
 31
0.0
  0
LINE
  5
54
330
32
100
AcDbEntity
  8
Штриховые
100
AcDbLine
 10
621.6666666666667
 20
185.0
 30
0.0
 11
750.0000000000001
 21
660.0
 31
0.0
  0
LINE
  5
55
330
32
100
AcDbEntity
  8
Штриховые
100
AcDbLine
 10
878.3333333333335
 20
185.0
 30
0.0
 11
750.0000000000001
 21
660.0
 31
0.0
  0
LINE
  5
56
330
32
100
AcDbEntity
  8
Окна
100
AcDbLine
 10
155.0
 20
870.0
 30
0.0
 11
411.6666666666667
 21
870.0
 31
0.0
  0
LINE
  5
57
330
32
100
AcDbEntity
  8
Окна
100
AcDbLine
 10
411.6666666666667
 20
870.0
 30
0.0
 11
411.6666666666667
 21
1345.0
 31
0.0
  0
LINE
  5
58
330
32
100
AcDbEntity
  8
Окна
100
AcDbLine
 10
411.6666666666667
 20
1345.0
 30
0.0
 11
155.0
 21
1345.0
 31
0.0
  0
LINE
  5
59
330
32
100
AcDbEntity
  8
Окна
100
AcDbLine
 10
155.0
 20
1345.0
 30
0.0
 11
155.0
 21
870.0
 31
0.0
  0
LINE
  5
5A
330
32
100
AcDbEntity
  8
Окна
100
AcDbLine
 10
90.0
 20
805.0
 30
0.0
 11
155.0
 21
870.0
 31
0.0
  0
LINE
  5
5B
330
32
100
AcDbEntity
  8
Окна
100
AcDbLine
 10
476.6666666666667
 20
805.0
 30
0.0
 11
411.6666666666667
 21
870.0
 31
0.0
  0
LINE
  5
5C
330
32
100
AcDbEntity
  8
Окна
100
AcDbLine
 10
476.6666666666667
 20
1410.0
 30
0.0
 11
411.6666666666667
 21
1345.0
 31
0.0
  0
LINE
  5
5D
330
32
100
AcDbEntity
  8
Окна
100
AcDbLine
 10
90.0
 20
1410.0
 30
0.0
 11
155.0
 21
1345.0
 31
0.0
  0
LINE
  5
5E
330
32
100
AcDbEntity
  8
Штриховые
100
AcDbLine
 10
155.0
 20
870.0
 30
0.0
 11
283.33333333333337
 21
1345.0
 31
0.0
  0
LINE
  5
5F
330
32
100
AcDbEntity
  8
Штриховые
100
AcDbLine
 10
411.6666666666667
 20
870.0
 30
0.0
 11
283.33333333333337
 21
1345.0
 31
0.0
  0
ATTDEF
  5
65
330
32
100
AcDbEntity
  8
Текст
100
AcDbText
 10
0.0
 20
1810.0
 30
0.0
 40
30.0
  1
Тестовый объект
  7
Основной стиль
100
AcDbAttributeDefinition
  3
Объект
  2
OBJECT
 70
0
  0
ATTDEF
  5
66
330
32
100
AcDbEntity
  8
Текст
100
AcDbText
 10
0.0
 20
1760.0
 30
0.0
 40
30.0
  1
ОК-1/1 шт.
  7
Основной стиль
100
AcDbAttributeDefinition
  3
Окно / кол-во
  2
WINDOW
 70
0
  0
ATTDEF
  5
67
330
32
100
AcDbEntity
  8
Текст
100
AcDbText
 10
0.0
 20
1710.0
 30
0.0
 40
30.0
  1
RAL8017/RAL9016
  7
Основной стиль
100
AcDbAttributeDefinition
  3
Цвет
  2
COLOR
 70
0
  0
ATTDEF
  5
68
330
32
100
AcDbEntity
  8
Текст
100
AcDbText
 10
0.0
 20
1660.0
 30
0.0
 40
30.0
  1
Заполнение СПД42
  7
Основной стиль
100
AcDbAttributeDefinition
  3
Заполнение
  2
GLAZING
 70
0
  0
ATTDEF
  5
69
330
32
100
AcDbEntity
  8
Текст
100
AcDbText
 10
0.0
 20
1610.0
 30
0.0
 40
30.0
  1
1500х1500
  7
Основной стиль
100
AcDbAttributeDefinition
  3
Габарит
  2
SIZE
 70
0
  0
ATTDEF
  5
6A
330
32
100
AcDbEntity
  8
Текст
100
AcDbText
 10
0.0
 20
1560.0
 30
0.0
 40
30.0
  1
3х2
  7
Основной стиль
100
AcDbAttributeDefinition
  3
Сетка
  2
GRID
 70
0
  0
TEXT
  5
6B
330
32
100
AcDbEntity
  8
Текст
100
AcDbText
 10
1500.0
 20
1560.0
 30
0.0
 40
30.0
  1
S=2.25 м²
  7
Основной стиль
 72
2
 11
1500.0
 21
1560.0
 31
0.0
100
AcDbText
 73
3
  0
DIMENSION
  5
6C
330
32
100
AcDbEntity
  8
Размеры
100
AcDbDimension
280
0
  2
*D1
  3
Основной стиль
 10
30.0
 20
-60.0
 30
0.0
 11
273.33333333333337
 21
-60.0
 31
0.0
 70
32
 71
5
  1
<>
100
AcDbAlignedDimension
 13
30.0
 23
30.0
 33
0.0
 14
516.6666666666667
 24
30.0
 34
0.0
 50
0.0
100
AcDbRotatedDimension
  0
DIMENSION
  5
80
330
32
100
AcDbEntity
  8
Размеры
100
AcDbDimension
280
0
  2
*D2
  3
Основной стиль
 10
516.6666666666667
 20
-60.0
 30
0.0
 11
750.0
 21
-60.0
 31
0.0
 70
32
 71
5
  1
<>
100
AcDbAlignedDimension
 13
516.6666666666667
 23
30.0
 33
0.0
 14
983.3333333333334
 24
30.0
 34
0.0
 50
0.0
100
AcDbRotatedDimension
  0
DIMENSION
  5
90
330
32
100
AcDbEntity
  8
Размеры
100
AcDbDimension
280
0
  2
*D3
  3
Основной стиль
 10
983.3333333333334
 20
-60.0
 30
0.0
 11
1226.6666666666667
 21
-60.0
 31
0.0
 70
32
 71
5
  1
<>
100
AcDbAlignedDimension
 13
983.3333333333334
 23
30.0
 33
0.0
 14
1470.0
 24
30.0
 34
0.0
 50
0.0
100
AcDbRotatedDimension
  0
DIMENSION
  5
A0
330
32
100
AcDbEntity
  8
Размеры
100
AcDbDimension
280
0
  2
*D4
  3
Основной стиль
 10
30.0
 20
-120.0
 30
0.0
 11
750.0
 21
-120.0
 31
0.0
 70
32
 71
5
  1
<>
100
AcDbAlignedDimension
 13
30.0
 23
30.0
 33
0.0
 14
1470.0
 24
30.0
 34
0.0
 50
0.0
100
AcDbRotatedDimension
  0
DIMENSION
  5
B0
330
32
100
AcDbEntity
  8
Размеры
100
AcDbDimension
280
0
  2
*D5
  3
Основной стиль
 10
0.0
 20
-180.0
 30
0.0
 11
750.0
 21
-180.0
 31
0.0
 70
32
 71
5
  1
<>
100
AcDbAlignedDimension
 13
0.0
 23
0.0
 33
0.0
 14
1500.0
 24
0.0
 34
0.0
 50
0.0
100
AcDbRotatedDimension
  0
DIMENSION
  5
C0
330
32
100
AcDbEntity
  8
Размеры
100
AcDbDimension
280
0
  2
*D6
  3
Основной стиль
 10
0.0
 20
-240.0
 30
0.0
 11
15.0
 21
-200.0
 31
0.0
 70
32
 71
5
  1
<>
100
AcDbAlignedDimension
 13
0.0
 23
0.0
 33
0.0
 14
30.0
 24
0.0
 34
0.0
 50
0.0
100
AcDbRotatedDimension
  0
DIMENSION
  5
D1
330
32
100
AcDbEntity
  8
Размеры
100
AcDbDimension
280
0
  2
*D7
  3
Основной стиль
 10
1470.0
 20
-240.0
 30
0.0
 11
1485.0
 21
-200.0
 31
0.0
 70
32
 71
5
  1
<>
100
AcDbAlignedDimension
 13
1470.0
 23
0.0
 33
0.0
 14
1500.0
 24
0.0
 34
0.0
 50
0.0
100
AcDbRotatedDimension
  0
DIMENSION
  5
E2
330
32
100
AcDbEntity
  8
Размеры
100
AcDbDimension
280
0
  2
*D8
  3
Основной стиль
 10
1560.0
 20
60.0
 30
0.0
 11
1560.0
 21
412.5
 31
0.0
 70
32
 71
5
  1
<>
100
AcDbAlignedDimension
 13
1470.0
 23
60.0
 33
0.0
 14
1470.0
 24
765.0
 34
0.0
 50
90.0
100
AcDbRotatedDimension
  0
DIMENSION
  5
F2
330
32
100
AcDbEntity
  8
Размеры
100
AcDbDimension
280
0
  2
*D9
  3
Основной стиль
 10
1560.0
 20
765.0
 30
0.0
 11
1560.0
 21
1117.5
 31
0.0
 70
32
 71
5
  1
<>
100
AcDbAlignedDimension
 13
1470.0
 23
765.0
 33
0.0
 14
1470.0
 24
1470.0
 34
0.0
 50
90.0
100
AcDbRotatedDimension
  0
DIMENSION
  5
102
330
32
100
AcDbEntity
  8
Размеры
100
AcDbDimension
280
0
  2
*D10
  3
Основной стиль
 10
1620.0
 20
60.0
 30
0.0
 11
1620.0
 21
765.0
 31
0.0
 70
32
 71
5
  1
<>
100
AcDbAlignedDimension
 13
1470.0
 23
60.0
 33
0.0
 14
1470.0
 24
1470.0
 34
0.0
 50
90.0
100
AcDbRotatedDimension
  0
DIMENSION
  5
112
330
32
100
AcDbEntity
  8
Размеры
100
AcDbDimension
280
0
  2
*D11
  3
Основной стиль
 10
1560.0
 20
30.0
 30
0.0
 11
1520.0
 21
45.0
 31
0.0
 70
32
 71
5
  1
<>
100
AcDbAlignedDimension
 13
1470.0
 23
30.0
 33
0.0
 14
1470.0
 24
60.0
 34
0.0
 50
90.0
100
AcDbRotatedDimension
  0
DIMENSION
  5
123
330
32
100
AcDbEntity
  8
Размеры
100
AcDbDimension
280
0
  2
*D12
  3
Основной стиль
 10
1680.0
 20
0.0
 30
0.0
 11
1680.0
 21
750.0
 31
0.0
 70
32
 71
5
  1
<>
100
AcDbAlignedDimension
 13
1500.0
 23
0.0
 33
0.0
 14
1500.0
 24
1500.0
 34
0.0
 50
90.0
100
AcDbRotatedDimension
  0
DIMENSION
  5
133
330
32
100
AcDbEntity
  8
Размеры
100
AcDbDimension
280
0
  2
*D13
  3
Основной стиль
 10
1740.0
 20
0.0
 30
0.0
 11
1700.0
 21
15.0
 31
0.0
 70
32
 71
5
  1
<>
100
AcDbAlignedDimension
 13
1500.0
 23
0.0
 33
0.0
 14
1500.0
 24
30.0
 34
0.0
 50
90.0
100
AcDbRotatedDimension
  0
DIMENSION
  5
144
330
32
100
AcDbEntity
  8
Размеры
100
AcDbDimension
280
0
  2
*D14
  3
Основной стиль
 10
1740.0
 20
1470.0
 30
0.0
 11
1700.0
 21
1485.0
 31
0.0
 70
32
 71
5
  1
<>
100
AcDbAlignedDimension
 13
1500.0
 23
1470.0
 33
0.0
 14
1500.0
 24
1500.0
 34
0.0
 50
90.0
100
AcDbRotatedDimension
  0
ENDBLK
  5
34
330
32
100
AcDbEntity
  8
0
100
AcDbBlockEnd
  0
BLOCK
  5
6E
330
6D
100
AcDbEntity
  8
0
100
AcDbBlockBegin
  2
*D1
 70
1
 10
0.0
 20
0.0
 30
0.0
  3
*D1
  1

  0
LINE
  5
70
330
6D
100
AcDbEntity
  8
0
100
AcDbLine
 10
30.0
 20
20.0
 30
0.0
 11
30.0
 21
-72.0
 31
0.0
  0
LINE
  5
71
330
6D
100
AcDbEntity
  8
0
100
AcDbLine
 10
516.6666666666667
 20
20.0
 30
0.0
 11
516.6666666666667
 21
-72.0
 31
0.0
  0
INSERT
  5
76
330
6D
100
AcDbEntity
  8
0
100
AcDbBlockReference
  2
_CLOSEDFILLED
 10
30.0
 20
-60.0
 30
0.0
 41
24.0
 42
24.0
 50
180.0
  0
INSERT
  5
78
330
6D
100
AcDbEntity
  8
0
100
AcDbBlockReference
  2
_CLOSEDFILLED
 10
516.6666666666667
 20
-60.0
 30
0.0
 41
24.0
 42
24.0
  0
LINE
  5
7A
330
6D
100
AcDbEntity
  8
0
100
AcDbLine
 10
54.0
 20
-60.0
 30
0.0
 11
177.33333333333337
 21
-60.0
 31
0.0
  0
LINE
  5
7B
330
6D
100
AcDbEntity
  8
0
100
AcDbLine
 10
369.3333333333334
 20
-60.0
 30
0.0
 11
492.66666666666674
 21
-60.0
 31
0.0
  0
MTEXT
  5
7C
330
6D
100
AcDbEntity
  8
0
100
AcDbMText
 10
273.33333333333337
 20
-60.0
 30
0.0
 40
32.0
 71
5
  1
486,67
  7
Основной стиль
  0
POINT
  5
7D
330
6D
100
AcDbEntity
  8
Defpoints
100
AcDbPoint
 10
30.0
 20
-60.0
 30
0.0
  0
POINT
  5
7E
330
6D
100
AcDbEntity
  8
Defpoints
100
AcDbPoint
 10
30.0
 20
30.0
 30
0.0
  0
POINT
  5
7F
330
6D
100
AcDbEntity
  8
Defpoints
100
AcDbPoint
 10
516.6666666666667
 20
30.0
 30
0.0
  0
ENDBLK
  5
6F
330
6D
100
AcDbEntity
  8
0
100
AcDbBlockEnd
  0
BLOCK
  5
73
330
72
100
AcDbEntity
  8
0
100
AcDbBlockBegin
  2
_CLOSEDFILLED
 70
0
 10
0.0
 20
0.0
 30
0.0
  3
_CLOSEDFILLED
  1

  0
SOLID
  5
75
330
72
100
AcDbEntity
  8
0
  6
BYBLOCK
 62
0
100
AcDbTrace
 10
-1.0
 20
0.16439898372402537
 30
0.0
 11
0.0
 21
0.0
 31
0.0
 12
-1.0
 22
-0.16439898372402537
 32
0.0
 13
-1.0
 23
-0.16439898372402537
 33
0.0
  0
ENDBLK
  5
74
330
72
100
AcDbEntity
  8
0
100
AcDbBlockEnd
  0
BLOCK
  5
82
330
81
100
AcDbEntity
  8
0
100
AcDbBlockBegin
  2
*D2
 70
1
 10
0.0
 20
0.0
 30
0.0
  3
*D2
  1

  0
LINE
  5
84
330
81
100
AcDbEntity
  8
0
100
AcDbLine
 10
516.6666666666667
 20
20.0
 30
0.0
 11
516.6666666666667
 21
-72.0
 31
0.0
  0
LINE
  5
85
330
81
100
AcDbEntity
  8
0
100
AcDbLine
 10
983.3333333333334
 20
20.0
 30
0.0
 11
983.3333333333334
 21
-72.0
 31
0.0
  0
INSERT
  5
86
330
81
100
AcDbEntity
  8
0
100
AcDbBlockReference
  2
_CLOSEDFILLED
 10
516.6666666666667
 20
-60.0
 30
0.0
 41
24.0
 42
24.0
 50
180.0
  0
INSERT
  5
88
330
81
100
AcDbEntity
  8
0
100
AcDbBlockReference
  2
_CLOSEDFILLED
 10
983.3333333333334
 20
-60.0
 30
0.0
 41
24.0
 42
24.0
  0
LINE
  5
8A
330
81
100
AcDbEntity
  8
0
100
AcDbLine
 10
540.6666666666667
 20
-60.0
 30
0.0
 11
654.0
 21
-60.0
 31
0.0
  0
LINE
  5
8B
330
81
100
AcDbEntity
  8
0
100
AcDbLine
 10
846.0
 20
-60.0
 30
0.0
 11
959.3333333333334
 21
-60.0
 31
0.0
  0
MTEXT
  5
8C
330
81
100
AcDbEntity
  8
0
100
AcDbMText
 10
750.0
 20
-60.0
 30
0.0
 40
32.0
 71
5
  1
466,67
  7
Основной стиль
  0
POINT
  5
8D
330
81
100
AcDbEntity
  8
Defpoints
100
AcDbPoint
 10
516.6666666666667
 20
-60.0
 30
0.0
  0
POINT
  5
8E
330
81
100
AcDbEntity
  8
Defpoints
100
AcDbPoint
 10
516.6666666666667
 20
30.0
 30
0.0
  0
POINT
  5
8F
330
81
100
AcDbEntity
  8
Defpoints
100
AcDbPoint
 10
983.3333333333334
 20
30.0
 30
0.0
  0
ENDBLK
  5
83
330
81
100
AcDbEntity
  8
0
100
AcDbBlockEnd
  0
BLOCK
  5
92
330
91
100
AcDbEntity
  8
0
100
AcDbBlockBegin
  2
*D3
 70
1
 10
0.0
 20
0.0
 30
0.0
  3
*D3
  1

  0
LINE
  5
94
330
91
100
AcDbEntity
  8
0
100
AcDbLine
 10
983.3333333333334
 20
20.0
 30
0.0
 11
983.3333333333334
 21
-72.0
 31
0.0
  0
LINE
  5
95
330
91
100
AcDbEntity
  8
0
100
AcDbLine
 10
1470.0
 20
20.0
 30
0.0
 11
1470.0
 21
-72.0
 31
0.0
  0
INSERT
  5
96
330
91
100
AcDbEntity
  8
0
100
AcDbBlockReference
  2
_CLOSEDFILLED
 10
983.3333333333334
 20
-60.0
 30
0.0
 41
24.0
 42
24.0
 50
180.0
  0
INSERT
  5
98
330
91
100
AcDbEntity
  8
0
100
AcDbBlockReference
  2
_CLOSEDFILLED
 10
1470.0
 20
-60.0
 30
0.0
 41
24.0
 42
24.0
  0
LINE
  5
9A
330
91
100
AcDbEntity
  8
0
100
AcDbLine
 10
1007.3333333333334
 20
-60.0
 30
0.0
 11
1130.6666666666667
 21
-60.0
 31
0.0
  0
LINE
  5
9B
330
91
100
AcDbEntity
  8
0
100
AcDbLine
 10
1322.6666666666667
 20
-60.0
 30
0.0
 11
1446.0
 21
-60.0
 31
0.0
  0
MTEXT
  5
9C
330
91
100
AcDbEntity
  8
0
100
AcDbMText
 10
1226.6666666666667
 20
-60.0
 30
0.0
 40
32.0
 71
5
  1
486,67
  7
Основной стиль
  0
POINT
  5
9D
330
91
100
AcDbEntity
  8
Defpoints
100
AcDbPoint
 10
983.3333333333334
 20
-60.0
 30
0.0
  0
POINT
  5
9E
330
91
100
AcDbEntity
  8
Defpoints
100
AcDbPoint
 10
983.3333333333334
 20
30.0
 30
0.0
  0
POINT
  5
9F
330
91
100
AcDbEntity
  8
Defpoints
100
AcDbPoint
 10
1470.0
 20
30.0
 30
0.0
  0
ENDBLK
  5
93
330
91
100
AcDbEntity
  8
0
100
AcDbBlockEnd
  0
BLOCK
  5
A2
330
A1
100
AcDbEntity
  8
0
100
AcDbBlockBegin
  2
*D4
 70
1
 10
0.0
 20
0.0
 30
0.0
  3
*D4
  1

  0
LINE
  5
A4
330
A1
100
AcDbEntity
  8
0
100
AcDbLine
 10
30.0
 20
20.0
 30
0.0
 11
30.0
 21
-132.0
 31
0.0
  0
LINE
  5
A5
330
A1
100
AcDbEntity
  8
0
100
AcDbLine
 10
1470.0
 20
20.0
 30
0.0
 11
1470.0
 21
-132.0
 31
0.0
  0
INSERT
  5
A6
330
A1
100
AcDbEntity
  8
0
100
AcDbBlockReference
  2
_CLOSEDFILLED
 10
30.0
 20
-120.0
 30
0.0
 41
24.0
 42
24.0
 50
180.0
  0
INSERT
  5
A8
330
A1
100
AcDbEntity
  8
0
100
AcDbBlockReference
  2
_CLOSEDFILLED
 10
1470.0
 20
-120.0
 30
0.0
 41
24.0
 42
24.0
  0
LINE
  5
AA
330
A1
100
AcDbEntity
  8
0
100
AcDbLine
 10
54.0
 20
-120.0
 30
0.0
 11
686.0
 21
-120.0
 31
0.0
  0
LINE
  5
AB
330
A1
100
AcDbEntity
  8
0
100
AcDbLine
 10
814.0000000000001
 20
-120.0
 30
0.0
 11
1446.0
 21
-120.0
 31
0.0
  0
MTEXT
  5
AC
330
A1
100
AcDbEntity
  8
0
100
AcDbMText
 10
750.0
 20
-120.0
 30
0.0
 40
32.0
 71
5
  1
1440
  7
Основной стиль
  0
POINT
  5
AD
330
A1
100
AcDbEntity
  8
Defpoints
100
AcDbPoint
 10
30.0
 20
-120.0
 30
0.0
  0
POINT
  5
AE
330
A1
100
AcDbEntity
  8
Defpoints
100
AcDbPoint
 10
30.0
 20
30.0
 30
0.0
  0
POINT
  5
AF
330
A1
100
AcDbEntity
  8
Defpoints
100
AcDbPoint
 10
1470.0
 20
30.0
 30
0.0
  0
ENDBLK
  5
A3
330
A1
100
AcDbEntity
  8
0
100
AcDbBlockEnd
  0
BLOCK
  5
B2
330
B1
100
AcDbEntity
  8
0
100
AcDbBlockBegin
  2
*D5
 70
1
 10
0.0
 20
0.0
 30
0.0
  3
*D5
  1

  0
LINE
  5
B4
330
B1
100
AcDbEntity
  8
0
100
AcDbLine
 10
0.0
 20
-10.0
 30
0.0
 11
0.0
 21
-192.0
 31
0.0
  0
LINE
  5
B5
330
B1
100
AcDbEntity
  8
0
100
AcDbLine
 10
1500.0
 20
-10.0
 30
0.0
 11
1500.0
 21
-192.0
 31
0.0
  0
INSERT
  5
B6
330
B1
100
AcDbEntity
  8
0
100
AcDbBlockReference
  2
_CLOSEDFILLED
 10
0.0
 20
-180.0
 30
0.0
 41
24.0
 42
24.0
 50
180.0
  0
INSERT
  5
B8
330
B1
100
AcDbEntity
  8
0
100
AcDbBlockReference
  2
_CLOSEDFILLED
 10
1500.0
 20
-180.0
 30
0.0
 41
24.0
 42
24.0
  0
LINE
  5
BA
330
B1
100
AcDbEntity
  8
0
100
AcDbLine
 10
24.0
 20
-180.0
 30
0.0
 11
686.0
 21
-180.0
 31
0.0
  0
LINE
  5
BB
330
B1
100
AcDbEntity
  8
0
100
AcDbLine
 10
814.0
 20
-180.0
 30
0.0
 11
1476.0
 21
-180.0
 31
0.0
  0
MTEXT
  5
BC
330
B1
100
AcDbEntity
  8
0
100
AcDbMText
 10
750.0
 20
-180.0
 30
0.0
 40
32.0
 71
5
  1
1500
  7
Основной стиль
  0
POINT
  5
BD
330
B1
100
AcDbEntity
  8
Defpoints
100
AcDbPoint
 10
0.0
 20
-180.0
 30
0.0
  0
POINT
  5
BE
330
B1
100
AcDbEntity
  8
Defpoints
100
AcDbPoint
 10
0.0
 20
0.0
 30
0.0
  0
POINT
  5
BF
330
B1
100
AcDbEntity
  8
Defpoints
100
AcDbPoint
 10
1500.0
 20
0.0
 30
0.0
  0
ENDBLK
  5
B3
330
B1
100
AcDbEntity
  8
0
100
AcDbBlockEnd
  0
BLOCK
  5
C2
330
C1
100
AcDbEntity
  8
0
100
AcDbBlockBegin
  2
*D6
 70
1
 10
0.0
 20
0.0
 30
0.0
  3
*D6
  1

  0
LINE
  5
C4
330
C1
100
AcDbEntity
  8
0
100
AcDbLine
 10
0.0
 20
-10.0
 30
0.0
 11
0.0
 21
-252.0
 31
0.0
  0
LINE
  5
C5
330
C1
100
AcDbEntity
  8
0
100
AcDbLine
 10
30.0
 20
-10.0
 30
0.0
 11
30.0
 21
-252.0
 31
0.0
  0
INSERT
  5
C6
330
C1
100
AcDbEntity
  8
0
100
AcDbBlockReference
  2
_CLOSEDFILLED
 10
0.0
 20
-240.0
 30
0.0
 41
24.0
 42
24.0
  0
INSERT
  5
C8
330
C1
100
AcDbEntity
  8
0
100
AcDbBlockReference
  2
_CLOSEDFILLED
 10
30.0
 20
-240.0
 30
0.0
 41
24.0
 42
24.0
 50
180.0
  0
LINE
  5
CA
330
C1
100
AcDbEntity
  8
0
100
AcDbLine
 10
-24.0
 20
-240.0
 30
0.0
 11
-48.0
 21
-240.0
 31
0.0
  0
LINE
  5
CB
330
C1
100
AcDbEntity
  8
0
100
AcDbLine
 10
54.0
 20
-240.0
 30
0.0
 11
78.0
 21
-240.0
 31
0.0
  0
LINE
  5
CC
330
C1
100
AcDbEntity
  8
0
100
AcDbLine
 10
0.0
 20
-240.0
 30
0.0
 11
30.0
 21
-240.0
 31
0.0
  0
MTEXT
  5
CD
330
C1
100
AcDbEntity
  8
0
100
AcDbMText
 10
15.0
 20
-200.0
 30
0.0
 40
32.0
 71
5
  1
30
  7
Основной стиль
  0
POINT
  5
CE
330
C1
100
AcDbEntity
  8
Defpoints
100
AcDbPoint
 10
0.0
 20
-240.0
 30
0.0
  0
POINT
  5
CF
330
C1
100
AcDbEntity
  8
Defpoints
100
AcDbPoint
 10
0.0
 20
0.0
 30
0.0
  0
POINT
  5
D0
330
C1
100
AcDbEntity
  8
Defpoints
100
AcDbPoint
 10
30.0
 20
0.0
 30
0.0
  0
ENDBLK
  5
C3
330
C1
100
AcDbEntity
  8
0
100
AcDbBlockEnd
  0
BLOCK
  5
D3
330
D2
100
AcDbEntity
  8
0
100
AcDbBlockBegin
  2
*D7
 70
1
 10
0.0
 20
0.0
 30
0.0
  3
*D7
  1

  0
LINE
  5
D5
330
D2
100
AcDbEntity
  8
0
100
AcDbLine
 10
1470.0
 20
-10.0
 30
0.0
 11
1470.0
 21
-252.0
 31
0.0
  0
LINE
  5
D6
330
D2
100
AcDbEntity
  8
0
100
AcDbLine
 10
1500.0
 20
-10.0
 30
0.0
 11
1500.0
 21
-252.0
 31
0.0
  0
INSERT
  5
D7
330
D2
100
AcDbEntity
  8
0
100
AcDbBlockReference
  2
_CLOSEDFILLED
 10
1470.0
 20
-240.0
 30
0.0
 41
24.0
 42
24.0
  0
INSERT
  5
D9
330
D2
100
AcDbEntity
  8
0
100
AcDbBlockReference
  2
_CLOSEDFILLED
 10
1500.0
 20
-240.0
 30
0.0
 41
24.0
 42
24.0
 50
180.0
  0
LINE
  5
DB
330
D2
100
AcDbEntity
  8
0
100
AcDbLine
 10
1446.0
 20
-240.0
 30
0.0
 11
1422.0
 21
-240.0
 31
0.0
  0
LINE
  5
DC
330
D2
100
AcDbEntity
  8
0
100
AcDbLine
 10
1524.0
 20
-240.0
 30
0.0
 11
1548.0
 21
-240.0
 31
0.0
  0
LINE
  5
DD
330
D2
100
AcDbEntity
  8
0
100
AcDbLine
 10
1470.0
 20
-240.0
 30
0.0
 11
1500.0
 21
-240.0
 31
0.0
  0
MTEXT
  5
DE
330
D2
100
AcDbEntity
  8
0
100
AcDbMText
 10
1485.0
 20
-200.0
 30
0.0
 40
32.0
 71
5
  1
30
  7
Основной стиль
  0
POINT
  5
DF
330
D2
100
AcDbEntity
  8
Defpoints
100
AcDbPoint
 10
1470.0
 20
-240.0
 30
0.0
  0
POINT
  5
E0
330
D2
100
AcDbEntity
  8
Defpoints
100
AcDbPoint
 10
1470.0
 20
0.0
 30
0.0
  0
POINT
  5
E1
330
D2
100
AcDbEntity
  8
Defpoints
100
AcDbPoint
 10
1500.0
 20
0.0
 30
0.0
  0
ENDBLK
  5
D4
330
D2
100
AcDbEntity
  8
0
100
AcDbBlockEnd
  0
BLOCK
  5
E4
330
E3
100
AcDbEntity
  8
0
100
AcDbBlockBegin
  2
*D8
 70
1
 10
0.0
 20
0.0
 30
0.0
  3
*D8
  1

  0
LINE
  5
E6
330
E3
100
AcDbEntity
  8
0
100
AcDbLine
 10
1480.0
 20
60.0
 30
0.0
 11
1572.0
 21
60.0
 31
0.0
  0
LINE
  5
E7
330
E3
100
AcDbEntity
  8
0
100
AcDbLine
 10
1480.0
 20
765.0
 30
0.0
 11
1572.0
 21
765.0
 31
0.0
  0
INSERT
  5
E8
330
E3
100
AcDbEntity
  8
0
100
AcDbBlockReference
  2
_CLOSEDFILLED
 10
1560.0
 20
60.0
 30
0.0
 41
24.0
 42
24.0
 50
270.0
  0
INSERT
  5
EA
330
E3
100
AcDbEntity
  8
0
100
AcDbBlockReference
  2
_CLOSEDFILLED
 10
1560.0
 20
765.0
 30
0.0
 41
24.0
 42
24.0
 50
90.0
  0
LINE
  5
EC
330
E3
100
AcDbEntity
  8
0
100
AcDbLine
 10
1560.0
 20
84.0
 30
0.0
 11
1560.0
 21
364.5
 31
0.0
  0
LINE
  5
ED
330
E3
100
AcDbEntity
  8
0
100
AcDbLine
 10
1560.0
 20
460.5
 30
0.0
 11
1560.0
 21
741.0
 31
0.0
  0
MTEXT
  5
EE
330
E3
100
AcDbEntity
  8
0
100
AcDbMText
 10
1560.0
 20
412.5
 30
0.0
 40
32.0
 71
5
  1
705
  7
Основной стиль
 50
90.0
  0
POINT
  5
EF
330
E3
100
AcDbEntity
  8
Defpoints
100
AcDbPoint
 10
1560.0
 20
60.0
 30
0.0
  0
POINT
  5
F0
330
E3
100
AcDbEntity
  8
Defpoints
100
AcDbPoint
 10
1470.0
 20
60.0
 30
0.0
  0
POINT
  5
F1
330
E3
100
AcDbEntity
  8
Defpoints
100
AcDbPoint
 10
1470.0
 20
765.0
 30
0.0
  0
ENDBLK
  5
E5
330
E3
100
AcDbEntity
  8
0
100
AcDbBlockEnd
  0
BLOCK
  5
F4
330
F3
100
AcDbEntity
  8
0
100
AcDbBlockBegin
  2
*D9
 70
1
 10
0.0
 20
0.0
 30
0.0
  3
*D9
  1

  0
LINE
  5
F6
330
F3
100
AcDbEntity
  8
0
100
AcDbLine
 10
1480.0
 20
765.0
 30
0.0
 11
1572.0
 21
765.0
 31
0.0
  0
LINE
  5
F7
330
F3
100
AcDbEntity
  8
0
100
AcDbLine
 10
1480.0
 20
1470.0
 30
0.0
 11
1572.0
 21
1470.0
 31
0.0
  0
INSERT
  5
F8
330
F3
100
AcDbEntity
  8
0
100
AcDbBlockReference
  2
_CLOSEDFILLED
 10
1560.0
 20
765.0
 30
0.0
 41
24.0
 42
24.0
 50
270.0
  0
INSERT
  5
FA
330
F3
100
AcDbEntity
  8
0
100
AcDbBlockReference
  2
_CLOSEDFILLED
 10
1560.0
 20
1470.0
 30
0.0
 41
24.0
 42
24.0
 50
90.0
  0
LINE
  5
FC
330
F3
100
AcDbEntity
  8
0
100
AcDbLine
 10
1560.0
 20
789.0
 30
0.0
 11
1560.0
 21
1069.5
 31
0.0
  0
LINE
  5
FD
330
F3
100
AcDbEntity
  8
0
100
AcDbLine
 10
1560.0
 20
1165.5
 30
0.0
 11
1560.0
 21
1446.0
 31
0.0
  0
MTEXT
  5
FE
330
F3
100
AcDbEntity
  8
0
100
AcDbMText
 10
1560.0
 20
1117.5
 30
0.0
 40
32.0
 71
5
  1
705
  7
Основной стиль
 50
90.0
  0
POINT
  5
FF
330
F3
100
AcDbEntity
  8
Defpoints
100
AcDbPoint
 10
1560.0
 20
765.0
 30
0.0
  0
POINT
  5
100
330
F3
100
AcDbEntity
  8
Defpoints
100
AcDbPoint
 10
1470.0
 20
765.0
 30
0.0
  0
POINT
  5
101
330
F3
100
AcDbEntity
  8
Defpoints
100
AcDbPoint
 10
1470.0
 20
1470.0
 30
0.0
  0
ENDBLK
  5
F5
330
F3
100
AcDbEntity
  8
0
100
AcDbBlockEnd
  0
BLOCK
  5
104
330
103
100
AcDbEntity
  8
0
100
AcDbBlockBegin
  2
*D10
 70
1
 10
0.0
 20
0.0
 30
0.0
  3
*D10
  1

  0
LINE
  5
106
330
103
100
AcDbEntity
  8
0
100
AcDbLine
 10
1480.0
 20
60.0
 30
0.0
 11
1632.0
 21
60.0
 31
0.0
  0
LINE
  5
107
330
103
100
AcDbEntity
  8
0
100
AcDbLine
 10
1480.0
 20
1470.0
 30
0.0
 11
1632.0
 21
1470.0
 31
0.0
  0
INSERT
  5
108
330
103
100
AcDbEntity
  8
0
100
AcDbBlockReference
  2
_CLOSEDFILLED
 10
1620.0
 20
60.0
 30
0.0
 41
24.0
 42
24.0
 50
270.0
  0
INSERT
  5
10A
330
103
100
AcDbEntity
  8
0
100
AcDbBlockReference
  2
_CLOSEDFILLED
 10
1620.0
 20
1470.0
 30
0.0
 41
24.0
 42
24.0
 50
90.0
  0
LINE
  5
10C
330
103
100
AcDbEntity
  8
0
100
AcDbLine
 10
1620.0
 20
84.0
 30
0.0
 11
1620.0
 21
701.0
 31
0.0
  0
LINE
  5
10D
330
103
100
AcDbEntity
  8
0
100
AcDbLine
 10
1620.0
 20
829.0
 30
0.0
 11
1620.0
 21
1446.0
 31
0.0
  0
MTEXT
  5
10E
330
103
100
AcDbEntity
  8
0
100
AcDbMText
 10
1620.0
 20
765.0
 30
0.0
 40
32.0
 71
5
  1
1410
  7
Основной стиль
 50
90.0
  0
POINT
  5
10F
330
103
100
AcDbEntity
  8
Defpoints
100
AcDbPoint
 10
1620.0
 20
60.0
 30
0.0
  0
POINT
  5
110
330
103
100
AcDbEntity
  8
Defpoints
100
AcDbPoint
 10
1470.0
 20
60.0
 30
0.0
  0
POINT
  5
111
330
103
100
AcDbEntity
  8
Defpoints
100
AcDbPoint
 10
1470.0
 20
1470.0
 30
0.0
  0
ENDBLK
  5
105
330
103
100
AcDbEntity
  8
0
100
AcDbBlockEnd
  0
BLOCK
  5
114
330
113
100
AcDbEntity
  8
0
100
AcDbBlockBegin
  2
*D11
 70
1
 10
0.0
 20
0.0
 30
0.0
  3
*D11
  1

  0
LINE
  5
116
330
113
100
AcDbEntity
  8
0
100
AcDbLine
 10
1480.0
 20
30.0
 30
0.0
 11
1572.0
 21
30.0
 31
0.0
  0
LINE
  5
117
330
113
100
AcDbEntity
  8
0
100
AcDbLine
 10
1480.0
 20
60.0
 30
0.0
 11
1572.0
 21
60.0
 31
0.0
  0
INSERT
  5
118
330
113
100
AcDbEntity
  8
0
100
AcDbBlockReference
  2
_CLOSEDFILLED
 10
1560.0
 20
30.0
 30
0.0
 41
24.0
 42
24.0
 50
90.0
  0
INSERT
  5
11A
330
113
100
AcDbEntity
  8
0
100
AcDbBlockReference
  2
_CLOSEDFILLED
 10
1560.0
 20
60.0
 30
0.0
 41
24.0
 42
24.0
 50
270.0
  0
LINE
  5
11C
330
113
100
AcDbEntity
  8
0
100
AcDbLine
 10
1560.0
 20
6.0
 30
0.0
 11
1560.0
 21
-18.0
 31
0.0
  0
LINE
  5
11D
330
113
100
AcDbEntity
  8
0
100
AcDbLine
 10
1560.0
 20
84.0
 30
0.0
 11
1560.0
 21
108.0
 31
0.0
  0
LINE
  5
11E
330
113
100
AcDbEntity
  8
0
100
AcDbLine
 10
1560.0
 20
30.0
 30
0.0
 11
1560.0
 21
60.0
 31
0.0
  0
MTEXT
  5
11F
330
113
100
AcDbEntity
  8
0
100
AcDbMText
 10
1520.0
 20
45.0
 30
0.0
 40
32.0
 71
5
  1
30
  7
Основной стиль
 50
90.0
  0
POINT
  5
120
330
113
100
AcDbEntity
  8
Defpoints
100
AcDbPoint
 10
1560.0
 20
30.0
 30
0.0
  0
POINT
  5
121
330
113
100
AcDbEntity
  8
Defpoints
100
AcDbPoint
 10
1470.0
 20
30.0
 30
0.0
  0
POINT
  5
122
330
113
100
AcDbEntity
  8
Defpoints
100
AcDbPoint
 10
1470.0
 20
60.0
 30
0.0
  0
ENDBLK
  5
115
330
113
100
AcDbEntity
  8
0
100
AcDbBlockEnd
  0
BLOCK
  5
125
330
124
100
AcDbEntity
  8
0
100
AcDbBlockBegin
  2
*D12
 70
1
 10
0.0
 20
0.0
 30
0.0
  3
*D12
  1

  0
LINE
  5
127
330
124
100
AcDbEntity
  8
0
100
AcDbLine
 10
1510.0
 20
0.0
 30
0.0
 11
1692.0
 21
0.0
 31
0.0
  0
LINE
  5
128
330
124
100
AcDbEntity
  8
0
100
AcDbLine
 10
1510.0
 20
1500.0
 30
0.0
 11
1692.0
 21
1500.0
 31
0.0
  0
INSERT
  5
129
330
124
100
AcDbEntity
  8
0
100
AcDbBlockReference
  2
_CLOSEDFILLED
 10
1680.0
 20
0.0
 30
0.0
 41
24.0
 42
24.0
 50
270.0
  0
INSERT
  5
12B
330
124
100
AcDbEntity
  8
0
100
AcDbBlockReference
  2
_CLOSEDFILLED
 10
1680.0
 20
1500.0
 30
0.0
 41
24.0
 42
24.0
 50
90.0
  0
LINE
  5
12D
330
124
100
AcDbEntity
  8
0
100
AcDbLine
 10
1680.0
 20
24.0
 30
0.0
 11
1680.0
 21
686.0
 31
0.0
  0
LINE
  5
12E
330
124
100
AcDbEntity
  8
0
100
AcDbLine
 10
1680.0
 20
814.0
 30
0.0
 11
1680.0
 21
1476.0
 31
0.0
  0
MTEXT
  5
12F
330
124
100
AcDbEntity
  8
0
100
AcDbMText
 10
1680.0
 20
750.0
 30
0.0
 40
32.0
 71
5
  1
1500
  7
Основной стиль
 50
90.0
  0
POINT
  5
130
330
124
100
AcDbEntity
  8
Defpoints
100
AcDbPoint
 10
1680.0
 20
0.0
 30
0.0
  0
POINT
  5
131
330
124
100
AcDbEntity
  8
Defpoints
100
AcDbPoint
 10
1500.0
 20
0.0
 30
0.0
  0
POINT
  5
132
330
124
100
AcDbEntity
  8
Defpoints
100
AcDbPoint
 10
1500.0
 20
1500.0
 30
0.0
  0
ENDBLK
  5
126
330
124
100
AcDbEntity
  8
0
100
AcDbBlockEnd
  0
BLOCK
  5
135
330
134
100
AcDbEntity
  8
0
100
AcDbBlockBegin
  2
*D13
 70
1
 10
0.0
 20
0.0
 30
0.0
  3
*D13
  1

  0
LINE
  5
137
330
134
100
AcDbEntity
  8
0
100
AcDbLine
 10
1510.0
 20
0.0
 30
0.0
 11
1752.0
 21
0.0
 31
0.0
  0
LINE
  5
138
330
134
100
AcDbEntity
  8
0
100
AcDbLine
 10
1510.0
 20
30.0
 30
0.0
 11
1752.0
 21
30.0
 31
0.0
  0
INSERT
  5
139
330
134
100
AcDbEntity
  8
0
100
AcDbBlockReference
  2
_CLOSEDFILLED
 10
1740.0
 20
0.0
 30
0.0
 41
24.0
 42
24.0
 50
90.0
  0
INSERT
  5
13B
330
134
100
AcDbEntity
  8
0
100
AcDbBlockReference
  2
_CLOSEDFILLED
 10
1740.0
 20
30.0
 30
0.0
 41
24.0
 42
24.0
 50
270.0
  0
LINE
  5
13D
330
134
100
AcDbEntity
  8
0
100
AcDbLine
 10
1740.0
 20
-24.0
 30
0.0
 11
1740.0
 21
-48.0
 31
0.0
  0
LINE
  5
13E
330
134
100
AcDbEntity
  8
0
100
AcDbLine
 10
1740.0
 20
54.0
 30
0.0
 11
1740.0
 21
78.0
 31
0.0
  0
LINE
  5
13F
330
134
100
AcDbEntity
  8
0
100
AcDbLine
 10
1740.0
 20
0.0
 30
0.0
 11
1740.0
 21
30.0
 31
0.0
  0
MTEXT
  5
140
330
134
100
AcDbEntity
  8
0
100
AcDbMText
 10
1700.0
 20
15.0
 30
0.0
 40
32.0
 71
5
  1
30
  7
Основной стиль
 50
90.0
  0
POINT
  5
141
330
134
100
AcDbEntity
  8
Defpoints
100
AcDbPoint
 10
1740.0
 20
0.0
 30
0.0
  0
POINT
  5
142
330
134
100
AcDbEntity
  8
Defpoints
100
AcDbPoint
 10
1500.0
 20
0.0
 30
0.0
  0
POINT
  5
143
330
134
100
AcDbEntity
  8
Defpoints
100
AcDbPoint
 10
1500.0
 20
30.0
 30
0.0
  0
ENDBLK
  5
136
330
134
100
AcDbEntity
  8
0
100
AcDbBlockEnd
  0
BLOCK
  5
146
330
145
100
AcDbEntity
  8
0
100
AcDbBlockBegin
  2
*D14
 70
1
 10
0.0
 20
0.0
 30
0.0
  3
*D14
  1

  0
LINE
  5
148
330
145
100
AcDbEntity
  8
0
100
AcDbLine
 10
1510.0
 20
1470.0
 30
0.0
 11
1752.0
 21
1470.0
 31
0.0
  0
LINE
  5
149
330
145
100
AcDbEntity
  8
0
100
AcDbLine
 10
1510.0
 20
1500.0
 30
0.0
 11
1752.0
 21
1500.0
 31
0.0
  0
INSERT
  5
14A
330
145
100
AcDbEntity
  8
0
100
AcDbBlockReference
  2
_CLOSEDFILLED
 10
1740.0
 20
1470.0
 30
0.0
 41
24.0
 42
24.0
 50
90.0
  0
INSERT
  5
14C
330
145
100
AcDbEntity
  8
0
100
AcDbBlockReference
  2
_CLOSEDFILLED
 10
1740.0
 20
1500.0
 30
0.0
 41
24.0
 42
24.0
 50
270.0
  0
LINE
  5
14E
330
145
100
AcDbEntity
  8
0
100
AcDbLine
 10
1740.0
 20
1446.0
 30
0.0
 11
1740.0
 21
1422.0
 31
0.0
  0
LINE
  5
14F
330
145
100
AcDbEntity
  8
0
100
AcDbLine
 10
1740.0
 20
1524.0
 30
0.0
 11
1740.0
 21
1548.0
 31
0.0
  0
LINE
  5
150
330
145
100
AcDbEntity
  8
0
100
AcDbLine
 10
1740.0
 20
1470.0
 30
0.0
 11
1740.0
 21
1500.0
 31
0.0
  0
MTEXT
  5
151
330
145
100
AcDbEntity
  8
0
100
AcDbMText
 10
1700.0
 20
1485.0
 30
0.0
 40
32.0
 71
5
  1
30
  7
Основной стиль
 50
90.0
  0
POINT
  5
152
330
145
100
AcDbEntity
  8
Defpoints
100
AcDbPoint
 10
1740.0
 20
1470.0
 30
0.0
  0
POINT
  5
153
330
145
100
AcDbEntity
  8
Defpoints
100
AcDbPoint
 10
1500.0
 20
1470.0
 30
0.0
  0
POINT
  5
154
330
145
100
AcDbEntity
  8
Defpoints
100
AcDbPoint
 10
1500.0
 20
1500.0
 30
0.0
  0
ENDBLK
  5
147
330
145
100
AcDbEntity
  8
0
100
AcDbBlockEnd
  0
ENDSEC
  0
SECTION
  2
ENTITIES
  0
INSERT
  5
155
330
17
100
AcDbEntity
  8
Окна
100
AcDbBlockReference
 66
1
  2
Тестовый объект ОК-1 1500х1500 Снаружи
 10
0.0
 20
0.0
 30
0.0
  0
ATTRIB
  5
157
330
17
100
AcDbEntity
  8
Текст
100
AcDbText
 10
0.0
 20
1810.0
 30
0.0
 40
30.0
  1
Тестовый объект
  7
Основной стиль
 11
0.0
 21
1810.0
 31
0.0
100
AcDbAttribute
  2
OBJECT
 70
0
  0
ATTRIB
  5
158
330
17
100
AcDbEntity
  8
Текст
100
AcDbText
 10
0.0
 20
1760.0
 30
0.0
 40
30.0
  1
ОК-1/1 шт.
  7
Основной стиль
 11
0.0
 21
1760.0
 31
0.0
100
AcDbAttribute
  2
WINDOW
 70
0
  0
ATTRIB
  5
159
330
17
100
AcDbEntity
  8
Текст
100
AcDbText
 10
0.0
 20
1710.0
 30
0.0
 40
30.0
  1
RAL8017/RAL9016
  7
Основной стиль
 11
0.0
 21
1710.0
 31
0.0
100
AcDbAttribute
  2
COLOR
 70
0
  0
ATTRIB
  5
15A
330
17
100
AcDbEntity
  8
Текст
100
AcDbText
 10
0.0
 20
1660.0
 30
0.0
 40
30.0
  1
Заполнение СПД42
  7
Основной стиль
 11
0.0
 21
1660.0
 31
0.0
100
AcDbAttribute
  2
GLAZING
 70
0
  0
ATTRIB
  5
15B
330
17
100
AcDbEntity
  8
Текст
100
AcDbText
 10
0.0
 20
1610.0
 30
0.0
 40
30.0
  1
1500х1500
  7
Основной стиль
 11
0.0
 21
1610.0
 31
0.0
100
AcDbAttribute
  2
SIZE
 70
0
  0
ATTRIB
  5
15C
330
17
100
AcDbEntity
  8
Текст
100
AcDbText
 10
0.0
 20
1560.0
 30
0.0
 40
30.0
  1
3х2
  7
Основной стиль
 11
0.0
 21
1560.0
 31
0.0
100
AcDbAttribute
  2
GRID
 70
0
  0
SEQEND
  5
156
330
155
100
AcDbEntity
  8
Окна
  0
ENDSEC
  0
SECTION
  2
OBJECTS
  0
DICTIONARY
  5
A
330
0
100
AcDbDictionary
281
1
  3
ACAD_COLOR
350
B
  3
ACAD_GROUP
350
C
  3
ACAD_LAYOUT
350
D
  3
ACAD_MATERIAL
350
E
  3
ACAD_MLEADERSTYLE
350
F
  3
ACAD_MLINESTYLE
350
10
  3
ACAD_PLOTSETTINGS
350
11
  3
ACAD_PLOTSTYLENAME
350
12
  3
ACAD_SCALELIST
350
14
  3
ACAD_TABLESTYLE
350
15
  3
ACAD_VISUALSTYLE
350
16
  3
EZDXF_META
350
2D
  0
DICTIONARY
  5
B
330
A
100
AcDbDictionary
281
1
  0
DICTIONARY
  5
C
330
A
100
AcDbDictionary
281
1
  0
DICTIONARY
  5
D
330
A
100
AcDbDictionary
281
1
  3
Model
350
1A
  3
Layout1
350
1E
  0
DICTIONARY
  5
E
330
A
100
AcDbDictionary
281
1
  3
ByBlock
350
1F
  3
ByLayer
350
20
  3
Global
350
21
  0
DICTIONARY
  5
F
330
A
100
AcDbDictionary
281
1
  3
Standard
350
2C
  0
DICTIONARY
  5
10
330
A
100
AcDbDictionary
281
1
  3
Standard
350
22
  0
DICTIONARY
  5
11
330
A
100
AcDbDictionary
281
1
  0
ACDBDICTIONARYWDFLT
  5
12
330
A
100
AcDbDictionary
281
1
  3
Normal
350
13
100
AcDbDictionaryWithDefault
340
13
  0
ACDBPLACEHOLDER
  5
13
330
12
  0
DICTIONARY
  5
14
330
A
100
AcDbDictionary
281
1
  0
DICTIONARY
  5
15
330
A
100
AcDbDictionary
281
1
  0
DICTIONARY
  5
16
330
A
100
AcDbDictionary
281
1
  0
LAYOUT
  5
1A
330
D
100
AcDbPlotSettings
  1

  4
A3
  6

 40
7.5
 41
20.0
 42
7.5
 43
20.0
 44
420.0
 45
297.0
 46
0.0
 47
0.0
 48
0.0
 49
0.0
140
0.0
141
0.0
142
1.0
143
1.0
 70
1024
 72
1
 73
0
 74
5
  7

 75
16
 76
0
 77
2
 78
300
147
1.0
148
0.0
149
0.0
100
AcDbLayout
  1
Model
 70
1
 71
0
 10
0.0
 20
0.0
 11
420.0
 21
297.0
 12
0.0
 22
0.0
 32
0.0
 14
1e+20
 24
1e+20
 34
1e+20
 15
-1e+20
 25
-1e+20
 35
-1e+20
146
0.0
 13
0.0
 23
0.0
 33
0.0
 16
1.0
 26
0.0
 36
0.0
 17
0.0
 27
1.0
 37
0.0
 76
1
330
17
  0
LAYOUT
  5
1E
330
D
100
AcDbPlotSettings
  1

  4
A3
  6

 40
7.5
 41
20.0
 42
7.5
 43
20.0
 44
420.0
 45
297.0
 46
0.0
 47
0.0
 48
0.0
 49
0.0
140
0.0
141
0.0
142
1.0
143
1.0
 70
0
 72
1
 73
0
 74
5
  7

 75
16
 76
0
 77
2
 78
300
147
1.0
148
0.0
149
0.0
100
AcDbLayout
  1
Layout1
 70
1
 71
1
 10
0.0
 20
0.0
 11
420.0
 21
297.0
 12
0.0
 22
0.0
 32
0.0
 14
1e+20
 24
1e+20
 34
1e+20
 15
-1e+20
 25
-1e+20
 35
-1e+20
146
0.0
 13
0.0
 23
0.0
 33
0.0
 16
1.0
 26
0.0
 36
0.0
 17
0.0
 27
1.0
 37
0.0
 76
1
330
1B
  0
MATERIAL
  5
1F
102
{ACAD_REACTORS
330
E
102
}
330
E
100
AcDbMaterial
  1
ByBlock
  2

 70
0
 40
1.0
 71
1
 41
1.0
 91
-1023410177
 42
1.0
 72
1
  3

 73
1
 74
1
 75
1
 44
0.5
 73
0
 45
1.0
 46
1.0
 77
1
  4

 78
1
 79
1
170
1
 48
1.0
171
1
  6

172
1
173
1
174
1
140
1.0
141
1.0
175
1
  7

176
1
177
1
178
1
143
1.0
179
1
  8

270
1
271
1
272
1
145
1.0
146
1.0
273
1
  9

274
1
275
1
276
1
 42
1.0
 72
1
  3

 73
1
 74
1
 75
1
 94
63
  0
MATERIAL
  5
20
102
{ACAD_REACTORS
330
E
102
}
330
E
100
AcDbMaterial
  1
ByLayer
  2

 70
0
 40
1.0
 71
1
 41
1.0
 91
-1023410177
 42
1.0
 72
1
  3

 73
1
 74
1
 75
1
 44
0.5
 73
0
 45
1.0
 46
1.0
 77
1
  4

 78
1
 79
1
170
1
 48
1.0
171
1
  6

172
1
173
1
174
1
140
1.0
141
1.0
175
1
  7

176
1
177
1
178
1
143
1.0
179
1
  8

270
1
271
1
272
1
145
1.0
146
1.0
273
1
  9

274
1
275
1
276
1
 42
1.0
 72
1
  3

 73
1
 74
1
 75
1
 94
63
  0
MATERIAL
  5
21
102
{ACAD_REACTORS
330
E
102
}
330
E
100
AcDbMaterial
  1
Global
  2

 70
0
 40
1.0
 71
1
 41
1.0
 91
-1023410177
 42
1.0
 72
1
  3

 73
1
 74
1
 75
1
 44
0.5
 73
0
 45
1.0
 46
1.0
 77
1
  4

 78
1
 79
1
170
1
 48
1.0
171
1
  6

172
1
173
1
174
1
140
1.0
141
1.0
175
1
  7

176
1
177
1
178
1
143
1.0
179
1
  8

270
1
271
1
272
1
145
1.0
146
1.0
273
1
  9

274
1
275
1
276
1
 42
1.0
 72
1
  3

 73
1
 74
1
 75
1
 94
63
  0
MLINESTYLE
  5
22
102
{ACAD_REACTORS
330
10
102
}
330
10
100
AcDbMlineStyle
  2
Standard
 70
0
  3

 62
256
 51
90.0
 52
90.0
 71
2
 49
0.5
 62
256
  6
BYLAYER
 49
-0.5
 62
256
  6
BYLAYER
  0
MLEADERSTYLE
  5
2C
102
{ACAD_REACTORS
330
F
102
}
330
F
100
AcDbMLeaderStyle
179
2
170
2
171
1
172
0
 90
2
 40
0.0
 41
0.0
173
1
 91
-1056964608
 92
-2
290
1
 42
2.0
291
1
 43
8.0
  3
Standard
 44
4.0
300

342
29
174
1
175
1
176
0
178
1
 93
-1056964608
 45
4.0
292
0
297
0
 46
4.0
 94
-1056964608
 47
1.0
 49
1.0
140
1.0
294
1
141
0.0
177
0
142
1.0
295
0
296
0
143
3.75
271
0
272
9
273
9
  0
DICTIONARY
  5
2D
330
A
100
AcDbDictionary
280
1
281
1
  3
CREATED_BY_EZDXF
350
2E
  3
WRITTEN_BY_EZDXF
350
15F
  0
DICTIONARYVAR
  5
2E
330
2D
100
DictionaryVariables
280
0
  1
1.4.4 @ 2026-09-20T16:59:30.706425+00:00
  0
DICTIONARYVAR
  5
15F
330
2D
100
DictionaryVariables
280
0
  1
1.4.4 @ 2026-09-20T16:59:30.718034+00:00
  0
ENDSEC
  0
EOF
